<svg xmlns="http://www.w3.org/2000/svg" xmlns:xlink="http://www.w3.org/1999/xlink" width="1328" height="2079" viewBox="0 0 1328 2079">
  <defs>
    <clipPath id="clip-path">
      <rect id="Rect치ngulo_51710" data-name="Rect치ngulo 51710" width="1328" height="2041" transform="translate(136 2185)" fill="#ced371" stroke="#707070" stroke-width="1" opacity="0.54"/>
    </clipPath>
    <linearGradient id="linear-gradient" x1="0.5" y1="1" x2="0.5" gradientUnits="objectBoundingBox">
      <stop offset="0" stop-color="#f6f6f6" stop-opacity="0"/>
      <stop offset="1" stop-color="#eff4f8"/>
    </linearGradient>
    <linearGradient id="linear-gradient-2" x1="0.5" y1="1" x2="0.5" gradientUnits="objectBoundingBox">
      <stop offset="0" stop-color="#f6f6f6" stop-opacity="0"/>
      <stop offset="1" stop-color="#f0f4f8"/>
    </linearGradient>
    <linearGradient id="linear-gradient-3" x1="0.5" x2="0.5" y2="1" gradientUnits="objectBoundingBox">
      <stop offset="0" stop-color="#fcfdfd"/>
      <stop offset="1" stop-color="#fff"/>
    </linearGradient>
  </defs>
  <g id="Grupo_872233" data-name="Grupo 872233" transform="translate(-136 -2185)">
    <g id="Enmascarar_grupo_53" data-name="Enmascarar grupo 53" clip-path="url(#clip-path)">
      <g id="Grupo_872223" data-name="Grupo 872223" transform="translate(136 2184.83)">
        <g id="Grupo_78341" data-name="Grupo 78341" transform="translate(0 0)">
          <path id="Trazado_113528" data-name="Trazado 113528" d="M2.235-1559.781s-85.629-13-277.3,94.465-619.909-44.226-717.229-61.456-270.688,3.478-333.475,48.072v786.48h1328Z" transform="translate(1325.765 1560.275)" opacity="0.62" fill="url(#linear-gradient)" style="mix-blend-mode: multiply;isolation: isolate"/>
          <path id="Trazado_113527" data-name="Trazado 113527" d="M2.235-1560.275s-223.333,255.4-536.471,133.3c-162.832-63.492-330.233-7.266-456.956,0-117.471,6.735-194.5-34.984-334.574-95.152V1468.882h1328Z" transform="translate(1325.765 1583.661)" opacity="0.68" fill="url(#linear-gradient-2)" style="mix-blend-mode: multiply;isolation: isolate"/>
        </g>
      </g>
    </g>
    <rect id="Rect치ngulo_292459" data-name="Rect치ngulo 292459" width="1328" height="104" transform="translate(136 4160)" fill="url(#linear-gradient-3)"/>
  </g>
</svg>
