<svg xmlns="http://www.w3.org/2000/svg" xmlns:xlink="http://www.w3.org/1999/xlink" width="1328" height="2079" viewBox="0 0 1328 2079"><defs><clipPath id="a"><rect width="1328" height="2041" transform="translate(136 2185)" fill="#ced371" stroke="#707070" stroke-width="1" opacity="0.54"/></clipPath><linearGradient id="b" x1="0.5" y1="1" x2="0.5" gradientUnits="objectBoundingBox"><stop offset="0" stop-color="#f6f6f6" stop-opacity="0"/><stop offset="1" stop-color="#eff4f8"/></linearGradient><linearGradient id="c" x1="0.5" y1="1" x2="0.5" gradientUnits="objectBoundingBox"><stop offset="0" stop-color="#f6f6f6" stop-opacity="0"/><stop offset="1" stop-color="#f0f4f8"/></linearGradient><linearGradient id="d" x1="0.5" x2="0.5" y2="1" gradientUnits="objectBoundingBox"><stop offset="0" stop-color="#fcfdfd"/><stop offset="1" stop-color="#fff"/></linearGradient></defs><g transform="translate(-136 -2185)"><g clip-path="url(#a)"><g transform="translate(136 2184.83)"><g transform="translate(0 0)"><path d="M2.235-1559.781s-85.629-13-277.3,94.465-619.909-44.226-717.229-61.456-270.688,3.478-333.475,48.072v786.48h1328Z" transform="translate(1325.765 1560.275)" opacity="0.62" fill="url(#b)" style="mix-blend-mode:multiply;isolation:isolate"/><path d="M2.235-1560.275s-223.333,255.4-536.471,133.3c-162.832-63.492-330.233-7.266-456.956,0-117.471,6.735-194.5-34.984-334.574-95.152V1468.882h1328Z" transform="translate(1325.765 1583.661)" opacity="0.68" fill="url(#c)" style="mix-blend-mode:multiply;isolation:isolate"/></g></g></g><rect width="1328" height="104" transform="translate(136 4160)" fill="url(#d)"/></g></svg>