<svg xmlns="http://www.w3.org/2000/svg" width="64.545" height="66.244" viewBox="0 0 64.545 66.244">
  <g id="Grupo_876076" data-name="Grupo 876076" transform="translate(5820 8596)">
    <g id="Grupo_876070" data-name="Grupo 876070" transform="translate(-5820 -8596)">
      <ellipse id="Elipse_4912" data-name="Elipse 4912" cx="32.273" cy="33.122" rx="32.273" ry="33.122" transform="translate(0 0)" fill="#9ea257"/>
    </g>
    <g id="_000000ff" data-name="#000000ff" transform="translate(-5808 -8584)">
      <path id="Trazado_188961" data-name="Trazado 188961" d="M8.176,10.172A3.321,3.321,0,0,1,11.277,8q12.524,0,25.048,0a4.639,4.639,0,0,1,4.708,4.629q.006,6.143,0,12.287,1.868,1.87,3.737,3.737a.707.707,0,0,1-.083,1.094c-.612.6-1.216,1.216-1.825,1.822a.682.682,0,0,1-.672.211,1.205,1.205,0,0,1-.5-.362q-.275.274-.549.55,3.794,3.8,7.59,7.59a.672.672,0,0,1,.039.975c-.55.555-1.1,1.11-1.659,1.658a.659.659,0,0,1-.923,0q-2.582-2.57-5.155-5.151,0,3.334,0,6.667c.664,0,1.328-.007,1.991,0a.67.67,0,0,1,.654.736,7.063,7.063,0,0,1-.2,2.359,3.32,3.32,0,0,1-2.305,2.089,5.8,5.8,0,0,1-1.465.1H16.65a3.334,3.334,0,0,1-3.284-2.5,5.779,5.779,0,0,1-.1-1.467V17.253c-1.546,0-3.094.006-4.639,0a.652.652,0,0,1-.646-.647c-.01-1.464,0-2.927,0-4.39a5.6,5.6,0,0,1,.2-2.04M9.3,11.218c-.012,1.57,0,3.141,0,4.713h3.967c0-1.489,0-2.978,0-4.467a2.185,2.185,0,0,0-.179-.977,1.981,1.981,0,0,0-3.784.731m4.61-1.9a3.352,3.352,0,0,1,.674,1.984q0,17.191,0,34.382a1.981,1.981,0,0,0,3.76.874,7.09,7.09,0,0,0,.228-2.356.673.673,0,0,1,.721-.5H39.711V35.709c-.386-.385-.769-.773-1.157-1.155q-.275.274-.548.549a1.047,1.047,0,0,1,.376.583.694.694,0,0,1-.226.589l-1.9,1.9a.671.671,0,0,1-.974.041q-2.3-2.29-4.591-4.588a.7.7,0,0,1,.082-1.1c.611-.6,1.216-1.215,1.824-1.822a.676.676,0,0,1,.591-.225,1.052,1.052,0,0,1,.578.378q1.846-1.842,3.689-3.688a.938.938,0,0,1-.385-.664.861.861,0,0,1,.356-.631c.612-.6,1.213-1.217,1.826-1.821a.889.889,0,0,1,.462-.21q0-5.612,0-11.225a3.314,3.314,0,0,0-3.389-3.3q-11.2,0-22.409,0M38.664,26.51q1.845,1.847,3.692,3.693c.352-.347.7-.7,1.05-1.048q-1.847-1.847-3.694-3.693c-.349.349-.7.7-1.047,1.048M34.7,31.8q1.183,1.188,2.37,2.371,1.848-1.846,3.694-3.694-1.186-1.185-2.371-2.37L34.7,31.8m-2.645,1.323q1.845,1.847,3.692,3.693c.352-.347.7-.7,1.049-1.047q-1.843-1.85-3.694-3.694c-.349.349-.7.7-1.047,1.048m7.438.5q3.58,3.584,7.164,7.165l.718-.717Q43.79,36.481,40.207,32.9l-.717.717M19.876,45.023a3.791,3.791,0,0,1-.662,2.636c7.026.021,14.052,0,21.078.01A2,2,0,0,0,42.177,46.5a3.315,3.315,0,0,0,.179-1.479Z" transform="translate(-7.972 -7.996)" fill="#fff"/>
      <path id="Trazado_188962" data-name="Trazado 188962" d="M112,56h21.819v1.322H112Z" transform="translate(-103.402 -52.033)" fill="#fff"/>
      <path id="Trazado_188963" data-name="Trazado 188963" d="M112,88h21.819v1.322H112Z" transform="translate(-103.402 -81.388)" fill="#fff"/>
      <path id="Trazado_188964" data-name="Trazado 188964" d="M112,120h21.819v1.322H112Z" transform="translate(-103.402 -110.743)" fill="#fff"/>
      <path id="Trazado_188965" data-name="Trazado 188965" d="M112,152h21.819v1.322H112Z" transform="translate(-103.402 -140.098)" fill="#fff"/>
      <path id="Trazado_188966" data-name="Trazado 188966" d="M112,184h21.819v1.322H112Z" transform="translate(-103.402 -169.453)" fill="#fff"/>
      <path id="Trazado_188967" data-name="Trazado 188967" d="M112,216h19.175v1.322H112Z" transform="translate(-103.402 -198.809)" fill="#fff"/>
      <path id="Trazado_188968" data-name="Trazado 188968" d="M112,248h17.852v1.322H112Z" transform="translate(-103.402 -228.164)" fill="#fff"/>
      <path id="Trazado_188969" data-name="Trazado 188969" d="M109.092,280.067a5.967,5.967,0,1,1-3.342,1.684,5.95,5.95,0,0,1,3.342-1.684m.167,1.316a4.628,4.628,0,1,0,3.431.843A4.643,4.643,0,0,0,109.259,281.383Z" transform="translate(-96.069 -257.523)" fill="#fff"/>
      <path id="Trazado_188970" data-name="Trazado 188970" d="M138.715,312.085a3.307,3.307,0,1,1-2.223,1.561,3.3,3.3,0,0,1,2.223-1.561m.155,1.317a2,2,0,0,0-1.344,1.111,1.98,1.98,0,1,0,1.344-1.111Z" transform="translate(-125.446 -286.9)" fill="#fff"/>
      <path id="Trazado_188971" data-name="Trazado 188971" d="M266.8,384.264a.659.659,0,0,1,1.005,0,.975.975,0,0,1,.174.6,1.321,1.321,0,0,0,1.307,1.154c.882,0,1.763,0,2.645,0v1.322c-.911,0-1.822.007-2.733-.006a2.712,2.712,0,0,1-2.16-1.231A4.406,4.406,0,0,1,264,387.334c0-.44,0-.88,0-1.321a3.108,3.108,0,0,0,2.033-.786A5.331,5.331,0,0,0,266.8,384.264Z" transform="translate(-242.837 -352.95)" fill="#fff"/>
    </g>
  </g>
</svg>
