<svg xmlns="http://www.w3.org/2000/svg" width="55" height="55" viewBox="0 0 55 55">
  <g id="Grupo_876356" data-name="Grupo 876356" transform="translate(-772.5 -3061)">
    <path id="Trazado_613893" data-name="Trazado 613893" d="M36.358.073A3.221,3.221,0,0,1,38.482,1.92a3.868,3.868,0,0,1,.224,1.42q-.006,9.049-.01,18.1a.708.708,0,0,0,.423.738,2.282,2.282,0,0,1,1.29,2.242,2,2,0,0,0,1.175,2.206,5.8,5.8,0,0,1,2.835,4.219c.072.4.226.523.656.517,2.255-.031,4.511-.018,6.767-.012.791,0,1.249.6.931,1.2a.89.89,0,0,1-.851.459c-.448.005-.9.01-1.343,0-.259-.006-.312.081-.217.317.746,1.867,1.494,3.734,2.221,5.608.1.266.312.267.5.321A2.57,2.57,0,0,1,53,44.268a2.9,2.9,0,0,1-.638.055q-3.33.006-6.66,0a2.606,2.606,0,0,1-2.674-2.152,2.568,2.568,0,0,1,2-2.929.609.609,0,0,0,.485-.405q1.042-2.686,2.133-5.353c.147-.359.138-.487-.307-.483q-3.249.028-6.5,0c-.338,0-.41.094-.41.418.011,4.153.019,8.306-.007,12.459,0,.508.257.434.555.435,2.216.008,3.852.988,4.508,2.857.235.67.529.871,1.19.794a5.411,5.411,0,0,1,1.445.043,2.407,2.407,0,0,1,2.007,2.723,2.343,2.343,0,0,1-2.314,2.335c-.591.009-1.182.006-1.772,0-.573,0-.943-.315-.953-.792-.01-.493.371-.814.98-.818.5,0,1,.009,1.5,0a.877.877,0,0,0,.975-.954c-.018-.573-.348-.882-.978-.883q-9.721,0-19.443,0c-.629,0-.978.324-.984.88a.924.924,0,0,0,1,.955c1.951.01,3.9,0,5.854,0,2.506,0,5.013,0,7.519,0a.837.837,0,0,1,.839.451.766.766,0,0,1-.088.856.813.813,0,0,1-.7.311c-4.565,0-9.131.009-13.7-.012a2.564,2.564,0,0,1-2.311-3.195c.015-.066.036-.131.069-.248h-.558q-6.123,0-12.246-.006a1.325,1.325,0,0,0-.916.327c-1.159.955-2.348,1.874-3.515,2.82A.909.909,0,0,1,7.366,55a.924.924,0,0,1-.5-.983c.007-.644-.021-1.29.011-1.933.019-.381-.1-.489-.477-.47a6.225,6.225,0,0,1-3.611-.763A5.562,5.562,0,0,1,.167,47.284c-.024-.1.018-.222-.118-.27V13.285c.219-.485.522-.686.932-.62a.987.987,0,0,1,.818.876,6,6,0,0,1,.025.858q0,15.622,0,31.244a4.065,4.065,0,0,0,1.4,3.289,4.078,4.078,0,0,0,3.183.8c.242-.018.34-.163.346-.393.007-.253-.09-.412-.361-.431-.3-.021-.606-.038-.908-.089a3.037,3.037,0,0,1-2.72-2.7,9.728,9.728,0,0,1,.034-3.259A3.035,3.035,0,0,1,5.33,40.424c.229-.038.46-.072.691-.1.735-.09.738-.089.738-.851q0-18.387,0-36.774c0-.848-.012-.856-.878-.85a3.827,3.827,0,0,0-4.056,4.04c-.009,1.038,0,2.076,0,3.114a3.983,3.983,0,0,1-.024.59.991.991,0,0,1-.82.876c-.41.066-.713-.136-.931-.62V4.692A5.4,5.4,0,0,1,4.668.073Z" transform="translate(772.451 3060.927)" fill="#9ea257"/>
    <path id="Trazado_613894" data-name="Trazado 613894" d="M.049,19.348c.287.329.582.629,1.084.438s.525-.6.534-1.052a31.26,31.26,0,0,1,.08-4.233A3.841,3.841,0,0,1,5.459,11.19c1.413-.073,1.413-.073,1.413,1.331q0,18.417.013,36.834c0,.54-.123.681-.67.674a3,3,0,0,0-3.353,3.333c0,.662-.031,1.327.012,1.986a2.974,2.974,0,0,0,2.988,2.844c.071,0,.143,0,.215,0,.8.006.978.251.8,1.055-.027.121-.065.2-.2.2A4.554,4.554,0,0,1,2.7,58.192a4.228,4.228,0,0,1-1.04-2.953q.006-15.732,0-31.464c0-.125-.006-.251,0-.376.027-.454-.027-.86-.529-1.052s-.8.108-1.084.439Z" transform="translate(772.451 3051.426)" fill="#fafafa"/>
    <path id="Trazado_613896" data-name="Trazado 613896" d="M59.031,30.617q0-9.423-.01-18.846c0-.433.081-.559.541-.558q13.156.024,26.312.012c1.206,0,1.666.448,1.666,1.632q0,9.074.008,18.148a.656.656,0,0,1-.414.685,2.294,2.294,0,0,0-1.325,2.27,1.924,1.924,0,0,1-1.131,2.169,5.719,5.719,0,0,0-2.859,4.138c-.09.481-.245.644-.766.635-2.183-.039-4.367-.017-6.551-.015a1.869,1.869,0,0,0-.481.025.8.8,0,0,0-.675.844.746.746,0,0,0,.7.758,13.5,13.5,0,0,0,1.5.033c.3,0,.422.021.277.378-.742,1.829-1.46,3.667-2.18,5.5a.493.493,0,0,1-.415.339,2.436,2.436,0,0,0-1.611,1.058.511.511,0,0,1-.495.231c-3.9,0-7.8-.011-11.706.009-.44,0-.385-.223-.385-.5q0-9.477,0-18.954" transform="translate(721.945 3051.386)" fill="#fafafa"/>
    <path id="Trazado_613897" data-name="Trazado 613897" d="M49.173,298.13c-3.043,0-6.086-.009-9.128.01-.4,0-.521-.092-.495-.5.038-.588.016-1.181.008-1.771a.8.8,0,0,0-.882-.906q-2.094-.021-4.188,0a.782.782,0,0,0-.877.861c-.025.643-.018,1.289,0,1.933.006.266-.053.4-.352.374s-.574.007-.858-.017a1.191,1.191,0,0,1-1.113-1.11c-.033-.858-.035-1.718,0-2.576a1.213,1.213,0,0,1,1.293-1.157c1.145-.012,2.291,0,3.437,0,3.616,0,7.231,0,10.847-.007.355,0,.55.053.676.45a2.494,2.494,0,0,0,2.409,1.71q3.463.012,6.927,0a2.531,2.531,0,0,0,2.426-1.77c.094-.3.2-.4.507-.389.626.022,1.253.017,1.879,0,.247-.006.342.05.338.321-.015,1.163-.012,2.327,0,3.49,0,.237-.031.358-.314.346a5.043,5.043,0,0,0-2.983.664,1.091,1.091,0,0,1-.527.043q-4.511,0-9.021,0" transform="translate(745.722 2809.826)" fill="#fff"/>
    <path id="Trazado_613898" data-name="Trazado 613898" d="M201.895,233.207c0,1.127-.011,2.255.007,3.382,0,.308-.084.4-.389.382-.41-.026-.823-.013-1.234-.005-.706.013-1.419.114-1.855-.682a1.128,1.128,0,0,0-.855-.508c-.575-.051-.747-.425-.92-.869-.651-1.674-1.305-3.346-1.984-5.009-.146-.357-.117-.448.288-.445q3.275.024,6.549,0c.356,0,.4.12.4.428-.017,1.109-.007,2.219-.007,3.328" transform="translate(605.841 2864.478)" fill="#fff"/>
    <path id="Trazado_613899" data-name="Trazado 613899" d="M233.842,192.652c-1.5,0-3.006-.014-4.509.009-.406.006-.438-.133-.351-.466a4.973,4.973,0,0,1,4.888-3.66,5.048,5.048,0,0,1,4.927,3.7c.092.352,0,.424-.339.42-1.539-.015-3.078-.007-4.616-.007" transform="translate(576.416 2899.52)" fill="#fff"/>
    <path id="Trazado_613900" data-name="Trazado 613900" d="M256.377,236.074c0-2.058.01-4.117-.009-6.175,0-.383.108-.5.478-.464a4.9,4.9,0,0,0,.965,0c.4-.041.465.133.464.489q-.017,6.149,0,12.3c0,.358-.063.521-.46.484-.459-.043-1.066.141-1.345-.091-.3-.245-.086-.872-.089-1.331-.011-1.736,0-3.472,0-5.209" transform="translate(552.976 2864.496)" fill="#fefefe"/>
    <path id="Trazado_613901" data-name="Trazado 613901" d="M220.517,335.593a2.668,2.668,0,0,1,2.411-1.924c2.5-.022,5.006-.042,7.507.01a2.6,2.6,0,0,1,2.3,1.6c.149.293.071.368-.237.367q-5.925-.01-11.851-.008a.527.527,0,0,1-.127-.042" transform="translate(583.633 2775.24)" fill="#fff"/>
    <path id="Trazado_613902" data-name="Trazado 613902" d="M106.456,338.812c-.112.343-.232.657-.313.981a.263.263,0,0,1-.294.237c-.089,0-.179,0-.268,0q-8.072,0-16.144-.005c-.16,0-.437.114-.466-.1a2.448,2.448,0,0,1,.036-1.107c.014-.043.193-.042.3-.042q8.5,0,17,0a.875.875,0,0,1,.152.037" transform="translate(696.333 2770.849)" fill="#fff"/>
    <path id="Trazado_613903" data-name="Trazado 613903" d="M314.933,285.657c-1.092,0-2.184.018-3.276-.006-.86-.019-1.327-.746-.939-1.414a.978.978,0,0,1,.9-.479c2.238-.006,4.475-.011,6.713,0a.952.952,0,1,1-.019,1.892c-1.128.018-2.256.005-3.383.005" transform="translate(506.498 2817.971)" fill="#fffefe"/>
    <path id="Trazado_613904" data-name="Trazado 613904" d="M159.274,285.648c-1.074,0-2.148,0-3.222,0a1.032,1.032,0,0,1-1.091-.609c-.273-.661.2-1.28,1.022-1.289,1.4-.016,2.792,0,4.188,0,.787,0,1.575-.007,2.362,0,.7.008,1.139.377,1.144.941s-.434.95-1.129.957c-1.092.012-2.183,0-3.275,0" transform="translate(639.843 2817.98)" fill="#fffefe"/>
    <path id="Trazado_613905" data-name="Trazado 613905" d="M59.071,323.562c0-2.332,0-4.56,0-6.788,0-.223.09-.264.285-.262q1.045.012,2.091,0c.212,0,.321.034.32.288-.011,1.465-.008,2.931,0,4.4a.456.456,0,0,1-.217.392c-.8.629-1.589,1.267-2.473,1.974" transform="translate(721.906 2789.914)" fill="#fff"/>
    <path id="Trazado_613906" data-name="Trazado 613906" d="M176.125,243.969H172.34l1.889-4.76,1.9,4.76" transform="translate(624.893 2856.119)" fill="#fff"/>
    <path id="Trazado_613907" data-name="Trazado 613907" d="M328.1,243.956l1.887-4.758,1.892,4.758Z" transform="translate(491.498 2856.129)" fill="#fff"/>
    <path id="Trazado_613908" data-name="Trazado 613908" d="M258.608,164.439a2.8,2.8,0,0,0,0,.375c.044.318-.109.362-.377.314a3.154,3.154,0,0,0-1.175.006c-.316.063-.367-.077-.346-.342.017-.213,0-.429,0-.644.022-.659.387-1.057.958-1.052s.892.369.931,1.021c.006.107,0,.215,0,.322" transform="translate(552.636 2921.307)" fill="#fdfdfd"/>
    <path id="Trazado_613909" data-name="Trazado 613909" d="M103.171,49.407q4.052,0,8.1,0c.859,0,1.119.259,1.119,1.114q0,5.286,0,10.573c0,.856-.257,1.109-1.121,1.109H94.958c-.831,0-1.09-.251-1.091-1.083q-.006-5.313,0-10.626c0-.83.262-1.085,1.092-1.085q4.106,0,8.212,0" transform="translate(692.103 3018.675)" fill="#9ea257"/>
    <path id="Trazado_613910" data-name="Trazado 613910" d="M112.973,70.176c-2.363,0-4.726-.011-7.089.01-.4,0-.5-.093-.5-.5q.029-4.3,0-8.592c0-.4.095-.5.5-.495q7.116.023,14.232,0c.4,0,.5.09.5.495q-.03,4.3,0,8.592c0,.4-.1.5-.5.5-2.381-.021-4.762-.01-7.143-.01" transform="translate(682.234 3009.086)" fill="#fafafa"/>
  </g>
</svg>
