<svg xmlns="http://www.w3.org/2000/svg" width="63.557" height="68.03" viewBox="0 0 63.557 68.03">
  <g id="Grupo_876359" data-name="Grupo 876359" transform="translate(-1008.5 -3057.394)">
    <g id="Grupo_876357" data-name="Grupo 876357" transform="translate(1008.5 3057.394)">
      <path id="Trazado_613918" data-name="Trazado 613918" d="M22.588,1.9c2.383,3.251,4.732,6.361,6.962,9.554a3.864,3.864,0,0,0,2.838,1.769c2.211.329,4.395.838,6.665,1.286A35.468,35.468,0,0,0,35.8,9.7a1.047,1.047,0,0,1-.257-1.207.964.964,0,0,1,1.679-.055,36.342,36.342,0,0,1,3.8,5.712,3.319,3.319,0,0,0,1.057,1.222,24.22,24.22,0,0,1,4.093,3.621,3.5,3.5,0,0,0-.115-1.614c-.66-4.972,1.169-8.827,5.187-11.715A24.511,24.511,0,0,1,59.217,1.99a.97.97,0,0,1,1.225.5,21.435,21.435,0,0,1,3.092,11.5c-.2,3.822-2.168,6.655-5.168,8.868a23.4,23.4,0,0,1-6.754,3.359c-.464.15-.574.266-.378.753a26.421,26.421,0,0,1-5.966,28.987,25.8,25.8,0,0,1-15.189,7.416A26.554,26.554,0,0,1,1.034,44.295,25.489,25.489,0,0,1,.347,32.918c.132-.8.475-1.071,1.121-.961.618.105.881.522.749,1.3a23.439,23.439,0,0,0-.262,4.879A23.825,23.825,0,0,0,7.023,52.029a24.1,24.1,0,0,0,15.9,9.383A24.7,24.7,0,0,0,41.6,17.349c-.436-.334-.718-.385-1.151.023-.606.572-1.305,1.045-2.008,1.594.6.462,1.223.9,1.8,1.387a21.152,21.152,0,0,1,7.7,13.775A21.489,21.489,0,0,1,31.3,58.031a21.967,21.967,0,0,1-6.835.422c-.723-.067-1.1-.462-1.023-1.1.068-.587.515-.875,1.207-.808a19.651,19.651,0,0,0,21.06-14.94,20.215,20.215,0,0,0,.095-8.819,19.667,19.667,0,0,0-3.222,2.1c-1.651,1.325-1.87,3.091-1.613,5.017.1.742.237,1.478.323,2.221a4.4,4.4,0,0,1-.238,2.082,9.11,9.11,0,0,1-5.812,5.8,2.981,2.981,0,0,1-4.014-2.06,10.492,10.492,0,0,1-.5-3.248c-.061-2.271.076-4.547-.131-6.816-.006-.066,0-.132-.007-.2-.132-1.788-.419-1.989-2.173-1.7a16.83,16.83,0,0,1-4.856.391A5.236,5.236,0,0,1,18.8,31.82a6.716,6.716,0,0,1,1.874-5.869,9.59,9.59,0,0,1,1.482-1.367,16.67,16.67,0,0,1-6.711-2.255c-1.169-.692-1.166-.671-2.18.279a20.494,20.494,0,0,0-4.523,6.213.852.852,0,0,0,.1,1,34.064,34.064,0,0,1,2.14,3.784,2.841,2.841,0,0,0,1.971,1.585,7.444,7.444,0,0,1,1.6.6,2.624,2.624,0,0,1,1.521,3.38,20.944,20.944,0,0,1-1.485,3.51c-.124.257-.231.523-.363.776a3.146,3.146,0,0,0,.016,3.374,8.776,8.776,0,0,1,1.02,5.81c-.051.345.11.467.337.622A21.8,21.8,0,0,0,19,55.126c.74.33.973.8.7,1.373-.258.548-.745.685-1.47.356-7.006-3.181-11.446-8.49-12.78-16.092-1.371-7.816,1.07-14.457,6.879-19.851.387-.359.4-.5-.014-.855A34.973,34.973,0,0,1,4.187,9.325a1,1,0,0,1,.263-1.31C8.881,4.237,13.736,1.25,19.574.244A16,16,0,0,1,32.856,4.007c.154.125.312.246.46.378a.865.865,0,0,1,.191,1.327.865.865,0,0,1-1.377.142,19.632,19.632,0,0,0-4.083-2.66A13.5,13.5,0,0,0,22.588,1.9" transform="translate(0 0)" fill="#9ea257"/>
      <path id="Trazado_613919" data-name="Trazado 613919" d="M142.776,149.88a23.649,23.649,0,0,0-.268-4.873c0-.021,0-.044-.006-.066-.43-2.055-1.548-2.782-3.619-2.419a23.642,23.642,0,0,1-4.322.5,3.614,3.614,0,0,1-3.759-4.15,5.645,5.645,0,0,1,1.761-3.451,17.319,17.319,0,0,1,3.107-2.339,4.783,4.783,0,0,1,1.652-.36,27.114,27.114,0,0,0,9-3.764.875.875,0,0,1,1.108.02,19.974,19.974,0,0,1,7.886,9.893c.15.4.1.6-.29.8a17.932,17.932,0,0,0-3.565,2.364,6.3,6.3,0,0,0-2.238,5.776c.1.94.185,1.885.343,2.816a3.122,3.122,0,0,1-.2,1.744,7.592,7.592,0,0,1-3.821,4.108c-1.468.7-2.246.269-2.516-1.322a30.838,30.838,0,0,1-.255-5.275" transform="translate(-110.2 -108.501)" fill="#fff"/>
      <path id="Trazado_613920" data-name="Trazado 613920" d="M127.03,101.243c1.5-1.1,2.928-2.149,4.361-3.2q2.744-2.012,5.488-4.024a.856.856,0,0,1,.712-.256c2.67.533,5.342,1.058,8.1,1.6a24.431,24.431,0,0,1-2.523,1.838,27.346,27.346,0,0,1-9.46,4.17,13.982,13.982,0,0,1-6.678-.131" transform="translate(-107.035 -78.993)" fill="#fff"/>
      <path id="Trazado_613921" data-name="Trazado 613921" d="M50.707,221.322c-5.324-4.536-7.791-13.2-5.7-19.785.229.094.271.328.371.509.449.806.9,1.611,1.321,2.43a4.26,4.26,0,0,0,2.877,2.32,7.827,7.827,0,0,1,1.481.532.842.842,0,0,1,.49,1.134,21.38,21.38,0,0,1-1.342,3.141,20.632,20.632,0,0,0-1,2.358,3.221,3.221,0,0,0,.314,2.895,7.929,7.929,0,0,1,1.186,4.466" transform="translate(-37.298 -169.815)" fill="#fff"/>
      <path id="Trazado_613922" data-name="Trazado 613922" d="M81.672,86.34c2.318-1.7,4.6-3.381,6.889-5.062a.663.663,0,0,1,.545-.169l7.225,1.446a.679.679,0,0,1,.116.07c-1.3.958-2.582,1.9-3.865,2.845-1.809,1.327-3.628,2.64-5.423,3.985a.847.847,0,0,1-1.056.083,20.8,20.8,0,0,1-4.43-3.2" transform="translate(-68.817 -68.333)" fill="#fff"/>
      <path id="Trazado_613923" data-name="Trazado 613923" d="M109.712,23.375c-1.123-.212-2.213-.415-3.3-.623s-2.153-.417-3.23-.624a1.336,1.336,0,0,1-.921-.539q-2.373-3.292-4.8-6.544c-.339-.451-.229-.557.236-.728a24.185,24.185,0,0,1,4.179-1.144.522.522,0,0,1,.615.208q3.576,4.907,7.171,9.8a.835.835,0,0,1,.054.2" transform="translate(-81.95 -11.081)" fill="#fff"/>
      <path id="Trazado_613924" data-name="Trazado 613924" d="M328.362,102.428c.739-1.778,1.5-3.4,2.087-5.091a3.353,3.353,0,0,1,2.271-2.253c1.855-.646,3.647-1.472,5.513-2.241a9.309,9.309,0,0,1-3.579,6.14,20.618,20.618,0,0,1-6.292,3.446" transform="translate(-276.677 -78.229)" fill="#fff"/>
      <path id="Trazado_613925" data-name="Trazado 613925" d="M305.954,76.38c-1.839-4.636-3.27-9.087-.308-13.806,1.023,2.486,1.982,4.82,2.95,7.151a.421.421,0,0,1-.018.367c-.854,2.037-1.7,4.077-2.623,6.288" transform="translate(-256.103 -52.725)" fill="#fff"/>
      <path id="Trazado_613926" data-name="Trazado 613926" d="M53.938,66.621c-2.007,1.472-3.886,2.846-5.76,4.227-.166.122-.273.161-.435-.021a35.63,35.63,0,0,1-4.506-6.291l10.7,2.085" transform="translate(-36.432 -54.378)" fill="#fff"/>
      <path id="Trazado_613927" data-name="Trazado 613927" d="M327.076,38.109c-.836-2.038-1.595-3.929-2.4-5.8a.7.7,0,0,1,.213-.978,21.509,21.509,0,0,1,6.5-3.55l-4.32,10.329" transform="translate(-273.483 -23.408)" fill="#fff"/>
      <path id="Trazado_613928" data-name="Trazado 613928" d="M56.043,33.62,45.295,31.527a32.809,32.809,0,0,1,4.449-3.046c.491-.288,1.008-.532,1.5-.816.234-.135.364-.11.53.12,1.393,1.922,2.8,3.834,4.267,5.835" transform="translate(-38.165 -23.241)" fill="#fff"/>
      <path id="Trazado_613929" data-name="Trazado 613929" d="M352.618,42.481l4.156-9.932a21.436,21.436,0,0,1,1.79,5.569c.066.389.071.79.151,1.176.1.5-.073.731-.549.917-1.812.71-3.605,1.47-5.548,2.27" transform="translate(-297.116 -27.426)" fill="#fff"/>
      <rect id="Rect치ngulo_324933" data-name="Rect치ngulo 324933" width="63.557" height="63.596" transform="translate(0)" fill="none"/>
    </g>
    <g id="Grupo_876358" data-name="Grupo 876358" transform="translate(1043.963 3095.236)">
      <path id="Trazado_613911" data-name="Trazado 613911" d="M9.787.013A2.575,2.575,0,0,1,10.9.29a2.154,2.154,0,0,0,1.858,0,2.416,2.416,0,0,1,3.151.74,1.985,1.985,0,0,0,1.521.794,4.08,4.08,0,0,1,.639.074,2.384,2.384,0,0,1,1.983,1.927,2.438,2.438,0,0,0,1.232,1.583,2.459,2.459,0,0,1,1.333,2.915,2.19,2.19,0,0,0,.352,1.747c.049.065.1.133.141.2a2.528,2.528,0,0,1-.014,3.083,2.552,2.552,0,0,0-.462,2.047,2.477,2.477,0,0,1-1.384,2.838,2.107,2.107,0,0,0-1.1,1.218.547.547,0,0,0,.046.483q1.619,2.78,3.22,5.57a1.315,1.315,0,0,1-.4,1.854,1.278,1.278,0,0,1-.879.2c-.707-.108-1.414-.213-2.119-.336-.172-.03-.209.056-.255.173-.245.626-.5,1.25-.734,1.879a1.329,1.329,0,0,1-2.444.186C15.561,27.675,14.5,25.9,13.512,24.1a1.839,1.839,0,0,0-1.191-.926,2.575,2.575,0,0,0-1.766.3c-.086.034-.137.171-.193.266q-1.646,2.852-3.29,5.706a1.294,1.294,0,0,1-1.427.722,1.262,1.262,0,0,1-1.012-.84c-.248-.614-.495-1.228-.721-1.85-.075-.205-.138-.277-.382-.23-.682.132-1.37.234-2.06.314A1.241,1.241,0,0,1,.252,27a1.235,1.235,0,0,1-.073-1.388c.546-.97,1.108-1.93,1.664-2.893.536-.929,1.068-1.859,1.613-2.783a.53.53,0,0,0,.039-.483,1.894,1.894,0,0,0-.887-1.091c-.1-.056-.2-.11-.292-.167a2.53,2.53,0,0,1-1.293-2.86,2.175,2.175,0,0,0-.388-1.854,3.3,3.3,0,0,1-.37-.634A2.4,2.4,0,0,1,.537,10.3a2.65,2.65,0,0,0,.481-2.1A2.444,2.444,0,0,1,2.423,5.375,2.273,2.273,0,0,0,3.586,3.882a2.384,2.384,0,0,1,2.4-2.022A2.507,2.507,0,0,0,7.854.917a2.31,2.31,0,0,1,1.933-.9" transform="translate(0 0)" fill="#9ea257"/>
      <path id="Trazado_613912" data-name="Trazado 613912" d="M17.926,30.744c.036-.335.079-.67.107-1.006a2.763,2.763,0,0,0-.573-1.958,1.6,1.6,0,0,1-.007-2.191,3.285,3.285,0,0,0,.516-2.66,1.21,1.21,0,0,1,.76-1.552,3.322,3.322,0,0,0,1.726-2.194c.019-.079.051-.154.073-.233a1.2,1.2,0,0,1,1.247-.922,3.305,3.305,0,0,0,2.546-1.206c.618-.71.893-.768,1.767-.4a3.32,3.32,0,0,0,2.733-.008l.169-.072a1.14,1.14,0,0,1,1.434.309c.17.191.351.373.533.554a3.023,3.023,0,0,0,2,.819c.092.007.184.005.276.012A1.207,1.207,0,0,1,34.4,19.055a3.55,3.55,0,0,0,1.833,2.368c.738.413.846.658.674,1.738a3.039,3.039,0,0,0,.532,2.416,1.6,1.6,0,0,1,0,2.192,3.228,3.228,0,0,0-.5,2.719A1.192,1.192,0,0,1,36.3,31.9a3.567,3.567,0,0,0-1.918,2.445,1.147,1.147,0,0,1-1.264.97,3.291,3.291,0,0,0-2.522,1.2,1.507,1.507,0,0,1-.142.162c-.632.575-.746.622-1.475.32a3.641,3.641,0,0,0-3.047,0,1.08,1.08,0,0,1-1.516-.363,3.483,3.483,0,0,0-2.746-1.328,1.123,1.123,0,0,1-1.162-.978,3.529,3.529,0,0,0-1.872-2.408,1.117,1.117,0,0,1-.71-1.178" transform="translate(-15.624 -14.866)" fill="#fff"/>
      <path id="Trazado_613913" data-name="Trazado 613913" d="M21.392,265.178l-.942-2.405c-.227-.581-.408-.685-1.019-.594l-2.515.373c-.038-.086.029-.135.06-.188q1.361-2.36,2.723-4.72c.085-.148.119-.207.293-.073a2.718,2.718,0,0,0,1.629.54,1.966,1.966,0,0,1,1.557.72,3.362,3.362,0,0,0,1.144.911c.142.067.14.129.07.251-.993,1.711-1.982,3.425-3,5.185" transform="translate(-15.515 -236.324)" fill="#fff"/>
      <path id="Trazado_613914" data-name="Trazado 613914" d="M186.709,262.406c-.881-.134-1.758-.262-2.634-.4a.691.691,0,0,0-.852.463c-.294.737-.578,1.479-.867,2.218-.041.1-.088.2-.145.334l-2.323-4.025c-.219-.38-.435-.762-.663-1.137-.082-.135-.077-.2.078-.272a3.144,3.144,0,0,0,1.1-.869,2.015,2.015,0,0,1,1.6-.753,2.743,2.743,0,0,0,1.652-.565c.112-.086.149-.09.219.032q1.41,2.454,2.826,4.906c.008.015,0,.037.006.072" transform="translate(-164.441 -236.177)" fill="#fff"/>
      <path id="Trazado_613915" data-name="Trazado 613915" d="M55.835,47.753a7.886,7.886,0,1,1-7.887,8,7.92,7.92,0,0,1,7.887-8" transform="translate(-44.004 -43.826)" fill="#9ea257"/>
      <path id="Trazado_613916" data-name="Trazado 613916" d="M64.236,70.45a6.55,6.55,0,1,1,6.2,6.557,6.536,6.536,0,0,1-6.2-6.557" transform="translate(-58.955 -58.655)" fill="#fff"/>
      <path id="Trazado_613917" data-name="Trazado 613917" d="M117.783,112.289a.756.756,0,0,1-.147.4c-.844,1.266-1.684,2.535-2.532,3.8a.671.671,0,0,1-1.135.1q-.919-.906-1.825-1.824a.668.668,0,1,1,.93-.942c.386.381.777.758,1.148,1.154.156.167.218.12.325-.042q.977-1.484,1.97-2.959a.665.665,0,0,1,.991-.265.639.639,0,0,1,.277.579" transform="translate(-102.676 -102.408)" fill="#9ea257"/>
      <rect id="Rect치ngulo_324932" data-name="Rect치ngulo 324932" width="23.639" height="30.187" transform="translate(0 0)" fill="none"/>
    </g>
  </g>
</svg>
