<svg xmlns="http://www.w3.org/2000/svg" xmlns:xlink="http://www.w3.org/1999/xlink" width="66.244" height="66.244" viewBox="0 0 66.244 66.244">
  <defs>
    <clipPath id="clip-path">
      <rect id="Rect치ngulo_324858" data-name="Rect치ngulo 324858" width="41.702" height="41.705" fill="none"/>
    </clipPath>
  </defs>
  <g id="Grupo_876394" data-name="Grupo 876394" transform="translate(-792.729 -12706.608)">
    <g id="Grupo_133777" data-name="Grupo 133777" transform="translate(792.729 12706.608)">
      <rect id="Rect치ngulo_35719" data-name="Rect치ngulo 35719" width="66.244" height="66.244" rx="33.122" transform="translate(0)" fill="#9ea257"/>
    </g>
    <g id="Grupo_876224" data-name="Grupo 876224" transform="translate(805 12718.878)">
      <g id="Grupo_876223" data-name="Grupo 876223" clip-path="url(#clip-path)">
        <path id="Trazado_613762" data-name="Trazado 613762" d="M22.394,0A11.328,11.328,0,0,0,24.01.238a20.329,20.329,0,0,1,2.77.628A1.26,1.26,0,0,1,27.693,2.2a1.3,1.3,0,0,1-1.051,1.189,1.454,1.454,0,0,1-.721-.062A17.838,17.838,0,0,0,10.8,5.657,17.287,17.287,0,0,0,2.946,17.518C1.713,24.784,4.094,30.765,9.837,35.36a16.747,16.747,0,0,0,8.721,3.571,17.811,17.811,0,0,0,15.65-5.7,17.551,17.551,0,0,0,4.727-10.093,18.034,18.034,0,0,0-.559-7.328,1.352,1.352,0,0,1,.511-1.614,1.317,1.317,0,0,1,1.521.088,1.416,1.416,0,0,1,.464.746A20.855,20.855,0,1,1,.513,25.491,21.552,21.552,0,0,1,.085,22.8c-.009-.084.042-.2-.085-.243v-.326c.055-.051.038-.118.042-.181s0-.1,0-.146,0-.1,0-.145.013-.13-.042-.18V20.116c.055-.051.038-.118.042-.181s0-.1,0-.146,0-.1,0-.145.013-.13-.042-.18v-.407a18.233,18.233,0,0,1,.505-3.278A20.722,20.722,0,0,1,4.827,7.352a20.9,20.9,0,0,1,6.686-5.276A20.023,20.023,0,0,1,17.893.106c.413-.052.833-.021,1.243-.106h.326c.073.071.165.031.249.042h.209c.067-.005.139.018.194-.042H21.58c.052.056.121.038.185.042h.149c.08-.01.167.027.236-.042Z" fill="#fff"/>
        <path id="Trazado_613763" data-name="Trazado 613763" d="M194.461,0a1.629,1.629,0,0,1,1,1.593c.061,1.341.206,2.678.3,4.017.017.24.092.319.334.335,1.448.1,2.894.215,4.341.33a1.275,1.275,0,0,1,1.181.851,1.23,1.23,0,0,1-.308,1.384q-2.31,2.324-4.633,4.637a1.318,1.318,0,0,1-.825.394q-2.712.271-5.424.547c-.3.03-.593.072-.891.081-.209.006-.308.152-.429.272q-3.615,3.611-7.225,7.227a1.328,1.328,0,0,1-1.357.434,1.287,1.287,0,0,1-.615-2.138c.489-.527,1.012-1.022,1.521-1.53q2.908-2.907,5.818-5.812a.941.941,0,0,0,.3-.628c.19-2.025.4-4.048.6-6.073a1.519,1.519,0,0,1,.47-.961q2.25-2.24,4.489-4.493A3.215,3.215,0,0,1,193.81,0Z" transform="translate(-160.016)" fill="#fff"/>
        <path id="Trazado_613764" data-name="Trazado 613764" d="M179.067.068c-.084,0-.19.066-.238-.068h.244c.028.018.036.034.025.048a.042.042,0,0,1-.031.02" transform="translate(-159.367)" fill="#787878"/>
        <path id="Trazado_613765" data-name="Trazado 613765" d="M181.013.068q0-.034.007-.068h.244q.041.026.025.048a.041.041,0,0,1-.03.021h-.246" transform="translate(-161.313)" fill="#4d4d4d"/>
        <path id="Trazado_613766" data-name="Trazado 613766" d="M201.276,0c-.049.13-.153.066-.239.068C201.007.055,201,.041,201,.025s.018-.025.027-.025Z" transform="translate(-179.126 0)" fill="#717171"/>
        <path id="Trazado_613767" data-name="Trazado 613767" d="M183.269.068c0-.023,0-.046.005-.069h.163a.137.137,0,0,1-.168.069" transform="translate(-163.323 0.001)" fill="#353535"/>
        <path id="Trazado_613768" data-name="Trazado 613768" d="M198.45.073A.146.146,0,0,1,198.283,0h.163q.038.022.027.047c-.008.017-.015.026-.023.026" transform="translate(-176.703)" fill="#343434"/>
        <path id="Trazado_613769" data-name="Trazado 613769" d="M199.784.073a.6.6,0,0,1,0-.073h.163a.574.574,0,0,0,.006.068l-.164,0" transform="translate(-178.037)" fill="#4e4e4e"/>
        <path id="Trazado_613770" data-name="Trazado 613770" d="M0,178.849c.1.022.077.092.068.159q-.031.061-.068,0Z" transform="translate(0 -159.384)" fill="gray"/>
        <path id="Trazado_613771" data-name="Trazado 613771" d="M0,180.312c.023,0,.045,0,.068,0v.162c-.02.042-.043.042-.068,0Z" transform="translate(0 -160.685)" fill="#616161"/>
        <path id="Trazado_613772" data-name="Trazado 613772" d="M0,181.8l.068,0q0,.082,0,.164-.033.06-.071,0Z" transform="translate(0 -162.014)" fill="#474747"/>
        <path id="Trazado_613773" data-name="Trazado 613773" d="M0,183.31l.072,0a.141.141,0,0,1-.072.167Z" transform="translate(0 -163.356)" fill="#343434"/>
        <path id="Trazado_613774" data-name="Trazado 613774" d="M0,198.3a.142.142,0,0,1,.071.166q-.038.05-.071,0Z" transform="translate(0 -176.723)" fill="#343434"/>
        <path id="Trazado_613775" data-name="Trazado 613775" d="M0,199.8l.071,0,0,.164q-.037.047-.068,0Z" transform="translate(0 -178.057)" fill="#474747"/>
        <path id="Trazado_613776" data-name="Trazado 613776" d="M0,201.3l.068,0q0,.081,0,.162c-.025.032-.048.032-.069,0Z" transform="translate(0 -179.391)" fill="#626262"/>
        <path id="Trazado_613777" data-name="Trazado 613777" d="M0,202.795l.069,0c.01.067.031.139-.069.159Z" transform="translate(0 -180.724)" fill="gray"/>
        <path id="Trazado_613778" data-name="Trazado 613778" d="M73.791,88.23A14.373,14.373,0,1,1,77.46,59.959a1.317,1.317,0,0,1,1.091,1.247,1.273,1.273,0,0,1-.88,1.277,1.467,1.467,0,0,1-.878,0,11.769,11.769,0,1,0,8.579,13.436,11.984,11.984,0,0,0-.191-5.042,1.31,1.31,0,1,1,2.522-.653A14.41,14.41,0,0,1,76.977,87.876a14.716,14.716,0,0,1-3.186.354" transform="translate(-52.948 -53.013)" fill="#fff"/>
        <path id="Trazado_613779" data-name="Trazado 613779" d="M127.786,122.3a5.213,5.213,0,1,0,4.918,5.366,1.362,1.362,0,0,1,.752-1.332,1.288,1.288,0,0,1,1.855,1.192,7.812,7.812,0,0,1-15.521,1.226,7.815,7.815,0,0,1,8.241-9.049,1.64,1.64,0,0,1,.991.307,1.3,1.3,0,0,1-.842,2.316c-.163,0-.325-.022-.395-.027" transform="translate(-106.653 -106.655)" fill="#fff"/>
        <path id="Trazado_613780" data-name="Trazado 613780" d="M284.917,43.221c-.809.8-1.531,1.513-2.251,2.229a.436.436,0,0,1-.285.128c-1.509.152-3.019.3-4.527.466-.234.025-.236-.077-.218-.252.156-1.482.306-2.964.459-4.446a.424.424,0,0,1,.1-.3c.736-.731,1.467-1.467,2.257-2.259.069.864.129,1.64.193,2.417.019.229.034.46.07.687a1.213,1.213,0,0,0,1.1,1.074c.888.1,1.781.157,2.672.231.1.009.208.012.432.025" transform="translate(-247.415 -34.567)" fill="#9ea257"/>
      </g>
    </g>
  </g>
</svg>
