<svg xmlns="http://www.w3.org/2000/svg" width="64.545" height="66.244" viewBox="0 0 64.545 66.244"><g transform="translate(1378.039 -2329.533)"><g transform="translate(-1378.04 2329.533)"><ellipse cx="32.273" cy="33.122" rx="32.273" ry="33.122" transform="translate(0 0)" fill="#9ea257"/></g><g transform="translate(83.175 -321)"><path d="M476.629,2.088a3.237,3.237,0,0,1,.933-1.5A2.72,2.72,0,0,1,479.309,0q4.92.008,9.84,0h18.916a2.6,2.6,0,0,1,2.849,2.829c0,4.9,0,9.808.01,14.711,0,.362-.094.466-.441.427-.42-.048-.987.175-1.227-.089-.209-.231-.068-.786-.068-1.2q0-6.895,0-13.789c0-.936-.252-1.187-1.191-1.187H479.522c-.9,0-1.185.282-1.185,1.165q0,9.961,0,19.923c0,.882.288,1.165,1.186,1.165,3.467,0,6.935.007,10.4-.01.369,0,.459.1.429.446a8.733,8.733,0,0,0,0,1.042c.006.175-.054.233-.228.229-.4-.01-.8.007-1.2-.007-.213-.008-.307.034-.3.279q.022,1.423,0,2.846c0,.252.075.316.319.313.937-.013,1.874,0,2.811-.011.235,0,.338.04.315.3a12.793,12.793,0,0,1-.047,1.387c-.44.007-.879.02-1.318.02-1.714,0-3.427-.005-5.141.007-.273,0-.376-.053-.355-.344a10.158,10.158,0,0,0,0-1.122c-.007-.192.054-.255.248-.248.374.014.751-.017,1.124.01.295.021.35-.09.345-.36-.016-.895-.027-1.791,0-2.685.012-.357-.112-.4-.425-.4-2.343.013-4.685.008-7.028.007a2.578,2.578,0,0,1-2.786-2.032c-.007-.021-.036-.035-.055-.053Z" transform="translate(-1925 2665)" fill="#fff"/><path d="M642.706,169.384a2.045,2.045,0,0,1-.574-.425q-2.495-2.5-5-4.991c-.627-.626-.627-1,0-1.621a1.463,1.463,0,0,1,.172-.168c.2-.145.185-.259,0-.429-.468-.439-.925-.892-1.362-1.361-.192-.206-.3-.175-.513-.016a9.285,9.285,0,1,1,3.593-8.154,9.035,9.035,0,0,1-1.888,6.449c-.176.232-.181.344.033.541.462.425.9.876,1.336,1.33.157.164.255.22.43.014.7-.832,1.164-.855,2,.006,1.526,1.575,3.1,3.1,4.65,4.655.2.2.383.427.574.641v.561a1.244,1.244,0,0,1-.318.5q-1.086,1.07-2.158,2.154a1.247,1.247,0,0,1-.5.317Z" transform="translate(-2053.396 2536.676)" fill="#fff"/><path d="M549.335,31.979a2.541,2.541,0,0,1,2.434,3.379.417.417,0,0,0,.118.512q1.078,1.049,2.13,2.125a.383.383,0,0,0,.483.113,2.378,2.378,0,0,1,1.726.01.334.334,0,0,0,.419-.091c.723-.733,1.446-1.467,2.19-2.178.2-.188.13-.338.068-.531a2.563,2.563,0,0,1,4.777-1.834,2.553,2.553,0,0,1-3.088,3.488.544.544,0,0,0-.652.171q-.987,1.026-2.015,2.013a.481.481,0,0,0-.145.584A2.531,2.531,0,0,1,556.006,43a2.562,2.562,0,0,1-3.173-1.944,2.33,2.33,0,0,1,.082-1.343.4.4,0,0,0-.108-.518q-1.081-1.047-2.131-2.125a.386.386,0,0,0-.484-.115,2.34,2.34,0,0,1-1.688,0,.386.386,0,0,0-.484.113c-.987,1-1.989,1.983-2.974,2.984-.174.177-.277.215-.456.008a7.416,7.416,0,0,0-.766-.765c-.205-.178-.181-.283,0-.464.993-.973,1.967-1.967,2.962-2.939a.443.443,0,0,0,.131-.544,2.543,2.543,0,0,1,2.414-3.366" transform="translate(-1984.864 2636.455)" fill="#fff"/><path d="M511.773,171.839a5.435,5.435,0,0,1-1.172-.074,2.529,2.529,0,0,1-1.94-2.4c-.016-.507,0-1.014-.009-1.521,0-.183.01-.3.25-.283.413.022.829.015,1.243,0,.184-.006.223.062.22.23-.01.454-.007.908,0,1.361a.876.876,0,0,0,.995.978c.428,0,.856.011,1.284,0,.213-.007.311.032.3.276a10.546,10.546,0,0,0,0,1.161c.013.243-.082.291-.3.277-.266-.017-.535,0-.866,0" transform="translate(-1953.59 2515.397)" fill="#fff"/><path d="M510.383,136.5c0,.863,0,.863-.87.863-.838,0-.838,0-.838-.822,0-.9,0-.9.916-.9.791,0,.791,0,.791.862" transform="translate(-1953.612 2543.902)" fill="#fff"/><path d="M644.075,174.755a7.584,7.584,0,1,1,7.591-7.591,7.6,7.6,0,0,1-7.591,7.591" transform="translate(-2067.714 2522.517)" fill="#9ea257"/><path d="M645.414,103.868a.826.826,0,0,1,.858.813.847.847,0,0,1-.833.885.863.863,0,0,1-.867-.861.846.846,0,0,1,.842-.838" transform="translate(-2074.944 2572.264)" fill="#9ea257"/><path d="M713.538,181.629c-.266,0-.59.093-.784-.025-.212-.129-.1-.49-.15-.746a4.291,4.291,0,0,0-3.9-3.462c-.267-.02-.34-.093-.325-.347a7.221,7.221,0,0,0,0-1c-.023-.3.057-.4.372-.369a5.928,5.928,0,0,1,5.157,3.639,6.036,6.036,0,0,1,.478,1.973c.026.263-.019.406-.327.361a3.723,3.723,0,0,0-.521,0c0-.006,0-.012,0-.019" transform="translate(-2131.91 2508.154)" fill="#fff"/></g></g></svg>