<svg xmlns="http://www.w3.org/2000/svg" xmlns:xlink="http://www.w3.org/1999/xlink" width="151.658" height="151.658" viewBox="0 0 151.658 151.658"><defs><filter id="a" x="0" y="0" width="151.658" height="151.658" filterUnits="userSpaceOnUse"><feOffset dy="6" input="SourceAlpha"/><feGaussianBlur stdDeviation="5" result="b"/><feFlood flood-opacity="0.329"/><feComposite operator="in" in2="b"/><feComposite in="SourceGraphic"/></filter></defs><g transform="translate(2138 10050)"><g transform="matrix(1, 0, 0, 1, -2138, -10050)" filter="url(#a)"><circle cx="60.829" cy="60.829" r="60.829" transform="translate(15 9)" fill="#ffb500"/></g><g transform="translate(-2100.765 -10017.486)"><g transform="translate(0 0.72)"><path d="M0,27.56c.189-.992.371-1.986.569-2.976a29.569,29.569,0,0,1,58.182.86,28.467,28.467,0,0,1-.691,12.747.95.95,0,0,0,.336,1.146,40.8,40.8,0,0,1,6.1,6.328,9.359,9.359,0,0,0,4.866,3.253.659.659,0,0,0,.872-.265,3.728,3.728,0,0,1,4.327-1.4,3.831,3.831,0,0,1,2.62,3.739q.011,10.134,0,20.268a3.773,3.773,0,0,1-2.227,3.7,3.708,3.708,0,0,1-4.26-.666c-.057-.048-.12-.088-.226-.166-.618.392-1.252.786-1.877,1.193a14.518,14.518,0,0,1-7.168,2.458c-.077,0-.15.089-.224.137H36.181a2.6,2.6,0,0,0-.423-.247A5.056,5.056,0,0,1,32.19,73.17a5.483,5.483,0,0,1,.819-3.293,5.078,5.078,0,0,1-3.232-3.494,5.019,5.019,0,0,1,.88-4.463c-.5-.586-.907-1.128-1.382-1.606a1.582,1.582,0,0,0-.847-.446c-1.268-.163-2.558-.182-3.815-.4A29.521,29.521,0,0,1,.582,36.108c-.2-.989-.388-1.98-.582-2.97V27.56M38.439,4.818a25.862,25.862,0,0,0-14.885-.85A26.977,26.977,0,0,0,2.683,32.483,26.605,26.605,0,0,0,10.52,49.4a26.42,26.42,0,0,0,13.806,7.375c1.29.26,2.611.365,3.861.533l.7-2.551c-.671-.064-1.32-.121-1.967-.19a23.43,23.43,0,0,1-14.413-6.817,23.785,23.785,0,0,1-7.241-19.59,23.085,23.085,0,0,1,5.994-14A23.753,23.753,0,0,1,33.2,6.153a23.694,23.694,0,0,1,15.482,8.889,26.911,26.911,0,0,1,3.879,6.765c.064.241.116.487.195.723A21.893,21.893,0,0,1,53.8,32.979c-.3,1.9.575,3,1.869,4.151.093-.266.163-.421.2-.583a26.848,26.848,0,0,0,.3-11.046A26.568,26.568,0,0,0,47.018,9.673a24.682,24.682,0,0,0-8.579-4.855M63.31,74.857a5.891,5.891,0,0,0,1.218-.349c1.479-.789,2.924-1.642,4.4-2.432a.962.962,0,0,0,.561-1.005c-.019-6.055-.012-12.11-.012-18.164,0-1.236,0-1.233-1.134-1.624-.472-.163-.939-.34-1.408-.511l-1.2-.627a28.128,28.128,0,0,1-3.416-3.125,40.8,40.8,0,0,0-7.486-7.262,11.339,11.339,0,0,1-4.36-6.558c-.177-.727-.227-1.485-.4-2.216a2.479,2.479,0,0,0-3.354-1.8,2.179,2.179,0,0,0-1.642,2.026,24.322,24.322,0,0,0,.1,4.052,17.981,17.981,0,0,0,3.121,7.5,2.638,2.638,0,0,1-2.4,4.262q-4.9-.034-9.8,0a2.558,2.558,0,0,0-2.645,2.52,2.657,2.657,0,0,0,2.591,2.606c.752.031,1.507,0,2.261.013.963.014,1.54.487,1.561,1.263.022.807-.563,1.3-1.572,1.309-1.507.008-3.015-.011-4.522.011a3.948,3.948,0,0,0-1.252.194,2.528,2.528,0,0,0-1.608,2.834,2.562,2.562,0,0,0,2.567,2.111c1.607.035,3.216,0,4.823.013.978.007,1.544.472,1.563,1.247.02.808-.57,1.319-1.568,1.33-1.13.012-2.262-.021-3.391.015a3.544,3.544,0,0,0-1.309.261,2.491,2.491,0,0,0-1.369,2.815,2.538,2.538,0,0,0,2.536,2.051c1.255.031,2.512,0,3.768.016a1.246,1.246,0,0,1,1.333,1.235,1.279,1.279,0,0,1-1.266,1.32c-.4.032-.8,0-1.205.011a2.569,2.569,0,1,0,.03,5.133c7.336,0,14.672.013,22.008-.036a34.9,34.9,0,0,0,3.877-.445M51.258,27.963A21.829,21.829,0,1,0,31.478,52.043c-.042-.122-.076-.236-.121-.346A5.077,5.077,0,0,1,35.5,44.5a30.306,30.306,0,0,1,3.464-.048c2.4,0,4.806,0,7.336,0-.317-.527-.568-.951-.826-1.372a18.9,18.9,0,0,1-2.986-12.048,5.144,5.144,0,0,1,4.666-4.554,5.435,5.435,0,0,1,4.1,1.482M72.049,61.194q0,5.049,0,10.1a1.316,1.316,0,0,0,1.414,1.468,1.358,1.358,0,0,0,1.149-1.52c.006-2.688,0-5.375,0-8.063,0-3.969.021-7.937-.027-11.906a2.187,2.187,0,0,0-.615-1.412,1.249,1.249,0,0,0-1.219-.049,1.878,1.878,0,0,0-.678,1.287c-.055,3.365-.03,6.731-.03,10.1" transform="translate(0 -0.72)" fill="#020201"/><path d="M81.869,58.666a5.434,5.434,0,0,0-4.1-1.482A5.144,5.144,0,0,0,73.1,61.738a18.9,18.9,0,0,0,2.986,12.049c.258.421.509.845.826,1.372-2.53,0-4.933,0-7.336,0a30.307,30.307,0,0,0-3.464.048A5.077,5.077,0,0,0,61.968,82.4c.045.11.079.224.121.346A21.829,21.829,0,1,1,81.869,58.666M53.863,69.619c-1.08-1.1-1.976-2.013-2.878-2.921-.885-.891-1.734-1.827-2.69-2.634a1.767,1.767,0,0,0-1.417-.3,1.4,1.4,0,0,0-.752,1.056,1.864,1.864,0,0,0,.575,1.219c1.908,1.964,3.858,3.888,5.8,5.823,1,1,1.538,1.007,2.531.014q9.3-9.3,18.6-18.6a3.287,3.287,0,0,0,.5-.56,1.269,1.269,0,0,0-1.79-1.739,5.119,5.119,0,0,0-.607.562q-8.634,8.633-17.261,17.273a7.485,7.485,0,0,0-.6.81" transform="translate(-30.611 -31.424)" fill="#4ac115"/><path d="M188.18,163.014l1.2.627v21.685c-.4.233-.846.464-1.26.744-.8.538-1.578,1.1-2.366,1.657a34.865,34.865,0,0,1-3.877.445c-7.336.05-14.672.039-22.008.036a2.569,2.569,0,1,1-.03-5.133c.4-.007.806.021,1.206-.011a1.28,1.28,0,0,0,1.266-1.32,1.247,1.247,0,0,0-1.333-1.235c-1.256-.02-2.513.016-3.768-.016a2.538,2.538,0,0,1-2.536-2.051,2.492,2.492,0,0,1,1.369-2.815,3.547,3.547,0,0,1,1.309-.261c1.129-.035,2.261,0,3.391-.015,1-.01,1.589-.522,1.568-1.33-.02-.775-.586-1.24-1.563-1.247-1.608-.011-3.216.022-4.823-.013a2.562,2.562,0,0,1-2.567-2.111,2.529,2.529,0,0,1,1.608-2.834,3.948,3.948,0,0,1,1.252-.194c1.507-.022,3.015,0,4.522-.011,1.009-.006,1.594-.5,1.572-1.31-.021-.777-.6-1.249-1.561-1.263-.753-.011-1.508.018-2.261-.013a2.657,2.657,0,0,1-2.591-2.605,2.558,2.558,0,0,1,2.645-2.52q4.9-.032,9.8,0a2.638,2.638,0,0,0,2.4-4.262,17.982,17.982,0,0,1-3.121-7.5,24.32,24.32,0,0,1-.1-4.052,2.179,2.179,0,0,1,1.642-2.026,6.192,6.192,0,0,1,.948,2.639,9.423,9.423,0,0,0,2.784,5.841c1.22,1.1,2.585,2.048,3.788,3.167a43.621,43.621,0,0,1,4.409,4.471,13.736,13.736,0,0,0,5.854,4.62,6.8,6.8,0,0,0,1.23.222" transform="translate(-122.444 -113.59)" fill="#fddeb1"/><path d="M62.806,31.873a26.91,26.91,0,0,0-3.879-6.765,23.692,23.692,0,0,0-15.482-8.889A23.752,23.752,0,0,0,21.5,24.225a23.084,23.084,0,0,0-5.995,14,23.784,23.784,0,0,0,7.241,19.59,23.429,23.429,0,0,0,14.413,6.817c.647.069,1.3.125,1.967.19l-.7,2.551c-1.25-.169-2.571-.273-3.861-.533A27.01,27.01,0,0,1,12.924,42.549,26.977,26.977,0,0,1,33.8,14.033a25.86,25.86,0,0,1,14.885.85,2.614,2.614,0,0,0,.469.429,29,29,0,0,1,7.509,5.757,28.264,28.264,0,0,1,5.07,7.565,30.558,30.558,0,0,1,1.078,3.239" transform="translate(-10.241 -10.786)" fill="#4ac115"/><path d="M204.989,38.057a30.559,30.559,0,0,0-1.078-3.239,28.263,28.263,0,0,0-5.07-7.565,29,29,0,0,0-7.509-5.757,2.615,2.615,0,0,1-.469-.429,24.68,24.68,0,0,1,8.579,4.855,26.569,26.569,0,0,1,9.144,15.828,26.847,26.847,0,0,1-.3,11.046c-.037.162-.108.317-.2.583-1.294-1.152-2.174-2.254-1.869-4.151a21.893,21.893,0,0,0-1.038-10.448c-.078-.237-.13-.482-.195-.723" transform="translate(-152.424 -16.969)" fill="#379010"/><path d="M357.723,255.315c0-3.366-.025-6.732.03-10.1a1.878,1.878,0,0,1,.678-1.287,1.249,1.249,0,0,1,1.219.049,2.188,2.188,0,0,1,.615,1.412c.047,3.968.027,7.937.027,11.906,0,2.688,0,5.375,0,8.063a1.358,1.358,0,0,1-1.149,1.52,1.316,1.316,0,0,1-1.414-1.468q-.011-5.049,0-10.1" transform="translate(-285.675 -194.841)" fill="#d2e1f1"/><path d="M314.355,273.327c.788-.554,1.568-1.12,2.366-1.658.415-.279.862-.51,1.26-.743V249.241c.469.171.936.348,1.408.511,1.133.391,1.134.388,1.134,1.624,0,6.055-.006,12.11.012,18.164a.962.962,0,0,1-.562,1.005c-1.478.79-2.923,1.643-4.4,2.432a5.89,5.89,0,0,1-1.218.349" transform="translate(-251.045 -199.19)" fill="#dbc199"/><path d="M251.013,162.375a6.8,6.8,0,0,1-1.23-.222,13.736,13.736,0,0,1-5.854-4.62,43.628,43.628,0,0,0-4.409-4.471c-1.2-1.12-2.568-2.064-3.788-3.167a9.423,9.423,0,0,1-2.784-5.841,6.192,6.192,0,0,0-.948-2.639,2.479,2.479,0,0,1,3.354,1.8c.168.73.218,1.488.4,2.216a11.341,11.341,0,0,0,4.36,6.558,40.8,40.8,0,0,1,7.487,7.262,28.107,28.107,0,0,0,3.416,3.125" transform="translate(-185.276 -112.951)" fill="#dcc19a"/><path d="M84.768,115.44a7.488,7.488,0,0,1,.6-.81Q94,105.988,102.633,97.357a5.117,5.117,0,0,1,.607-.562,1.269,1.269,0,0,1,1.79,1.739,3.287,3.287,0,0,1-.5.56q-9.3,9.3-18.6,18.6c-.993.993-1.527.989-2.531-.014-1.937-1.935-3.887-3.859-5.8-5.823a1.864,1.864,0,0,1-.575-1.219,1.4,1.4,0,0,1,.752-1.056,1.767,1.767,0,0,1,1.417.3c.957.807,1.805,1.743,2.69,2.634.9.908,1.8,1.824,2.878,2.921" transform="translate(-61.516 -77.245)" fill="#020300"/></g></g></g></svg>