<svg xmlns="http://www.w3.org/2000/svg" xmlns:xlink="http://www.w3.org/1999/xlink" width="151.658" height="151.658" viewBox="0 0 151.658 151.658"><defs><filter id="a" x="0" y="0" width="151.658" height="151.658" filterUnits="userSpaceOnUse"><feOffset dy="6" input="SourceAlpha"/><feGaussianBlur stdDeviation="5" result="b"/><feFlood flood-opacity="0.329"/><feComposite operator="in" in2="b"/><feComposite in="SourceGraphic"/></filter></defs><g transform="translate(2840 10050)"><g transform="matrix(1, 0, 0, 1, -2840, -10050)" filter="url(#a)"><circle cx="60.829" cy="60.829" r="60.829" transform="translate(15 9)" fill="#ffb500"/></g><g transform="translate(-2799.605 -10012.434)"><path d="M35.424,0c.972.175,1.953.316,2.916.53A21.846,21.846,0,0,1,51.487,8.995c.763,1.02,1.4,2.135,2.159,3.308.379-.4.779-.79,1.153-1.209a1.087,1.087,0,0,1,1.23-.373,17.99,17.99,0,0,1,2.442.874c.3.151.5.657.607,1.039a16.7,16.7,0,0,1,.328,1.829,5.448,5.448,0,0,0,.858-.184,1.877,1.877,0,0,1,2.607.894c.284.469.609.913.9,1.379a1.27,1.27,0,0,1-.126,1.412c-.856,1.475-.854,1.494.687,2.142a1.214,1.214,0,0,1,.848,1.259c-.015.641-.03,1.285,0,1.925a1.336,1.336,0,0,1-.969,1.47c-1.712.632-1.407.716-.673,1.984a1.651,1.651,0,0,1-.116,2.183,5.218,5.218,0,0,0-.316.449c-1.35,1.853-1.235,1.679-3.141,1.218-.54-.131-.784,0-.787.569a1.989,1.989,0,0,1-.1.88,9.889,9.889,0,0,1-.873,1.226c-.022.029-.088.021-.129.041-1.721.8-3.364,1.231-4.4-1.188l-.106.206c-.112.188-.228.373-.335.563A21.794,21.794,0,0,1,36.958,44.341a18.444,18.444,0,0,1-6.159-.023,1.137,1.137,0,0,0-1.277.479c-.928,1.25-1.918,2.454-2.893,3.669-.741.925-1.321.992-2.276.284-.643-.477-1.284-.959-1.973-1.474q-1.8,2.218-3.594,4.423Q13.892,57.729,9,63.76a1.411,1.411,0,0,1-2.339.231q-2.471-1.972-4.937-3.95C.547,59.1.5,58.6,1.44,57.441q6.316-7.752,12.63-15.505c.1-.121.189-.247.318-.418-.776-.564-1.534-1.107-2.282-1.663a1.351,1.351,0,0,1-.273-2.265c.963-1.19,1.938-2.371,2.781-3.4-.817-2-1.716-3.834-2.323-5.76a20.975,20.975,0,0,1,.341-13.614A21.734,21.734,0,0,1,21.449,3.656,22.081,22.081,0,0,1,31.232.146,2.625,2.625,0,0,0,31.71,0h.413l1.089.119L34.736,0ZM33.643,42.222A19.921,19.921,0,1,0,13.708,22.3a19.923,19.923,0,0,0,19.935,19.92m-17.364.714L3.617,58.411,7.6,61.69,20.5,45.983l-4.222-3.048m45.11-25.985c-.231-.581-.582-.61-1.109-.474a2.238,2.238,0,0,1-1.495.016c-1.059-.624-2.11-1.352-1.92-2.872.017-.137-.206-.386-.366-.44a.673.673,0,0,0-.568.126c-.334.31-.582.712-.922,1.014a1.086,1.086,0,0,0-.282,1.328,20.978,20.978,0,0,1,.234,12.757c-.386,1.285-.288,2.161.763,2.919a.963.963,0,0,0,.681.192c.152-.035.29-.323.351-.524.164-.536.122-1.23.453-1.6.82-.921,1.755-1.805,3.207-1.13a.77.77,0,0,0,.68-.2c.109-.114.068-.447-.006-.646-.186-.508-.638-1.009-.606-1.488.08-1.2.262-2.438,1.7-2.924a.879.879,0,0,0,.489-.658c0-.226-.289-.477-.5-.666-.41-.37-1.038-.619-1.246-1.07-.515-1.118-.769-2.314.27-3.354a1.665,1.665,0,0,0,.191-.308M16.165,36.014,14.18,38.351l11.034,8.069,2.2-2.783a22.934,22.934,0,0,1-11.25-7.625" transform="translate(-0.782)" fill="#030202"/><path d="M269.959,257.364c-.627.384-1.235.806-1.886,1.142-.7.363-.925.784-.418,1.376a2.347,2.347,0,0,1-.059,3.417,4.966,4.966,0,0,0-.364.5,1.823,1.823,0,0,1-2.386.9,3.352,3.352,0,0,0-.806-.162c-.485-.056-.814.128-.813.661.005,2.09-.316,2.255-2.528,3.03a2.107,2.107,0,0,1-2.817-.921c-.511-.814-1.019-.85-1.6.016a7.033,7.033,0,0,1-.572.685,1.186,1.186,0,0,1-1.408.4c-.772-.281-1.548-.55-2.331-.8a1.245,1.245,0,0,1-.941-1.272c-.01-.366-.036-.732-.061-1.1-.039-.583-.318-.8-.9-.695l-.067.014c-2.32.477-1.962.627-3.487-1.466-.188-.258-.335-.546-.518-.809a1.2,1.2,0,0,1-.015-1.467c.2-.3.388-.62.578-.933.4-.659.265-1.059-.463-1.376-.335-.146-.663-.311-1.008-.428a1.177,1.177,0,0,1-.842-1.262c0-.779.016-1.558,0-2.337a1.312,1.312,0,0,1,.8-1.314,13.622,13.622,0,0,0,1.285-.647.745.745,0,0,0,.309-1.144,1.064,1.064,0,0,1-.069-.118c-.31-.64-1.136-1.226-.764-1.953a18.375,18.375,0,0,1,2.05-2.876c.123-.156.509-.138.773-.137a3.061,3.061,0,0,1,.741.136c1.378.358,1.666.211,1.629-1.208a1.754,1.754,0,0,1,1.29-1.879c.715-.236,1.43-.476,2.157-.669a1.122,1.122,0,0,1,1.274.443c.26.349.554.671.83,1.008.347.424.7.476,1.064.023.029-.036.06-.069.089-.1,1.408-1.675,1.408-1.676,3.464-.946a1.921,1.921,0,0,0,.253.1,2.088,2.088,0,0,1,1.812,2.513c-.049.818.226.978,1.05.814,2.118-.423,2.118-.423,3.334,1.408a.9.9,0,0,0,.075.115,2.1,2.1,0,0,1,.061,3.051c-.626.807-.478,1.1.457,1.625.676.377,1.489.6,1.751,1.476Zm-10.181,8.467c.815-.05,1.1-.441,1.107-1.193a2.1,2.1,0,0,1,.378-1.4c.909-.829,1.851-1.787,3.31-1.164a.71.71,0,0,0,.969-.177c.352-.435.122-.722-.058-1.094-.243-.5-.656-1.073-.579-1.546.2-1.243.448-2.581,2.046-2.892.481-.093.532-.425.545-.862.014-.466-.2-.622-.578-.773-.58-.231-1.262-.349-1.5-1.07a11.91,11.91,0,0,1-.508-1.56,2.14,2.14,0,0,1,.147-1.049,3.551,3.551,0,0,1,.549-.946c.248-.321.139-.553-.04-.853-.258-.432-.6-.286-.958-.244-.575.066-1.266.3-1.712.073-1.158-.586-2.321-1.3-2.06-2.946.079-.5-.259-.731-.673-.749a.892.892,0,0,0-.672.327,2.615,2.615,0,0,1-2.437,1.212,2.535,2.535,0,0,1-2.436-1.194,3.254,3.254,0,0,0-.36-.431c-.841.032-1.034.514-1.069,1.214a2.108,2.108,0,0,1-.353,1.339c-.931.829-1.866,1.841-3.363,1.177a.648.648,0,0,0-.9.176.827.827,0,0,0-.054,1.035c.28.513.736,1.111.66,1.6-.188,1.225-.322,2.618-1.928,2.976-.53.118-.686.423-.679.978.01.768.645.674,1.039.866a3.794,3.794,0,0,1,1.585,3.148,1.908,1.908,0,0,1-.2.435,6.387,6.387,0,0,1-.523.885.57.57,0,0,0,.1.887,1.14,1.14,0,0,0,.749.167,6.751,6.751,0,0,1,1.664-.249,3.042,3.042,0,0,1,2.21,2.677c.028.713.247,1.168,1.109,1.211a2.972,2.972,0,0,1,2.69-1.646,3.034,3.034,0,0,1,2.786,1.648" transform="translate(-199.553 -198.09)" fill="#030303"/><path d="M178.987,0l-1.525.119A.815.815,0,0,0,177.474,0Z" transform="translate(-145.032)" fill="#2b2b2b"/><path d="M172.629,0a.836.836,0,0,1-.011.119L171.529,0Z" transform="translate(-140.188)" fill="#4a4a4a"/><path d="M91.138,52.813A19.921,19.921,0,1,1,111.06,32.88,19.923,19.923,0,0,1,91.138,52.813m0-2.34A17.583,17.583,0,1,0,73.549,32.906,17.619,17.619,0,0,0,91.136,50.473" transform="translate(-58.277 -10.591)" fill="#a3314f"/><path d="M28.891,233.917l4.222,3.048-12.9,15.706-3.984-3.279,12.661-15.475" transform="translate(-13.394 -190.981)" fill="#a3314f"/><path d="M300.88,75.49a1.659,1.659,0,0,1-.191.308c-1.039,1.04-.785,2.236-.27,3.354.208.451.836.7,1.246,1.07.209.189.5.44.5.666a.878.878,0,0,1-.489.658c-1.436.485-1.618,1.722-1.7,2.924-.032.479.42.981.606,1.488.073.2.115.532.005.646a.77.77,0,0,1-.68.2c-1.451-.675-2.386.209-3.207,1.13-.331.372-.289,1.066-.453,1.6-.061.2-.2.489-.351.524a.964.964,0,0,1-.681-.192c-1.051-.758-1.149-1.634-.763-2.919a20.976,20.976,0,0,0-.234-12.757,1.087,1.087,0,0,1,.282-1.329c.339-.3.588-.7.922-1.014a.673.673,0,0,1,.568-.126c.16.054.383.3.366.44-.191,1.52.86,2.248,1.92,2.872a2.238,2.238,0,0,0,1.495-.016c.527-.136.878-.107,1.109.474" transform="translate(-240.273 -58.54)" fill="#90aff6"/><path d="M75.761,196.205a22.934,22.934,0,0,0,11.25,7.625l-2.2,2.783-11.034-8.069,1.986-2.338" transform="translate(-60.377 -160.191)" fill="#a3314f"/><path d="M270.123,277.753a3.034,3.034,0,0,0-2.786-1.648,2.972,2.972,0,0,0-2.69,1.647c-.861-.043-1.081-.5-1.109-1.211a3.042,3.042,0,0,0-2.21-2.677,6.772,6.772,0,0,0-1.663.249,1.14,1.14,0,0,1-.749-.167.57.57,0,0,1-.1-.887,6.394,6.394,0,0,0,.523-.885,1.908,1.908,0,0,0,.2-.435,3.8,3.8,0,0,0-1.585-3.148c-.394-.192-1.029-.1-1.039-.866-.007-.555.149-.86.679-.978,1.607-.358,1.741-1.751,1.928-2.976.075-.492-.38-1.09-.66-1.6a.826.826,0,0,1,.054-1.035.648.648,0,0,1,.9-.176c1.5.664,2.432-.348,3.363-1.177a2.106,2.106,0,0,0,.353-1.339c.034-.7.228-1.183,1.069-1.214a3.268,3.268,0,0,1,.36.431,2.535,2.535,0,0,0,2.436,1.194,2.615,2.615,0,0,0,2.437-1.212.892.892,0,0,1,.672-.328c.415.018.752.252.673.749-.261,1.644.9,2.36,2.06,2.946.446.226,1.137-.007,1.712-.073.363-.041.7-.188.958.244.18.3.288.532.04.853a3.552,3.552,0,0,0-.549.946,2.138,2.138,0,0,0-.147,1.049,11.9,11.9,0,0,0,.508,1.56c.241.721.923.84,1.5,1.071.38.151.592.307.578.773-.013.436-.065.768-.545.862-1.6.311-1.843,1.649-2.046,2.892-.077.473.336,1.045.579,1.546.18.372.411.659.058,1.094a.71.71,0,0,1-.969.177c-1.46-.623-2.4.334-3.31,1.164a2.1,2.1,0,0,0-.378,1.4c-.007.752-.293,1.143-1.107,1.193m-3.116-4.453a5.835,5.835,0,1,0-5.465-6.036,5.741,5.741,0,0,0,5.465,6.036" transform="translate(-209.898 -210.011)" fill="#90aef5"/><path d="M101.569,60.855a17.583,17.583,0,1,1,17.593-17.572,17.576,17.576,0,0,1-17.593,17.572M106,28.665c-7.868-1.98-14.54,1.18-17.872,7.167a15.146,15.146,0,0,0,17.554,21.912l-.288-.211a1.421,1.421,0,0,1-.627-2.048c.069-.194.145-.385.217-.577.128-.342.256-.631-.11-.978a.749.749,0,0,0-.964-.13c-.313.136-.654.21-.97.341a1.114,1.114,0,0,1-1.479-.495,22.57,22.57,0,0,1-1.266-2.117c-1-1.965-.976-2.1.624-3.554a.8.8,0,0,0,.28-.89c-.094-.4-.337-.487-.673-.536-.294-.043-.585-.109-.874-.18A1.246,1.246,0,0,1,98.4,44.924c-.008-.848,0-1.7,0-2.543-.016-1.99-.123-2.246,2.056-2.63a.672.672,0,0,0,.645-.558.743.743,0,0,0-.3-.882c-.287-.227-.532-.508-.826-.725a1.077,1.077,0,0,1-.332-1.511c.407-.791.8-1.593,1.285-2.338,1.158-1.788,1.179-1.782,3.188-1.073.331.117.572.158.841-.151.23-.265.369-.454.207-.828-.487-1.121-1.012-2.278.835-3.019m8.435,22.683a2.679,2.679,0,0,0,.177-.239,14.833,14.833,0,0,0,.173-15.41.707.707,0,0,0-.924-.406,8.166,8.166,0,0,0,.573,16.055m-1.552,2.029c-4.7-1.58-7.444-4.8-7.64-9.694-.215-5.355,2.624-8.838,7.727-10.694-1.1-.9-2.1-1.771-3.15-2.572-1.142-.869-1.315-.841-2.493,0a1.361,1.361,0,0,0-.151.184c.708,1.282.559,2.3-.615,3.5a2.7,2.7,0,0,1-3.568.581l-1.07,1.78c.346.316.64.6.954.867a1.488,1.488,0,0,1,.452,1.846c-.186.489-.3,1-.441,1.511a1.376,1.376,0,0,1-1.04,1.072c-.479.122-1.156.144-1.367.461-.247.37-.084,1.013-.094,1.538,0,.135.016.27.03.487a2.76,2.76,0,0,1,2.779,2.25A2.586,2.586,0,0,1,101.91,49.8c.156.273.264.47.38.664.67,1.119.678,1.142,1.911.749a1.531,1.531,0,0,1,1.783.482,15.9,15.9,0,0,0,1.168,1.162,1.406,1.406,0,0,1,.472,1.542c-.136.458-.272.916-.419,1.412.391.215.76.441,1.149.621a.743.743,0,0,0,.554.073,12.949,12.949,0,0,0,3.974-3.126" transform="translate(-68.71 -20.973)" fill="#030202"/><path d="M287.585,292.934A5.835,5.835,0,1,1,293.8,287.3a5.759,5.759,0,0,1-6.214,5.632m.4-2.317a3.46,3.46,0,0,0,3.494-3.539,3.511,3.511,0,0,0-7.021.044,3.435,3.435,0,0,0,3.527,3.5" transform="translate(-230.475 -229.645)" fill="#030304"/><path d="M115.745,39.286c-1.848.741-1.322,1.9-.835,3.019.162.374.024.564-.207.828-.269.309-.51.268-.841.151-2.008-.709-2.03-.715-3.188,1.073-.482.745-.878,1.547-1.285,2.338a1.077,1.077,0,0,0,.332,1.511c.293.217.539.5.825.725a.743.743,0,0,1,.3.882.672.672,0,0,1-.645.558c-2.179.384-2.072.64-2.056,2.63.007.848-.005,1.7,0,2.543a1.246,1.246,0,0,0,1.151,1.444c.289.07.58.137.874.18.336.049.579.135.673.536a.8.8,0,0,1-.28.89c-1.6,1.456-1.627,1.589-.624,3.554a22.647,22.647,0,0,0,1.266,2.117,1.114,1.114,0,0,0,1.479.495c.316-.131.656-.2.97-.341a.749.749,0,0,1,.964.13c.365.347.238.636.11.978-.072.193-.148.383-.217.577a1.42,1.42,0,0,0,.627,2.048l.288.211A15.146,15.146,0,0,1,97.873,46.453c3.332-5.987,10-9.146,17.872-7.167" transform="translate(-78.456 -31.594)" fill="#dddceb"/><path d="M185.658,71.556a12.949,12.949,0,0,1-3.974,3.126.743.743,0,0,1-.554-.073c-.389-.181-.758-.406-1.149-.621.147-.5.283-.954.419-1.412a1.406,1.406,0,0,0-.472-1.542,15.888,15.888,0,0,1-1.168-1.162,1.531,1.531,0,0,0-1.783-.482c-1.233.393-1.241.37-1.911-.749-.116-.194-.224-.392-.38-.664a2.586,2.586,0,0,0,1.284-3.306,2.76,2.76,0,0,0-2.779-2.25c-.014-.216-.032-.352-.03-.487.01-.525-.153-1.168.094-1.538.212-.318.889-.339,1.367-.461a1.376,1.376,0,0,0,1.04-1.072c.138-.506.256-1.022.441-1.511a1.488,1.488,0,0,0-.452-1.846c-.314-.264-.608-.551-.954-.867l1.07-1.78a2.7,2.7,0,0,0,3.568-.581c1.175-1.2,1.324-2.22.615-3.5a1.357,1.357,0,0,1,.151-.184c1.178-.84,1.351-.868,2.493,0,1.053.8,2.053,1.672,3.15,2.572-5.1,1.856-7.942,5.339-7.727,10.694.2,4.895,2.939,8.115,7.64,9.694" transform="translate(-141.486 -39.152)" fill="#8faef5"/></g></g></svg>