<svg xmlns="http://www.w3.org/2000/svg" width="64.545" height="66.244" viewBox="0 0 64.545 66.244"><g transform="translate(1724 -2330)"><g transform="translate(-1724 2330)"><ellipse cx="32.273" cy="33.122" rx="32.273" ry="33.122" transform="translate(0 0)" fill="#9ea257"/></g><g transform="translate(213 -417.652)"><path d="M138.891,204.841a7.125,7.125,0,0,1,7.538,3.019,7.006,7.006,0,0,1-4.893,10.854,7.121,7.121,0,0,1-7.907-4.941c-.107-.333-.274-.316-.543-.3a19.063,19.063,0,0,1-6.547-.534,5.572,5.572,0,0,1-.656-.222c-1.238-.513-1.479-.874-1.479-2.2,0-8.53.012-17.061-.017-25.591a1.891,1.891,0,0,1,1.271-1.951,11.6,11.6,0,0,1,3.562-.809,21.505,21.505,0,0,1,7.4.443,5.914,5.914,0,0,1,.613.194c1.4.521,1.66.9,1.66,2.368v19.666" transform="translate(-2032.86 2585.754)" fill="#fff"/><path d="M.009,230.758c0-3.579.011-7.157-.01-10.736a1.565,1.565,0,0,1,.866-1.492,8.634,8.634,0,0,1,3.316-.941,22.127,22.127,0,0,1,7.993.355,5,5,0,0,1,1.634.694,1.464,1.464,0,0,1,.694,1.292q-.008,10.86,0,21.72a1.537,1.537,0,0,1-.849,1.408,7.514,7.514,0,0,1-2.774.866,22.276,22.276,0,0,1-8.436-.243,5.626,5.626,0,0,1-1.608-.628A1.558,1.558,0,0,1,0,241.593c.02-3.612.009-7.223.009-10.835" transform="translate(-1925 2555.104)" fill="#fff"/><path d="M44.766,93.212q-1.719,1.294-3.439,2.589c-1.493,1.126-2.993,2.244-4.473,3.388a1.4,1.4,0,0,1-1.246.281c-2.2-.477-4.4-.933-6.594-1.417a.521.521,0,0,0-.623.214c-1.38,1.758-2.781,3.5-4.165,5.255a1.448,1.448,0,0,1-.893.56c-2.977.623-5.95,1.266-8.925,1.9-.468.1-.782-.055-.864-.418s.144-.63.617-.733q4.337-.938,8.677-1.861a.971.971,0,0,0,.6-.379c1.394-1.769,2.809-3.52,4.191-5.3a1.172,1.172,0,0,1,1.331-.481c2.227.5,4.461.955,6.691,1.437a.652.652,0,0,0,.6-.1q3.817-2.9,7.644-5.781c.039-.029.082-.054.212-.138-.752-.142-1.4-.261-2.04-.385-.49-.094-.713-.339-.65-.7.066-.387.389-.553.887-.462,1.025.188,2.051.37,3.075.561.575.107.815.385.76.961-.1,1.055-.235,2.106-.354,3.158-.046.4-.252.655-.677.624-.365-.026-.543-.352-.492-.826q.1-.937.2-1.875c0-.009-.015-.021-.051-.067" transform="translate(-1936.73 2665)" fill="#fff"/><path d="M200.553,367.37a5.969,5.969,0,1,1,5.972,5.84,5.932,5.932,0,0,1-5.972-5.84" transform="translate(-2098.904 2430.152)" fill="#9ea257"/><path d="M145.593,239.119c0,1,0,2,0,3.007,0,.319-.252.408-.463.516a8.912,8.912,0,0,1-3.042.838,21.7,21.7,0,0,1-7.5-.326c-.016,0-.033,0-.049-.009-1.049-.278-1.049-.278-1.049-1.362v-2.329a21.364,21.364,0,0,0,12.1-.334" transform="translate(-2040.755 2536.26)" fill="#9ea257"/><path d="M145.552,274.142c0,1.039-.007,2.031,0,3.022,0,.345-.258.441-.483.557a8.607,8.607,0,0,1-2.944.822,22.047,22.047,0,0,1-7.355-.264c-1.326-.287-1.321-.309-1.321-1.639,0-.613.014-1.226-.006-1.837-.01-.32.088-.335.372-.263a21.051,21.051,0,0,0,10.5.058,6.056,6.056,0,0,0,.61-.2c.2-.073.391-.157.626-.252" transform="translate(-2040.713 2505.891)" fill="#9ea257"/><path d="M145.568,309.509c0,1.051-.016,2.028.008,3,.009.37-.227.486-.476.608a8.647,8.647,0,0,1-2.859.766,21.924,21.924,0,0,1-7.5-.371c-1.282-.3-1.277-.323-1.277-1.644,0-.58.005-1.159,0-1.739,0-.224.018-.344.3-.25a19.087,19.087,0,0,0,6.234.68,14.077,14.077,0,0,0,5.57-1.055" transform="translate(-2040.729 2475.223)" fill="#9ea257"/><path d="M145.539,345.161c.018.075.024.091.026.107a1.554,1.554,0,0,1-1.026,1.991,4.1,4.1,0,0,0-1.745,1.511,1.321,1.321,0,0,1-1.1.585,23.526,23.526,0,0,1-6.906-.438c-1.325-.31-1.32-.332-1.32-1.66,0-.53.006-1.059,0-1.589,0-.258-.008-.377.345-.281a21.139,21.139,0,0,0,10.349.253,9.115,9.115,0,0,0,1.378-.479" transform="translate(-2040.732 2444.309)" fill="#9ea257"/><path d="M145.593,210.505c0,.646-.03,1.26.011,1.87a.719.719,0,0,1-.476.769,8.927,8.927,0,0,1-2.656.773,21.736,21.736,0,0,1-7.8-.253c-.065-.014-.131-.023-.194-.041-.985-.282-.985-.282-.985-1.317v-1.782a20.38,20.38,0,0,0,12.1-.018" transform="translate(-2040.754 2561.072)" fill="#9ea257"/><path d="M141.7,380.907a6.809,6.809,0,0,0-.49,2.831c.015.238-.061.321-.292.336a16.867,16.867,0,0,1-6.622-.647c-.82-.28-.813-.3-.813-1.166,0-.613,0-1.225,0-1.838,0-.176-.021-.345.257-.254a22.053,22.053,0,0,0,7.712.739c.064,0,.128,0,.249,0" transform="translate(-2040.747 2413.976)" fill="#9ea257"/><path d="M140.184,190.913a17.877,17.877,0,0,1,4.991.624c.375.118.985.179.987.57,0,.322-.612.411-.984.524a17.661,17.661,0,0,1-5.7.6,13.838,13.838,0,0,1-4.532-.732c-.252-.1-.651-.145-.644-.433,0-.219.4-.293.641-.386a16.194,16.194,0,0,1,5.242-.764" transform="translate(-2041.456 2578.061)" fill="#9ea257"/><path d="M9.074,310.21a23.158,23.158,0,0,0,9.68.375,8.4,8.4,0,0,0,2.038-.6c.256-.115.378-.141.37.214-.019.861-.023,1.722,0,2.583.011.386-.238.522-.5.654a8.726,8.726,0,0,1-2.8.8,22.144,22.144,0,0,1-7.6-.265c-.016,0-.033,0-.049-.008-1.159-.287-1.159-.287-1.159-1.474q0-1.093,0-2.186a.392.392,0,0,1,.019-.089" transform="translate(-1932.849 2474.877)" fill="#9ea257"/><path d="M9.052,274.418a19.334,19.334,0,0,0,6.11.761,15.089,15.089,0,0,0,5.993-1.063c0,1.047,0,2.037,0,3.026,0,.315-.235.416-.449.529a8.641,8.641,0,0,1-3.036.85,22.1,22.1,0,0,1-7.3-.268c-1.322-.285-1.317-.306-1.317-1.635Z" transform="translate(-1932.849 2505.914)" fill="#9ea257"/><path d="M21.153,345.113c0,.966-.022,1.893.01,2.819a.721.721,0,0,1-.484.759,8.529,8.529,0,0,1-2.711.742,21.837,21.837,0,0,1-7.69-.363c-1.233-.295-1.229-.314-1.229-1.57v-2.088c5.141,1.072,7.583,1.013,12.1-.3" transform="translate(-1932.847 2444.35)" fill="#9ea257"/><path d="M9.052,381.017a21.645,21.645,0,0,0,7.642.8,11.852,11.852,0,0,0,4.114-.823c.328-.136.356-.03.351.253-.012.663-.032,1.327.007,1.987a.69.69,0,0,1-.49.752,9.41,9.41,0,0,1-2.685.669,21,21,0,0,1-7.548-.345c-.016,0-.033-.005-.049-.01-1.333-.376-1.343-.388-1.343-1.774v-1.507" transform="translate(-1932.849 2413.29)" fill="#9ea257"/><path d="M9.052,245.79a16.974,16.974,0,0,0,6.27.923,15.805,15.805,0,0,0,5.557-.844c.236-.09.283,0,.28.216-.009.579-.019,1.159,0,1.737.013.341-.216.466-.447.586a8.015,8.015,0,0,1-2.547.773,21.648,21.648,0,0,1-8.033-.249c-.016,0-.033,0-.049-.009-1.033-.274-1.033-.274-1.033-1.316V245.79" transform="translate(-1932.849 2530.476)" fill="#9ea257"/><path d="M15.692,228.746a16.33,16.33,0,0,1-5.328-.783c-.23-.087-.592-.165-.594-.373,0-.273.37-.332.609-.419a16.233,16.233,0,0,1,5.972-.742,13.925,13.925,0,0,1,4.636.716c.259.1.675.161.676.411,0,.3-.424.355-.689.45a16.78,16.78,0,0,1-5.282.739" transform="translate(-1933.472 2547.27)" fill="#9ea257"/><path d="M231.279,371.127c.33.042.572.218.568.531,0,.329.165.395.411.5a2.2,2.2,0,0,1,1.221,1.3c.148.391.082.7-.312.856a.559.559,0,0,1-.783-.393,1.113,1.113,0,0,0-.948-.766.838.838,0,0,0-1.032.691.763.763,0,0,0,.679.967,3.184,3.184,0,0,1,1.8.972,2.016,2.016,0,0,1-.715,3.311.415.415,0,0,0-.314.414.543.543,0,0,1-.6.533.527.527,0,0,1-.559-.521c-.007-.254-.128-.325-.33-.4a2.045,2.045,0,0,1-1.343-1.418c-.1-.376-.021-.709.4-.827.4-.11.618.105.746.463a1.147,1.147,0,0,0,1.782.535.827.827,0,0,0,.145-1.154,1.742,1.742,0,0,0-1.1-.7,2.012,2.012,0,0,1-1.792-1.722,2.074,2.074,0,0,1,1.266-2.193c.211-.07.2-.212.213-.383a.585.585,0,0,1,.6-.589" transform="translate(-2123.555 2421.793)" fill="#fff"/></g></g></svg>