<svg xmlns="http://www.w3.org/2000/svg" xmlns:xlink="http://www.w3.org/1999/xlink" width="66.244" height="66.244" viewBox="0 0 66.244 66.244">
  <defs>
    <clipPath id="clip-path">
      <rect id="Rect치ngulo_324862" data-name="Rect치ngulo 324862" width="40.442" height="43.056" fill="none"/>
    </clipPath>
  </defs>
  <g id="Grupo_876393" data-name="Grupo 876393" transform="translate(2071.919 -1054.855)">
    <g id="Grupo_876392" data-name="Grupo 876392">
      <g id="Grupo_133777" data-name="Grupo 133777" transform="translate(-2071.918 1054.855)">
        <rect id="Rect치ngulo_35719" data-name="Rect치ngulo 35719" width="66.244" height="66.244" rx="33.122" transform="translate(0)" fill="#9ea257"/>
      </g>
    </g>
    <g id="Grupo_876238" data-name="Grupo 876238" transform="translate(-2202.198 1396)">
      <g id="Grupo_876237" data-name="Grupo 876237" transform="translate(143 -329)" clip-path="url(#clip-path)">
        <path id="Trazado_613846" data-name="Trazado 613846" d="M36.648,43.056A3.741,3.741,0,0,1,35.2,42.032c-1.968-1.979-3.952-3.943-5.918-5.924-.22-.222-.354-.274-.648-.09a10.765,10.765,0,0,1-16.482-9.737c-.249.2-.424.353-.614.486a.328.328,0,0,0-.133.393,2.013,2.013,0,1,1-3.979.429.365.365,0,0,0-.237-.382c-.419-.193-.834-.4-1.237-.624a.388.388,0,0,0-.6.125C4.036,28.422,2.7,30.118,1.375,31.82c-.06.077-.116.159-.183.23a.667.667,0,0,1-.942.088.642.642,0,0,1-.114-.9c.293-.41.6-.815.929-1.194a1.216,1.216,0,0,0,.294-.876q-.013-7.379-.006-14.757c0-.75.2-.951.938-.952H7.135c.765,0,.957.2.957.976q0,5.55,0,11.1v.506A2.558,2.558,0,0,1,9.3,25.568c.22-.009.132-.18.133-.282.007-.729,0-1.458,0-2.186q0-6.706,0-13.412c0-.744.2-.942.948-.942q2.464,0,4.927,0c.632,0,.862.229.862.859q0,4.2,0,8.409v.46c.434-.286.835-.553,1.239-.816.187-.122.105-.306.105-.46q.007-6.412,0-12.823c0-.834.176-1.011,1.006-1.011h4.8c.721,0,.932.207.932.917,0,3.854.006,7.708-.01,11.562,0,.334.121.425.407.46.3.038.6.106.913.161a.9.9,0,0,0,.036-.445q0-7.526,0-15.052c0-.776.191-.967.965-.968H31.42c.72,0,.931.208.931.918q0,6.979,0,13.959a.839.839,0,0,0,.25.713.528.528,0,0,1,.178.279c.1.6.539.629,1.017.748a1.385,1.385,0,0,0,1.639-.553c.878-1.117,1.857-2.154,2.846-3.283-.424,0-.77,0-1.115,0-.466-.008-.757-.264-.765-.66a.672.672,0,0,1,.741-.682q1.284-.012,2.569,0a.667.667,0,0,1,.728.736q.013,1.282,0,2.565a.674.674,0,1,1-1.343,0c-.007-.246,0-.493,0-.834-.734.835-1.4,1.6-2.075,2.36-.444.506-.895,1.006-1.326,1.523a.891.891,0,0,1-.963.339c-.547-.119-1.1-.189-1.656-.289a.413.413,0,0,0-.458.181,1.963,1.963,0,0,1-2.245.717c-.115-.032-.251-.149-.325.021-.054.125.106.175.179.244A10.683,10.683,0,0,1,31.981,32.71c-.17.273-.034.361.113.508q3.158,3.15,6.312,6.3a2.007,2.007,0,0,1-.176,3.169,5.447,5.447,0,0,1-.74.367Z" transform="translate(0 0)" fill="#fff"/>
        <path id="Trazado_613847" data-name="Trazado 613847" d="M119.987,165.073a9.434,9.434,0,1,1,9.487,9.426,9.436,9.436,0,0,1-9.487-9.426" transform="translate(-106.504 -138.173)" fill="#9ea257"/>
        <path id="Trazado_613848" data-name="Trazado 613848" d="M239.857,19.724c0-2.479.007-4.958-.009-7.438,0-.323.087-.387.393-.382q1.662.029,3.325,0c.281,0,.341.079.34.347q-.013,6.387,0,12.774c0,.257-.063.329-.328.376a2,2,0,0,0-1.606,2.572c.046.164.122.3-.054.445-.2.168-.3-.03-.435-.1-.423-.217-.826-.479-1.265-.655a.517.517,0,0,1-.368-.589c.013-2.451.007-4.9.007-7.353" transform="translate(-212.897 -10.567)" fill="#9ea257"/>
        <path id="Trazado_613849" data-name="Trazado 613849" d="M95.936,105.274v-6.3c0-2.94.006-5.88-.008-8.82,0-.331.049-.451.419-.441,1.093.029,2.187.017,3.281.006.249,0,.36.027.359.328-.013,3.038-.009,6.076-.006,9.114a.644.644,0,0,1-.154.455,10.546,10.546,0,0,0-2.155,4.081.6.6,0,0,1-.2.357c-.5.383-.982.779-1.539,1.224" transform="translate(-85.148 -79.629)" fill="#9ea257"/>
        <path id="Trazado_613850" data-name="Trazado 613850" d="M167.892,54.04V53.6c0-3.782.005-7.563-.009-11.345,0-.349.08-.438.431-.43,1.094.026,2.189.019,3.283,0,.272,0,.346.065.346.342q-.015,5.379,0,10.757c0,.206.021.355-.288.357a10.365,10.365,0,0,0-3.529.682c-.063.023-.127.042-.228.075" transform="translate(-149.018 -37.124)" fill="#9ea257"/>
        <path id="Trazado_613851" data-name="Trazado 613851" d="M28.011,142.316c-.36-.179-.656-.331-.957-.475a.688.688,0,0,0-.989.233c-.6.76-1.188,1.525-1.782,2.287-.081.1-.168.2-.315.381v-.455c0-4.076,0-8.152-.008-12.227,0-.342.067-.444.426-.435,1.108.027,2.216.012,3.325.008.181,0,.308-.012.307.249-.009,3.459-.006,6.918-.006,10.435" transform="translate(-21.267 -116.834)" fill="#9ea257"/>
        <path id="Trazado_613852" data-name="Trazado 613852" d="M275.726,310.826a.657.657,0,0,1-.983.456,1.53,1.53,0,0,1-.321-.266q-3.064-3.054-6.13-6.106c-.221-.219-.266-.355.008-.537a1.855,1.855,0,0,0,.274-.259c.416-.425.415-.425.823-.019q2.987,2.982,5.975,5.964a.941.941,0,0,1,.354.767" transform="translate(-237.983 -269.655)" fill="#fefefe"/>
        <path id="Trazado_613853" data-name="Trazado 613853" d="M270.607,143.7a.672.672,0,1,1-.688.645.676.676,0,0,1,.688-.645" transform="translate(-239.588 -127.549)" fill="#fbfbfb"/>
        <path id="Trazado_613854" data-name="Trazado 613854" d="M78.674,239.49a.671.671,0,1,1-.656.677.677.677,0,0,1,.656-.677" transform="translate(-69.251 -212.578)" fill="#fbfbfb"/>
        <path id="Trazado_613855" data-name="Trazado 613855" d="M140.083,167.641A8.072,8.072,0,1,1,132,175.7a8.1,8.1,0,0,1,8.088-8.058" transform="translate(-117.163 -148.803)" fill="#fff"/>
        <path id="Trazado_613856" data-name="Trazado 613856" d="M157.46,186.353a6.738,6.738,0,1,1-6.7-6.731,6.748,6.748,0,0,1,6.7,6.731" transform="translate(-127.805 -159.438)" fill="#9ea257"/>
        <path id="Trazado_613857" data-name="Trazado 613857" d="M161.161,239.561a5.421,5.421,0,0,1-5.173-5.193c-.009-.53.228-.842.649-.857s.676.283.7.812a4.05,4.05,0,0,0,3.883,3.89c.543.025.833.265.828.685s-.329.675-.887.662" transform="translate(-138.46 -207.272)" fill="#fff"/>
      </g>
    </g>
  </g>
</svg>
