<svg xmlns="http://www.w3.org/2000/svg" xmlns:xlink="http://www.w3.org/1999/xlink" width="412" height="237.682" viewBox="0 0 412 237.682">
  <defs>
    <clipPath id="clip-path">
      <rect id="BG" width="307" height="237.682" transform="translate(180 830)" fill="#f5f5f5" opacity="0.949"/>
    </clipPath>
    <clipPath id="clip-path-2">
      <rect id="Rectángulo_51386" data-name="Rectángulo 51386" width="295" height="271" transform="translate(1020 6856)" fill="#fff" stroke="#707070" stroke-width="1"/>
    </clipPath>
    <clipPath id="clip-path-3">
      <rect id="Rectángulo_51385" data-name="Rectángulo 51385" width="295" height="294.665" fill="none"/>
    </clipPath>
    <clipPath id="clip-path-7">
      <rect id="Rectángulo_51380" data-name="Rectángulo 51380" width="96.619" height="34.891" fill="none"/>
    </clipPath>
    <clipPath id="clip-path-8">
      <rect id="Rectángulo_51382" data-name="Rectángulo 51382" width="29.972" height="9.945" fill="none"/>
    </clipPath>
  </defs>
  <g id="Grupo_876382" data-name="Grupo 876382" transform="translate(-180 -830)">
    <rect id="BG-2" data-name="BG" width="412" height="237.682" transform="translate(180 830)" fill="#f5f5f5" opacity="0.949"/>
    <g id="Enmascarar_grupo_165465" data-name="Enmascarar grupo 165465" clip-path="url(#clip-path)">
      <g id="Enmascarar_grupo_308" data-name="Enmascarar grupo 308" transform="translate(-828 -6026)" clip-path="url(#clip-path-2)">
        <g id="Grupo_165376" data-name="Grupo 165376" transform="translate(1020 6859.014)">
          <g id="Grupo_165375" data-name="Grupo 165375" clip-path="url(#clip-path-3)">
            <g id="Grupo_165362" data-name="Grupo 165362">
              <g id="Grupo_165361" data-name="Grupo 165361" clip-path="url(#clip-path-3)">
                <path id="Trazado_236721" data-name="Trazado 236721" d="M120.1,53.97H102.4a6.891,6.891,0,0,1-6.891-6.891v-17.7a6.891,6.891,0,0,1,6.891-6.891h17.7a6.891,6.891,0,0,1,6.891,6.891v17.7A6.891,6.891,0,0,1,120.1,53.97" transform="translate(-30.707 -7.231)" fill="#e0e0e0"/>
                <path id="Trazado_236722" data-name="Trazado 236722" d="M107.89,49.367l1.147-4.279a7.916,7.916,0,1,1,3.154,3.127Zm4.515-2.756.271.161a6.429,6.429,0,1,0-2.2-2.179l.166.273L110,47.255Z" transform="translate(-34.687 -10.729)" fill="#fff"/>
                <path id="Trazado_236723" data-name="Trazado 236723" d="M120.759,44.471a1.332,1.332,0,0,0-1.132-.255c-.294.12-.482.58-.672.816a.281.281,0,0,1-.364.079,5.13,5.13,0,0,1-2.558-2.19.314.314,0,0,1,.04-.429,1.74,1.74,0,0,0,.465-.754,1.668,1.668,0,0,0-.208-.892,2.133,2.133,0,0,0-.66-.994.9.9,0,0,0-.981.146A1.994,1.994,0,0,0,114,41.574a2.294,2.294,0,0,0,.062.5,4.12,4.12,0,0,0,.48,1.107,8.575,8.575,0,0,0,.5.763,7.752,7.752,0,0,0,2.175,2.019,6.538,6.538,0,0,0,1.356.645,3.006,3.006,0,0,0,1.578.249,1.909,1.909,0,0,0,1.431-1.065.926.926,0,0,0,.066-.543c-.081-.374-.588-.6-.89-.778" transform="translate(-36.651 -12.784)" fill="#fff" fill-rule="evenodd"/>
                <path id="Trazado_236724" data-name="Trazado 236724" d="M360.487,347.334a19.975,19.975,0,0,1,4.87-2.116l1-4.821,8.145-.142,1.172,4.781a19.961,19.961,0,0,1,4.942,1.945l4.116-2.7,5.86,5.658-2.551,4.208a19.928,19.928,0,0,1,2.116,4.871l4.82,1,.143,8.145-4.782,1.172a19.939,19.939,0,0,1-1.944,4.941l2.7,4.116-5.657,5.86-4.208-2.552a19.956,19.956,0,0,1-4.871,2.116l-1,4.821-8.144.142L366.039,384a19.964,19.964,0,0,1-4.941-1.944l-4.116,2.7-5.86-5.658,2.551-4.208a19.956,19.956,0,0,1-2.117-4.871l-4.82-1-.142-8.145,4.782-1.172a19.966,19.966,0,0,1,1.944-4.941l-2.7-4.116,5.657-5.859Zm4.342,10.85a8.738,8.738,0,1,0,12.355-.217,8.738,8.738,0,0,0-12.355.217" transform="translate(-111.432 -109.394)" fill="#ebebeb"/>
                <path id="Trazado_236725" data-name="Trazado 236725" d="M372.235,365.341a6.6,6.6,0,0,1,1.627-1.428,8.7,8.7,0,0,1,5.7-1.348,8.81,8.81,0,0,1,3.874,1.377,8.936,8.936,0,0,1,3.133,3.53,8.952,8.952,0,0,1,.844,5.143,8.915,8.915,0,0,1-7.376,7.641,8.96,8.96,0,0,1-5.17-.663,8.949,8.949,0,0,1-3.639-3.008,8.81,8.81,0,0,1-1.511-3.824,8.7,8.7,0,0,1,1.147-5.744,6.617,6.617,0,0,1,1.37-1.676c.047.04-.528.573-1.2,1.773a8.716,8.716,0,0,0-.966,5.594,8.542,8.542,0,0,0,4.988,6.463,8.54,8.54,0,0,0,4.9.6,8.468,8.468,0,0,0,6.973-7.223,8.547,8.547,0,0,0-.773-4.874,8.537,8.537,0,0,0-6.634-4.758,8.708,8.708,0,0,0-5.556,1.162c-1.176.715-1.689,1.308-1.73,1.262" transform="translate(-118.838 -116.551)" fill="#ebebeb"/>
                <path id="Trazado_236726" data-name="Trazado 236726" d="M360.4,347.263a1.961,1.961,0,0,1-.271-.143l-.807-.467-3.171-1.873.1-.013-5.624,5.893.016-.157,2.714,4.1.049.074-.043.079a19.924,19.924,0,0,0-1.912,4.909l-.024.1-.1.024-4.779,1.186.136-.176c.051,2.564.105,5.285.161,8.143l-.157-.189,4.822.993.122.026.035.12a19.863,19.863,0,0,0,2.1,4.816l.069.111-.068.113-2.546,4.211-.035-.276,5.867,5.65-.29-.027,4.113-2.7.121-.079.126.07a19.837,19.837,0,0,0,4.883,1.917l.142.035.035.143,1.176,4.781-.243-.187,8.144-.146-.239.2c.316-1.523.658-3.166,1-4.821l.031-.149.146-.041a19.776,19.776,0,0,0,4.805-2.087l0,0,.131-.078.128.078,4.208,2.552-.309.04,5.659-5.859-.028.309-2.7-4.118-.081-.125.073-.13a19.721,19.721,0,0,0,1.923-4.88l.036-.142.142-.035,4.783-1.169-.182.236q-.069-4.171-.135-8.144l.183.221-4.819-1.009-.134-.029-.037-.13a19.779,19.779,0,0,0-2.086-4.82l-.068-.113.068-.112,2.559-4.2.033.258c-2.057-1.995-4-3.878-5.849-5.67l.239.022-4.122,2.688-.092.06-.1-.053a19.842,19.842,0,0,0-4.893-1.941l-.1-.024-.023-.1-1.156-4.785.147.113-8.145.107.108-.09c-.413,1.923-.752,3.5-1.033,4.814l-.011.048-.047.013a20.616,20.616,0,0,0-3.724,1.433l-.876.457a2.042,2.042,0,0,1-.292.149,2.594,2.594,0,0,1,.271-.185c.187-.115.468-.287.858-.5a19.281,19.281,0,0,1,3.719-1.514l-.057.06c.265-1.317.583-2.9.972-4.827l.017-.087.091,0,8.143-.178.118,0,.029.116c.368,1.477.757,3.041,1.188,4.777l-.12-.12a20.107,20.107,0,0,1,4.99,1.947l-.186.007,4.11-2.708.128-.084.111.107,5.872,5.646.119.115-.086.142-2.544,4.212v-.224a20.2,20.2,0,0,1,2.147,4.921l-.17-.158,4.821,1,.181.037,0,.185q.074,3.971.151,8.143l0,.191-.186.045-4.781,1.176.178-.177a20.2,20.2,0,0,1-1.965,5l-.01-.254,2.7,4.115.109.166-.137.142-5.657,5.862-.138.144-.171-.1-4.208-2.55h.259l0,0a20.226,20.226,0,0,1-4.927,2.139l.176-.189-1,4.82-.041.195-.2,0-8.145.14-.2,0-.046-.191c-.4-1.65-.8-3.285-1.169-4.783l.177.178a20.3,20.3,0,0,1-5-1.972l.246-.009-4.119,2.694-.156.1-.134-.129-5.853-5.665-.128-.124.093-.152,2.557-4.2v.223a20.18,20.18,0,0,1-2.13-4.926l.157.146-4.819-1.012-.154-.033,0-.157c-.043-2.858-.085-5.579-.124-8.144l0-.143.138-.034,4.785-1.159-.12.121a20.126,20.126,0,0,1,1.975-4.973l.005.152-2.681-4.127-.056-.086.071-.073,5.691-5.827.045-.047.054.034,3.1,1.929.8.506a2.4,2.4,0,0,1,.27.185" transform="translate(-111.346 -109.323)" fill="#ebebeb"/>
                <path id="Trazado_236727" data-name="Trazado 236727" d="M14.161,46.551a19.976,19.976,0,0,1,4.87-2.116l1-4.821,8.145-.142,1.172,4.781A19.962,19.962,0,0,1,34.293,46.2l4.116-2.7,5.859,5.658-2.551,4.208a19.928,19.928,0,0,1,2.116,4.871l4.82,1,.143,8.145-4.782,1.172A19.939,19.939,0,0,1,42.071,73.5l2.7,4.116-5.657,5.859L34.9,80.923a19.955,19.955,0,0,1-4.871,2.116l-1,4.821L20.885,88,19.713,83.22a19.965,19.965,0,0,1-4.941-1.944l-4.116,2.7L4.8,78.316l2.551-4.208a19.972,19.972,0,0,1-2.117-4.871l-4.82-1L.267,60.09l4.782-1.172a19.965,19.965,0,0,1,1.944-4.941L4.3,49.86,9.952,44ZM18.5,57.4a8.738,8.738,0,1,0,12.355-.217A8.738,8.738,0,0,0,18.5,57.4" transform="translate(-0.086 -12.691)" fill="#ebebeb"/>
                <path id="Trazado_236728" data-name="Trazado 236728" d="M25.909,64.558a6.6,6.6,0,0,1,1.627-1.428,8.7,8.7,0,0,1,5.7-1.348,8.809,8.809,0,0,1,3.874,1.377,8.936,8.936,0,0,1,3.133,3.53,8.952,8.952,0,0,1,.844,5.143,8.915,8.915,0,0,1-7.376,7.641,8.959,8.959,0,0,1-5.17-.663A8.948,8.948,0,0,1,24.9,75.8a8.81,8.81,0,0,1-1.511-3.824,8.7,8.7,0,0,1,1.147-5.744,6.6,6.6,0,0,1,1.37-1.676c.047.04-.527.573-1.2,1.773a8.712,8.712,0,0,0-.965,5.594,8.539,8.539,0,0,0,4.988,6.463,8.54,8.54,0,0,0,4.9.6A8.467,8.467,0,0,0,40.6,71.766a8.547,8.547,0,0,0-.773-4.874A8.54,8.54,0,0,0,33.2,62.133,8.711,8.711,0,0,0,27.639,63.3c-1.176.715-1.689,1.308-1.73,1.262" transform="translate(-7.492 -19.847)" fill="#ebebeb"/>
                <path id="Trazado_236729" data-name="Trazado 236729" d="M14.075,46.48a1.958,1.958,0,0,1-.271-.143L13,45.87,9.825,44l.1-.014L4.3,49.876l.016-.157,2.714,4.1.049.074-.043.079a19.924,19.924,0,0,0-1.912,4.909l-.024.1-.1.024L.223,60.191l.136-.176C.41,62.58.464,65.3.52,68.159L.364,67.97l4.822.993.123.026.035.12a19.809,19.809,0,0,0,2.1,4.816l.068.111-.068.113L4.9,78.36l-.036-.276,5.867,5.65-.29-.027L14.554,81l.121-.079L14.8,81a19.836,19.836,0,0,0,4.883,1.917l.142.035.035.143,1.176,4.781-.243-.187,8.144-.146-.239.2c.316-1.523.658-3.166,1-4.821l.031-.149.146-.041a19.763,19.763,0,0,0,4.805-2.087l0,0,.131-.078.128.078,4.208,2.552-.309.04L44.5,77.369l-.028.309-2.7-4.118-.081-.125.073-.13a19.721,19.721,0,0,0,1.923-4.88l.036-.142.142-.035,4.783-1.169-.182.236q-.069-4.171-.135-8.144l.183.221L43.7,58.385l-.133-.028-.037-.13a19.808,19.808,0,0,0-2.086-4.82l-.068-.113.068-.112L44,48.978l.033.258c-2.057-1.995-4-3.878-5.849-5.669l.239.022-4.123,2.688-.092.06-.095-.053a19.841,19.841,0,0,0-4.893-1.941l-.1-.024-.023-.1c-.421-1.739-.8-3.306-1.157-4.785l.147.113-8.145.107.107-.09c-.413,1.923-.752,3.5-1.033,4.814l-.011.048-.046.013a20.6,20.6,0,0,0-3.724,1.433l-.876.457a2.039,2.039,0,0,1-.292.149,2.59,2.59,0,0,1,.271-.185c.187-.115.468-.287.859-.5a19.3,19.3,0,0,1,3.718-1.514l-.057.06c.265-1.317.584-2.9.972-4.827l.017-.088.091,0,8.143-.178.118,0,.029.116c.367,1.477.756,3.041,1.188,4.777l-.121-.12a20.134,20.134,0,0,1,4.99,1.947l-.186.007,4.11-2.708.128-.084.111.107,5.872,5.646.119.115-.086.142-2.544,4.212v-.224A20.2,20.2,0,0,1,43.964,58.1l-.17-.158,4.821,1,.18.037,0,.185q.074,3.971.152,8.143l0,.191-.186.045-4.781,1.176.178-.177a20.2,20.2,0,0,1-1.965,5l-.009-.254,2.7,4.115.109.166-.137.142-5.656,5.862-.139.144-.171-.1-4.208-2.55h.259l0,0a20.213,20.213,0,0,1-4.927,2.139l.176-.189-1,4.82-.041.195-.2,0-8.145.14-.2,0-.047-.191c-.4-1.65-.8-3.285-1.169-4.783l.177.178a20.278,20.278,0,0,1-5-1.972l.246-.009L10.7,84.1l-.156.1-.134-.13L4.554,78.4l-.129-.124.093-.152,2.557-4.2v.223a20.181,20.181,0,0,1-2.13-4.926l.157.146L.283,68.356l-.154-.033,0-.157C.083,65.308.041,62.586,0,60.022l0-.143.138-.034,4.785-1.159-.12.121a20.151,20.151,0,0,1,1.975-4.973l.005.152L4.1,49.858l-.056-.085.071-.073,5.691-5.827.045-.047.054.034,3.1,1.929.8.506a2.4,2.4,0,0,1,.27.185" transform="translate(0 -12.619)" fill="#ebebeb"/>
                <path id="Trazado_236730" data-name="Trazado 236730" d="M402.326,310.5a10.551,10.551,0,0,1,2.58-1.122l.531-2.554,4.315-.076.621,2.533a10.555,10.555,0,0,1,2.618,1.03l2.181-1.43,3.1,3-1.352,2.229a10.579,10.579,0,0,1,1.122,2.581l2.554.532.075,4.315-2.533.622a10.562,10.562,0,0,1-1.03,2.618l1.43,2.181-3,3.1-2.23-1.352a10.589,10.589,0,0,1-2.581,1.121l-.531,2.554-4.315.076-.621-2.533a10.6,10.6,0,0,1-2.618-1.031l-2.181,1.43-3.1-3,1.352-2.23a10.562,10.562,0,0,1-1.122-2.58l-2.554-.531-.076-4.315,2.534-.621a10.561,10.561,0,0,1,1.03-2.618l-1.43-2.181,3-3.1Zm2.3,5.748a4.63,4.63,0,1,0,6.546-.115,4.629,4.629,0,0,0-6.546.115" transform="translate(-126.984 -98.62)" fill="#ebebeb"/>
                <path id="Trazado_236731" data-name="Trazado 236731" d="M46.112,3.75a10.55,10.55,0,0,1,2.58-1.122L49.223.075,53.538,0l.621,2.533a10.555,10.555,0,0,1,2.618,1.03l2.181-1.43,3.1,3L60.711,7.36a10.577,10.577,0,0,1,1.122,2.581l2.554.532.075,4.315-2.533.622a10.561,10.561,0,0,1-1.03,2.618l1.43,2.181-3,3.1L57.1,21.961a10.589,10.589,0,0,1-2.581,1.121l-.531,2.554-4.315.076-.621-2.533a10.594,10.594,0,0,1-2.618-1.031l-2.181,1.43-3.1-3L42.5,18.35a10.561,10.561,0,0,1-1.122-2.58l-2.554-.532-.075-4.315,2.533-.622a10.561,10.561,0,0,1,1.03-2.618L40.884,5.5l3-3.1Zm2.3,5.748a4.63,4.63,0,1,0,6.546-.115,4.629,4.629,0,0,0-6.546.115" transform="translate(-12.458 0)" fill="#ebebeb"/>
                <path id="Trazado_236732" data-name="Trazado 236732" d="M408.551,320.035a3.5,3.5,0,0,1,.862-.757,4.614,4.614,0,0,1,3.021-.714,4.677,4.677,0,0,1,2.053.729,4.74,4.74,0,0,1,1.66,1.871,4.741,4.741,0,0,1,.447,2.725,4.724,4.724,0,0,1-3.907,4.049,4.753,4.753,0,0,1-2.74-.351,4.735,4.735,0,0,1-1.928-1.594,4.659,4.659,0,0,1-.8-2.026,4.607,4.607,0,0,1,.607-3.043,3.5,3.5,0,0,1,.726-.888c.025.021-.28.3-.636.94a4.616,4.616,0,0,0-.512,2.964,4.524,4.524,0,0,0,2.643,3.424,4.523,4.523,0,0,0,2.6.318,4.487,4.487,0,0,0,3.694-3.827,4.519,4.519,0,0,0-.41-2.583,4.523,4.523,0,0,0-3.515-2.521,4.615,4.615,0,0,0-2.944.615c-.623.379-.895.693-.917.669" transform="translate(-130.908 -102.412)" fill="#ebebeb"/>
                <path id="Trazado_236733" data-name="Trazado 236733" d="M402.281,310.458a1.04,1.04,0,0,1-.144-.076l-.427-.247-1.681-.993.052-.007-2.979,3.122.008-.083,1.438,2.175.026.039-.022.041a10.535,10.535,0,0,0-1.014,2.6l-.012.051-.052.013-2.532.628.072-.093c.027,1.358.056,2.8.086,4.315l-.083-.1,2.555.527.064.014.018.064A10.52,10.52,0,0,0,398.769,325l.036.059-.036.06-1.349,2.232-.019-.147,3.109,2.994-.154-.014,2.18-1.432.064-.041.066.037a10.487,10.487,0,0,0,2.587,1.016l.076.018.018.076.623,2.534-.129-.1,4.315-.078-.127.105c.168-.807.349-1.677.531-2.554l.016-.079.077-.022a10.507,10.507,0,0,0,2.546-1.106h0l.07-.041.068.041,2.229,1.352-.164.022,3-3.1-.016.163-1.428-2.181-.043-.066.039-.069a10.432,10.432,0,0,0,1.019-2.585l.019-.076.075-.018,2.534-.619-.1.125q-.037-2.21-.072-4.315l.1.117-2.552-.535-.071-.015-.019-.069a10.467,10.467,0,0,0-1.105-2.553l-.036-.06.036-.059,1.356-2.227.018.136-3.1-3,.126.012L413,310.35l-.049.031-.05-.028a10.551,10.551,0,0,0-2.593-1.029l-.052-.013-.012-.051-.613-2.536.077.06-4.315.057.057-.047-.548,2.55-.005.026-.025.007a10.974,10.974,0,0,0-1.973.759l-.464.243a1.09,1.09,0,0,1-.155.079,1.327,1.327,0,0,1,.144-.1c.1-.061.248-.152.455-.263a10.294,10.294,0,0,1,1.97-.8l-.03.032c.14-.7.309-1.535.515-2.557l.009-.046h.048l4.315-.094h.062l.016.061c.195.783.4,1.611.63,2.531l-.064-.064a10.67,10.67,0,0,1,2.643,1.031l-.1,0,2.177-1.434.068-.045.058.056,3.111,2.991.063.061-.045.075-1.348,2.232v-.119a10.712,10.712,0,0,1,1.137,2.608l-.09-.084,2.555.529.1.02v.1q.04,2.1.08,4.315l0,.1-.1.024-2.533.623.094-.094a10.7,10.7,0,0,1-1.042,2.65l0-.134,1.43,2.18.058.088-.073.076-3,3.105-.073.076-.091-.055-2.23-1.352h.135a10.7,10.7,0,0,1-2.611,1.134l.094-.1c-.182.877-.364,1.748-.532,2.554l-.022.1-.105,0-4.315.074-.1,0-.024-.1c-.214-.875-.425-1.74-.619-2.534l.094.094a10.733,10.733,0,0,1-2.648-1.045l.13,0-2.183,1.428-.083.054-.071-.069-3.1-3-.068-.066.049-.081L398.573,325v.118a10.737,10.737,0,0,1-1.129-2.61l.083.077-2.553-.536-.081-.018v-.083c-.023-1.514-.045-2.956-.066-4.315v-.076l.073-.018,2.536-.614-.064.064a10.67,10.67,0,0,1,1.046-2.635l0,.081L397,312.248l-.03-.045.037-.038,3.016-3.088.024-.024.028.018,1.643,1.022.422.269a1.29,1.29,0,0,1,.143.1" transform="translate(-126.939 -98.583)" fill="#ebebeb"/>
                <path id="Trazado_236734" data-name="Trazado 236734" d="M290.807,364.347a20.274,20.274,0,0,1,11.487-1.264c2.084.312,4.257.877,5.675,2.294s1.687,3.913.058,5.131a5.875,5.875,0,0,1-3.578.822c-3.037-.033-6.406-.516-8.832,1.138-1.384.944-2.306,2.514-3.96,2.978a4.077,4.077,0,0,1-4.3-1.734,5.548,5.548,0,0,1-.487-4.469,6.813,6.813,0,0,1,3.941-4.9" transform="translate(-92.149 -116.639)" fill="#ebebeb"/>
                <path id="Trazado_236735" data-name="Trazado 236735" d="M280.038,330.858c2.137,2.763,6.289,1.848,8.215.161s2.739-4.131,3.479-6.463c1.693-5.327,3.4-10.915,2.141-16.339a8.733,8.733,0,0,0-2.3-4.442,5.572,5.572,0,0,0-4.963-1.5c-2.093.5-3.395,2.358-4.335,4.125a35.942,35.942,0,0,0-4.25,16.715c-.01,2.693.34,5.516,2.017,7.739" transform="translate(-89.386 -97.146)" fill="#ebebeb"/>
                <path id="Trazado_236736" data-name="Trazado 236736" d="M260.688,339.038a9.3,9.3,0,0,0,1.728-9.253,17.915,17.915,0,0,0-6.052-7.951,33.462,33.462,0,0,0-10.837-5.791,12.649,12.649,0,0,0-4.874-.75,5.215,5.215,0,0,0-4.09,2.241c-1.141,1.97-.047,4.359,1.136,6.309a74.591,74.591,0,0,0,7.117,9.816c2.134,2.491,4.577,4.948,7.829,6.074s6.628.993,8.352-1.049" transform="translate(-75.902 -101.359)" fill="#ebebeb"/>
                <path id="Trazado_236737" data-name="Trazado 236737" d="M280.762,393.857a5.488,5.488,0,0,0,.193-1.256c.1-.914.221-2.061.368-3.427a45.022,45.022,0,0,1,.851-5.026,36.1,36.1,0,0,1,2.018-5.933,21.4,21.4,0,0,1,3.345-5.368,12.308,12.308,0,0,1,4.229-3.184,12.777,12.777,0,0,1,3.561-1,7.357,7.357,0,0,0,1.381-.18,7.1,7.1,0,0,0-1.405-.02,11.689,11.689,0,0,0-3.713.875,12.345,12.345,0,0,0-4.461,3.212,20.968,20.968,0,0,0-3.468,5.476,33.739,33.739,0,0,0-2,6.03,38.769,38.769,0,0,0-.738,5.09c-.12,1.455-.166,2.633-.187,3.448a5.335,5.335,0,0,0,.029,1.268" transform="translate(-90.254 -118.457)" fill="#e0e0e0"/>
                <path id="Trazado_236738" data-name="Trazado 236738" d="M281.023,375.17a2.262,2.262,0,0,0,.037-.583c0-.438,0-.989,0-1.666,0-1.446,0-3.538.081-6.123.142-5.168.633-10.73,1.582-18.571.9-7.374,2.105-15.955,3.378-21.534.273-1.269.548-2.411.807-3.411s.457-1.866.661-2.565c.174-.658.317-1.194.43-1.62a2.283,2.283,0,0,0,.112-.575,2.341,2.341,0,0,0-.223.547l-.534,1.6c-.237.692-.48,1.551-.757,2.549s-.592,2.135-.891,3.4A172.621,172.621,0,0,0,282.15,346.6a186.966,186.966,0,0,0-1.417,20.193c-.034,2.59.027,4.688.1,6.135.046.676.083,1.227.113,1.665a2.243,2.243,0,0,0,.078.579" transform="translate(-90.254 -102.407)" fill="#e0e0e0"/>
                <path id="Trazado_236739" data-name="Trazado 236739" d="M271.562,363.37a10.121,10.121,0,0,0-.014-1.741,43.811,43.811,0,0,0-.588-4.716,57.3,57.3,0,0,0-1.694-6.87,52.778,52.778,0,0,0-3.173-8.13,43.146,43.146,0,0,0-9.316-13.138,23.017,23.017,0,0,0-2.192-1.845c-.337-.258-.634-.514-.936-.718l-.85-.531a12.646,12.646,0,0,0-1.618-.938,56.094,56.094,0,0,1,5.3,4.285,45.336,45.336,0,0,1,9.084,13.09,60.4,60.4,0,0,1,3.19,8.055,64.435,64.435,0,0,1,1.8,6.8c.4,1.96.627,3.561.765,4.669a10.2,10.2,0,0,0,.235,1.724" transform="translate(-80.756 -104.407)" fill="#e0e0e0"/>
                <path id="Trazado_236740" data-name="Trazado 236740" d="M257.429,396.772l1.527,18.944h26.872l1.527-18.944Z" transform="translate(-82.765 -127.565)" fill="#e0e0e0"/>
                <rect id="Rectángulo_51363" data-name="Rectángulo 51363" width="35.728" height="7.467" transform="translate(172.069 261.74)" fill="#e0e0e0"/>
                <path id="Trazado_236741" data-name="Trazado 236741" d="M253.6,423.624v2.07h35.137v-2.07Z" transform="translate(-81.535 -136.198)" fill="#ebebeb"/>
                <path id="Trazado_236742" data-name="Trazado 236742" d="M257.723,430.317l-1.645-3.643h32.179l-1.92,3.643Z" transform="translate(-82.331 -137.179)" fill="#e0e0e0"/>
                <path id="Trazado_236743" data-name="Trazado 236743" d="M287.071,404.636a.767.767,0,0,1-.126.174l-.4.482-1.566,1.814-.069.081-.067-.084L281,402.286h.221l-3.786,4.855-.119.153-.133-.143-4.491-4.839.259,0-.247.281-4.015,4.559-.134.152-.123-.158-3.788-4.855.22.01-4.666,4.815-.083.085-.063-.1-1.461-2.223-.375-.592a.889.889,0,0,1-.115-.211.963.963,0,0,1,.157.187l.415.57,1.533,2.182-.146-.011,4.591-4.873.116-.123.1.132,3.822,4.833-.257-.007,4.006-4.566.247-.281.128-.145.131.142,4.478,4.848-.251.009L281,402.143l.112-.142.109.142,3.765,4.87-.137,0,1.629-1.768.436-.457a.829.829,0,0,1,.161-.148" transform="translate(-82.98 -129.238)" fill="#f5f5f5"/>
                <path id="Trazado_236744" data-name="Trazado 236744" d="M287.835,396.515c0,.083-6.733.151-15.037.151s-15.039-.068-15.039-.151,6.732-.151,15.039-.151,15.037.068,15.037.151" transform="translate(-82.871 -127.434)" fill="#f5f5f5"/>
                <path id="Trazado_236745" data-name="Trazado 236745" d="M288.6,426.9c0,.083-7.318.151-16.343.151s-16.344-.068-16.344-.151,7.316-.151,16.344-.151,16.343.068,16.343.151" transform="translate(-82.277 -137.204)" fill="#f5f5f5"/>
                <path id="Trazado_236746" data-name="Trazado 236746" d="M213.429,273.976H194.312a6.523,6.523,0,0,1-6.523-6.524V248.337a6.523,6.523,0,0,1,6.523-6.524h19.117a6.524,6.524,0,0,1,6.524,6.524v19.116a6.524,6.524,0,0,1-6.524,6.524" transform="translate(-60.375 -77.745)" fill="#e0e0e0"/>
                <path id="Trazado_236747" data-name="Trazado 236747" d="M200.663,269.636a.714.714,0,0,1-.505-1.219l3.822-3.823a6.584,6.584,0,0,1,.476-8.708,6.537,6.537,0,1,1,.534,9.72l-3.821,3.821a.708.708,0,0,1-.5.21m8.414-14.236a5.1,5.1,0,1,0,3.612,1.5,5.072,5.072,0,0,0-3.612-1.5" transform="translate(-64.285 -81.653)" fill="#fff"/>
                <path id="Trazado_236748" data-name="Trazado 236748" d="M409.8,63.944H393.366a7.045,7.045,0,0,1-7.045-7.045V40.467a7.045,7.045,0,0,1,7.045-7.045H409.8a7.045,7.045,0,0,1,7.045,7.045V56.9a7.045,7.045,0,0,1-7.045,7.045" transform="translate(-124.205 -10.745)" fill="#e0e0e0"/>
                <path id="Trazado_236749" data-name="Trazado 236749" d="M409.442,63.092a1.286,1.286,0,1,1-1.28-1.293,1.287,1.287,0,0,1,1.28,1.293" transform="translate(-130.811 -19.869)" fill="#fff"/>
                <path id="Trazado_236750" data-name="Trazado 236750" d="M404.4,60.046a3.564,3.564,0,0,1,5.157-.068.724.724,0,0,0,1.028-1.018,5.027,5.027,0,0,0-7.2.058c-.642.674.375,1.7,1.018,1.028" transform="translate(-129.623 -18.476)" fill="#fff"/>
                <path id="Trazado_236751" data-name="Trazado 236751" d="M397.941,50.448a10.532,10.532,0,0,1,6.906-2.761,10.245,10.245,0,0,1,7.045,2.7c.678.637,1.708-.379,1.028-1.018a11.749,11.749,0,0,0-8.067-3.124,12.091,12.091,0,0,0-7.931,3.181c-.706.61.316,1.634,1.018,1.028" transform="translate(-127.537 -14.866)" fill="#fff"/>
                <path id="Trazado_236752" data-name="Trazado 236752" d="M400.5,55.532a7.079,7.079,0,0,1,10.4-.149c.65.669,1.678-.349,1.028-1.018a8.521,8.521,0,0,0-12.446.139c-.631.683.385,1.713,1.018,1.027" transform="translate(-128.372 -16.633)" fill="#fff"/>
              </g>
            </g>
            <g id="Grupo_165364" data-name="Grupo 165364">
              <g id="Grupo_165363" data-name="Grupo 165363" clip-path="url(#clip-path-3)">
                <path id="Trazado_236753" data-name="Trazado 236753" d="M348.923,229.577c.1,0,.176,3.42.176,7.638s-.079,7.639-.176,7.639-.176-3.42-.176-7.639.079-7.638.176-7.638" transform="translate(-112.125 -73.811)" fill="#263238"/>
                <path id="Trazado_236754" data-name="Trazado 236754" d="M264.207,97.369c-.1,0-.176-5.7-.176-12.729s.079-12.73.176-12.73.176,5.7.176,12.73-.079,12.729-.176,12.729" transform="translate(-84.888 -23.12)" fill="#263238"/>
                <path id="Trazado_236755" data-name="Trazado 236755" d="M220.653,145.543a2.328,2.328,0,0,1-.47.036l-1.347.033-4.954.056-16.344.052h-2.364a8.9,8.9,0,0,1-1.179-.044,4.13,4.13,0,0,1-1.136-.329,5.3,5.3,0,0,1-2.806-3.321,6.716,6.716,0,0,1-.294-2.04c.007-.654.015-1.29.022-1.906.016-1.227.031-2.371.045-3.421.037-2.061.068-3.742.09-4.953.018-.556.031-1,.042-1.347a2.258,2.258,0,0,1,.039-.47,2.47,2.47,0,0,1,.032.47c.006.343.014.79.024,1.347.005,1.211.013,2.893.022,4.954,0,1.05,0,2.194,0,3.421a12.639,12.639,0,0,0,.29,3.846,4.981,4.981,0,0,0,2.635,3.1,3.8,3.8,0,0,0,1.044.3,8.653,8.653,0,0,0,1.131.039h2.364l16.344.052,4.954.056,1.347.033a2.375,2.375,0,0,1,.47.035" transform="translate(-61.009 -41.117)" fill="#263238"/>
                <path id="Trazado_236756" data-name="Trazado 236756" d="M266.391,52.11h-27.26a7.045,7.045,0,0,1-7.045-7.045V17.8a7.045,7.045,0,0,1,7.045-7.045h27.26a7.045,7.045,0,0,1,7.045,7.045v27.26a7.045,7.045,0,0,1-7.045,7.045" transform="translate(-74.617 -3.459)" fill="#fff"/>
                <path id="Trazado_236757" data-name="Trazado 236757" d="M266.308,52.026a12.49,12.49,0,0,0,1.536-.21,7.024,7.024,0,0,0,3.725-2.263,6.779,6.779,0,0,0,1.464-2.8,14.9,14.9,0,0,0,.222-3.8c-.008-2.757-.017-5.893-.026-9.359s-.014-7.267-.022-11.344q0-1.529,0-3.11a11.938,11.938,0,0,0-.232-3.15,6.878,6.878,0,0,0-4.2-4.692,6.665,6.665,0,0,0-1.635-.405,14.943,14.943,0,0,0-1.729-.053l-3.561,0-7.345,0-15.445,0a6.926,6.926,0,0,0-3.646,1.053,6.538,6.538,0,0,0-1.453,1.221,6.432,6.432,0,0,0-1.06,1.558,6.73,6.73,0,0,0-.594,1.773,9.623,9.623,0,0,0-.121,1.871q0,1.9,0,3.775c0,4.99-.007,9.8-.01,14.389q0,3.438-.007,6.7a17.532,17.532,0,0,0,.135,3.171,6.943,6.943,0,0,0,1.242,2.751,6.868,6.868,0,0,0,4.895,2.744c1.867.066,3.7.024,5.43.043l16.426.056,4.466.033,1.162.017c.261.006.4.018.4.018s-.134.012-.4.018l-1.162.017-4.466.033-16.426.056c-1.738-.01-3.539.04-5.454-.021a7.144,7.144,0,0,1-5.1-2.839,7.236,7.236,0,0,1-1.3-2.867,17.735,17.735,0,0,1-.149-3.231q0-3.258-.007-6.7c0-4.586-.007-9.4-.01-14.389q0-1.872,0-3.775a10.007,10.007,0,0,1,.126-1.935,7.047,7.047,0,0,1,.624-1.865,6.78,6.78,0,0,1,1.113-1.638,6.917,6.917,0,0,1,1.527-1.284,7.274,7.274,0,0,1,3.834-1.107l15.445,0,7.345,0,3.561,0a15.178,15.178,0,0,1,1.768.058,7.039,7.039,0,0,1,1.713.427,7.2,7.2,0,0,1,4.388,4.919,12.233,12.233,0,0,1,.233,3.228q0,1.581,0,3.11c-.007,4.076-.015,7.875-.022,11.344s-.018,6.6-.026,9.359a14.951,14.951,0,0,1-.257,3.84,6.891,6.891,0,0,1-1.524,2.85,7.006,7.006,0,0,1-3.812,2.242,6.265,6.265,0,0,1-1.156.138c-.263.007-.4,0-.4,0" transform="translate(-74.534 -3.375)" fill="#263238"/>
                <path id="Trazado_236758" data-name="Trazado 236758" d="M341.638,73.029h-27.26a7.045,7.045,0,0,1-7.045-7.045V38.723a7.045,7.045,0,0,1,7.045-7.045h27.26a7.045,7.045,0,0,1,7.046,7.045v27.26a7.045,7.045,0,0,1-7.046,7.045" transform="translate(-98.81 -10.185)" fill="#fff"/>
                <path id="Trazado_236759" data-name="Trazado 236759" d="M341.555,72.945a12.5,12.5,0,0,0,1.537-.21,7.025,7.025,0,0,0,3.724-2.263,6.78,6.78,0,0,0,1.464-2.8,14.9,14.9,0,0,0,.222-3.8c-.008-2.757-.017-5.893-.026-9.359s-.014-7.267-.022-11.344q0-1.529,0-3.11a11.936,11.936,0,0,0-.232-3.15,6.878,6.878,0,0,0-4.2-4.692,6.665,6.665,0,0,0-1.635-.405,14.942,14.942,0,0,0-1.729-.053l-3.561,0-7.345,0-15.445,0a6.925,6.925,0,0,0-3.646,1.053,6.538,6.538,0,0,0-1.453,1.221,6.453,6.453,0,0,0-1.06,1.558,6.731,6.731,0,0,0-.594,1.773,9.626,9.626,0,0,0-.121,1.871q0,1.9,0,3.775c0,4.99-.007,9.8-.01,14.389q0,3.438-.007,6.7a17.532,17.532,0,0,0,.135,3.171,6.943,6.943,0,0,0,1.242,2.751,6.868,6.868,0,0,0,4.895,2.744c1.867.066,3.7.024,5.43.043l16.426.056L340,72.91l1.162.017c.261.006.4.018.4.018s-.134.012-.4.018L340,72.98l-4.466.033-16.426.056c-1.738-.01-3.539.04-5.454-.021a7.144,7.144,0,0,1-5.1-2.839,7.236,7.236,0,0,1-1.3-2.867,17.732,17.732,0,0,1-.149-3.231q0-3.258-.007-6.7c0-4.586-.007-9.4-.01-14.389q0-1.872,0-3.775a10.008,10.008,0,0,1,.126-1.935,7.047,7.047,0,0,1,.624-1.865,6.782,6.782,0,0,1,1.113-1.638,6.918,6.918,0,0,1,1.527-1.284,7.274,7.274,0,0,1,3.834-1.107l15.445,0,7.345,0,3.561,0a15.179,15.179,0,0,1,1.768.058,7.039,7.039,0,0,1,1.713.427,7.2,7.2,0,0,1,4.388,4.919,12.233,12.233,0,0,1,.233,3.228q0,1.581,0,3.11c-.007,4.076-.015,7.875-.022,11.344s-.018,6.6-.026,9.359a14.951,14.951,0,0,1-.257,3.84,6.891,6.891,0,0,1-1.524,2.85,7.006,7.006,0,0,1-3.812,2.242,6.267,6.267,0,0,1-1.156.138c-.263.007-.4,0-.4,0" transform="translate(-98.727 -10.101)" fill="#263238"/>
                <path id="Trazado_236760" data-name="Trazado 236760" d="M407.921,146.622h-27.26a7.045,7.045,0,0,1-7.045-7.045v-27.26a7.045,7.045,0,0,1,7.045-7.045h27.26a7.045,7.045,0,0,1,7.045,7.045v27.26a7.045,7.045,0,0,1-7.045,7.045" transform="translate(-120.12 -33.845)" fill="#fff"/>
                <path id="Trazado_236761" data-name="Trazado 236761" d="M407.838,146.538a12.5,12.5,0,0,0,1.537-.21,7.025,7.025,0,0,0,3.724-2.263,6.78,6.78,0,0,0,1.464-2.8,14.9,14.9,0,0,0,.222-3.8c-.008-2.757-.017-5.893-.026-9.359s-.014-7.267-.022-11.344q0-1.529,0-3.11a11.94,11.94,0,0,0-.232-3.15,6.878,6.878,0,0,0-4.2-4.692,6.665,6.665,0,0,0-1.635-.405,14.938,14.938,0,0,0-1.728-.053l-3.561,0-7.345,0-15.445,0a6.926,6.926,0,0,0-3.646,1.053,6.553,6.553,0,0,0-1.453,1.221,6.411,6.411,0,0,0-1.059,1.558,6.708,6.708,0,0,0-.6,1.773,9.621,9.621,0,0,0-.121,1.871q0,1.9,0,3.775c0,4.99-.007,9.8-.01,14.389q0,3.439-.007,6.7a17.532,17.532,0,0,0,.135,3.171,6.944,6.944,0,0,0,1.242,2.751,6.868,6.868,0,0,0,4.895,2.744c1.867.067,3.7.024,5.43.043l16.426.056,4.466.033,1.162.017c.261.006.4.018.4.018s-.134.012-.4.018l-1.162.018-4.466.033-16.426.056c-1.738-.01-3.539.04-5.454-.021a7.144,7.144,0,0,1-5.1-2.839,7.237,7.237,0,0,1-1.3-2.867,17.748,17.748,0,0,1-.149-3.232q0-3.258-.007-6.7c0-4.586-.007-9.4-.01-14.389q0-1.872,0-3.775a10.005,10.005,0,0,1,.126-1.935,7.047,7.047,0,0,1,.624-1.865,6.779,6.779,0,0,1,1.113-1.638,6.918,6.918,0,0,1,1.527-1.284,7.267,7.267,0,0,1,3.834-1.107l15.445,0,7.345,0,3.561,0a15.172,15.172,0,0,1,1.767.058,7.039,7.039,0,0,1,1.713.427,7.2,7.2,0,0,1,4.388,4.919,12.232,12.232,0,0,1,.233,3.228q0,1.581,0,3.11c-.007,4.076-.015,7.875-.022,11.344s-.018,6.6-.026,9.359a14.951,14.951,0,0,1-.256,3.84,6.887,6.887,0,0,1-1.524,2.85,7.005,7.005,0,0,1-3.812,2.242,6.254,6.254,0,0,1-1.155.138c-.263.007-.4,0-.4,0" transform="translate(-120.037 -33.762)" fill="#263238"/>
                <path id="Trazado_236762" data-name="Trazado 236762" d="M183.2,103.5h-27.26a7.045,7.045,0,0,1-7.045-7.045V69.2a7.045,7.045,0,0,1,7.045-7.045H183.2a7.045,7.045,0,0,1,7.045,7.045v27.26A7.045,7.045,0,0,1,183.2,103.5" transform="translate(-47.871 -19.982)" fill="#fff"/>
                <path id="Trazado_236763" data-name="Trazado 236763" d="M183.118,103.417a12.507,12.507,0,0,0,1.537-.21,7.025,7.025,0,0,0,3.724-2.263,6.779,6.779,0,0,0,1.464-2.8,14.906,14.906,0,0,0,.222-3.8c-.008-2.757-.017-5.893-.026-9.359s-.014-7.267-.022-11.344q0-1.529,0-3.11a12,12,0,0,0-.232-3.15,6.883,6.883,0,0,0-4.2-4.693,6.7,6.7,0,0,0-1.635-.4,14.937,14.937,0,0,0-1.728-.053l-3.561,0-7.345,0-15.445,0a6.926,6.926,0,0,0-3.646,1.053,6.552,6.552,0,0,0-1.453,1.221,6.41,6.41,0,0,0-1.059,1.558,6.709,6.709,0,0,0-.6,1.773,9.622,9.622,0,0,0-.121,1.871q0,1.9,0,3.775c0,4.99-.007,9.8-.01,14.389q0,3.438-.007,6.7a17.535,17.535,0,0,0,.135,3.171,6.943,6.943,0,0,0,1.242,2.751,6.868,6.868,0,0,0,4.895,2.744c1.867.066,3.7.024,5.43.043l16.426.056,4.466.033,1.162.017c.261.006.4.018.4.018s-.134.012-.4.018l-1.162.017-4.466.033-16.426.056c-1.738-.01-3.539.04-5.454-.021a7.146,7.146,0,0,1-5.1-2.84,7.236,7.236,0,0,1-1.3-2.867,17.735,17.735,0,0,1-.149-3.231q0-3.258-.007-6.7c0-4.586-.007-9.4-.01-14.389q0-1.872,0-3.775a10.005,10.005,0,0,1,.126-1.935,7.048,7.048,0,0,1,.624-1.865A6.8,6.8,0,0,1,150.5,64.28,6.918,6.918,0,0,1,152.029,63a7.274,7.274,0,0,1,3.834-1.107l15.445,0,7.345,0,3.561,0a15.173,15.173,0,0,1,1.767.058,7.039,7.039,0,0,1,1.713.427,7.2,7.2,0,0,1,4.388,4.919,12.232,12.232,0,0,1,.233,3.228q0,1.58,0,3.11c-.007,4.076-.015,7.875-.022,11.344s-.018,6.6-.026,9.359a14.951,14.951,0,0,1-.256,3.84,6.887,6.887,0,0,1-1.524,2.85,7.005,7.005,0,0,1-3.812,2.242,6.255,6.255,0,0,1-1.155.138c-.263.007-.4,0-.4,0" transform="translate(-47.788 -19.898)" fill="#263238"/>
                <path id="Trazado_236764" data-name="Trazado 236764" d="M365.1,136.9c0,.1-4.694.176-10.483.176s-10.484-.079-10.484-.176,4.692-.176,10.484-.176,10.483.079,10.483.176" transform="translate(-110.641 -43.956)" fill="#263238"/>
                <rect id="Rectángulo_51365" data-name="Rectángulo 51365" width="5.218" height="3.995" transform="translate(107.616 71.079)" fill="#a3314f"/>
                <rect id="Rectángulo_51366" data-name="Rectángulo 51366" width="5.218" height="13.207" transform="translate(114.22 61.867)" fill="#a3314f"/>
                <rect id="Rectángulo_51367" data-name="Rectángulo 51367" width="5.218" height="7.521" transform="translate(121.475 67.553)" fill="#a3314f"/>
                <rect id="Rectángulo_51368" data-name="Rectángulo 51368" width="5.218" height="17.039" transform="translate(128.405 58.035)" fill="#a3314f"/>
                <path id="Trazado_236765" data-name="Trazado 236765" d="M160.707,96.236a2.6,2.6,0,1,1,2.6-2.6,2.6,2.6,0,0,1-2.6,2.6m0-4.516a1.919,1.919,0,1,0,1.919,1.919,1.921,1.921,0,0,0-1.919-1.919" transform="translate(-50.833 -29.27)" fill="#a3314f"/>
                <path id="Trazado_236766" data-name="Trazado 236766" d="M171.707,81.671a2.6,2.6,0,1,1,2.6-2.6,2.6,2.6,0,0,1-2.6,2.6m0-4.516a1.919,1.919,0,1,0,1.919,1.919,1.921,1.921,0,0,0-1.919-1.919" transform="translate(-54.37 -24.588)" fill="#a3314f"/>
                <path id="Trazado_236767" data-name="Trazado 236767" d="M181.657,90.894a2.6,2.6,0,1,1,2.6-2.6,2.6,2.6,0,0,1-2.6,2.6m0-4.515a1.918,1.918,0,1,0,1.919,1.919,1.921,1.921,0,0,0-1.919-1.919" transform="translate(-57.569 -27.553)" fill="#a3314f"/>
                <path id="Trazado_236768" data-name="Trazado 236768" d="M192.289,77.523a2.6,2.6,0,1,1,2.6-2.6,2.6,2.6,0,0,1-2.6,2.6m0-4.516a1.919,1.919,0,1,0,1.919,1.919,1.921,1.921,0,0,0-1.919-1.919" transform="translate(-60.987 -23.254)" fill="#a3314f"/>
                <rect id="Rectángulo_51369" data-name="Rectángulo 51369" width="7.288" height="0.678" transform="translate(125.299 59.088) rotate(-54.896)" fill="#a3314f"/>
                <rect id="Rectángulo_51370" data-name="Rectángulo 51370" width="0.678" height="4.616" transform="translate(118.828 56.536) rotate(-43.72)" fill="#a3314f"/>
                <rect id="Rectángulo_51371" data-name="Rectángulo 51371" width="7.67" height="0.679" transform="matrix(0.613, -0.79, 0.79, 0.613, 110.856, 62.28)" fill="#a3314f"/>
                <path id="Trazado_236769" data-name="Trazado 236769" d="M192.3,122.877a1.977,1.977,0,1,1-1.977-1.977,1.977,1.977,0,0,1,1.977,1.977" transform="translate(-60.554 -38.87)" fill="#263238"/>
                <path id="Trazado_236770" data-name="Trazado 236770" d="M265.281,70.767A1.977,1.977,0,1,1,263.3,68.79a1.978,1.978,0,0,1,1.977,1.977" transform="translate(-84.018 -22.116)" fill="#263238"/>
                <path id="Trazado_236771" data-name="Trazado 236771" d="M374.439,136.043a1.977,1.977,0,1,1-1.977-1.977,1.977,1.977,0,0,1,1.977,1.977" transform="translate(-119.113 -43.103)" fill="#263238"/>
                <path id="Trazado_236772" data-name="Trazado 236772" d="M339.605,92.119a1.977,1.977,0,1,1-1.977-1.977,1.977,1.977,0,0,1,1.977,1.977" transform="translate(-107.914 -28.981)" fill="#263238"/>
                <path id="Trazado_236773" data-name="Trazado 236773" d="M193.527,32.985h-12.72a7.045,7.045,0,0,1-7.045-7.045V13.219a7.045,7.045,0,0,1,7.045-7.045h12.72a7.045,7.045,0,0,1,7.045,7.045v12.72a7.045,7.045,0,0,1-7.045,7.045" transform="translate(-55.866 -1.985)" fill="#fff"/>
                <path id="Trazado_236774" data-name="Trazado 236774" d="M193.445,32.9c0-.023.335-.016.958-.109a6.741,6.741,0,0,0,2.57-.925,6.946,6.946,0,0,0,3.4-5.813c.016-.962,0-1.992,0-3.066-.007-2.154-.014-4.511-.022-7.04q0-.949,0-1.93a11.542,11.542,0,0,0-.1-1.962,6.366,6.366,0,0,0-.6-1.9,6.477,6.477,0,0,0-1.158-1.691A6.927,6.927,0,0,0,194.829,6.4a11.052,11.052,0,0,0-2.214-.137l-2.3,0-9.585,0a6.874,6.874,0,0,0-6.723,5.437,10.618,10.618,0,0,0-.154,2.255q0,1.141,0,2.258,0,2.234-.006,4.37t-.007,4.158a16.932,16.932,0,0,0,.056,1.971,7.261,7.261,0,0,0,.477,1.822,6.953,6.953,0,0,0,5.174,4.129,21.034,21.034,0,0,0,3.042.121l2.738.014,4.385.031,2.772.033.721.017a1.274,1.274,0,0,1,.246.018,1.273,1.273,0,0,1-.246.018l-.721.018-2.772.033L185.322,33l-2.738.014a21,21,0,0,1-3.085-.1,7.211,7.211,0,0,1-5.4-4.262,7.516,7.516,0,0,1-.507-1.9,17.109,17.109,0,0,1-.066-2.008q0-2.022-.007-4.158t-.005-4.37q0-1.117,0-2.258a10.9,10.9,0,0,1,.157-2.327,7.216,7.216,0,0,1,7.062-5.718l9.585,0,2.3,0a11.362,11.362,0,0,1,2.282.149,7.251,7.251,0,0,1,3.827,2.17,6.775,6.775,0,0,1,1.206,1.774,6.659,6.659,0,0,1,.619,1.994,11.843,11.843,0,0,1,.093,2.011q0,.98,0,1.93c-.007,2.529-.015,4.886-.022,7.04-.008,1.077,0,2.1-.022,3.073a7.082,7.082,0,0,1-3.551,5.925,6.572,6.572,0,0,1-2.63.877,5.279,5.279,0,0,1-.968.038" transform="translate(-55.784 -1.901)" fill="#263238"/>
                <path id="Trazado_236775" data-name="Trazado 236775" d="M192.02,22.716a3.293,3.293,0,0,0,1.962-3.046,3.095,3.095,0,1,0-6.176-.028,3.289,3.289,0,0,0,1.968,3.075c-4.752.716-4.536,5.881-4.536,5.881l11.238.052s.256-5.222-4.455-5.933" transform="translate(-59.555 -5.26)" fill="#455a64"/>
                <path id="Trazado_236776" data-name="Trazado 236776" d="M196.483,28.658h-.016l-11.254-.052V28.59a7.4,7.4,0,0,1,.487-2.679,5.2,5.2,0,0,1,1.341-1.995A5.091,5.091,0,0,1,189.7,22.7a3.293,3.293,0,0,1-1.924-3.067A3.4,3.4,0,0,1,188.7,17.3a2.988,2.988,0,0,1,2.185-.959h.014a3.219,3.219,0,0,1,3.092,3.325,3.3,3.3,0,0,1-1.918,3.038,4.958,4.958,0,0,1,2.634,1.222,5.194,5.194,0,0,1,1.315,2.013,7.609,7.609,0,0,1,.462,2.707Zm-11.237-.085,11.205.052a7.589,7.589,0,0,0-.461-2.677,5.13,5.13,0,0,0-1.306-2,4.939,4.939,0,0,0-2.674-1.223l-.06-.009.056-.024a3.264,3.264,0,0,0,1.952-3.03,3.184,3.184,0,0,0-3.058-3.291h-.014a2.955,2.955,0,0,0-2.161.949,3.364,3.364,0,0,0-.909,2.312,3.253,3.253,0,0,0,1.957,3.059l.056.024-.06.009a5.074,5.074,0,0,0-2.7,1.217,5.166,5.166,0,0,0-1.333,1.981,7.409,7.409,0,0,0-.486,2.65" transform="translate(-59.547 -5.253)" fill="#263238"/>
                <path id="Trazado_236777" data-name="Trazado 236777" d="M401.131,215.114H384.7a7.045,7.045,0,0,1-7.045-7.045V191.637a7.045,7.045,0,0,1,7.045-7.045h16.431a7.045,7.045,0,0,1,7.045,7.045v16.431a7.045,7.045,0,0,1-7.045,7.045" transform="translate(-121.418 -59.348)" fill="#fff"/>
                <path id="Trazado_236778" data-name="Trazado 236778" d="M401.049,215.03c0-.03.388,0,1.106-.131a7.086,7.086,0,0,0,2.908-1.214,7,7,0,0,0,2.732-4.068,12.841,12.841,0,0,0,.188-3.126q-.006-1.682-.013-3.549c-.007-2.489-.014-5.214-.022-8.139q0-1.1,0-2.231a11.765,11.765,0,0,0-.123-2.267,6.878,6.878,0,0,0-2.308-3.985,6.964,6.964,0,0,0-4.541-1.643l-5.269,0-11.081,0a6.882,6.882,0,0,0-6.875,6.887c0,3.58-.007,7.033-.01,10.323q0,2.467-.007,4.807a16.305,16.305,0,0,0,.076,2.277,6.44,6.44,0,0,0,.643,2.075,6.953,6.953,0,0,0,2.811,2.965,7.157,7.157,0,0,0,3.686.886l11.785.056,3.2.033.833.017a1.692,1.692,0,0,1,.284.018,1.69,1.69,0,0,1-.284.018l-.833.017-3.2.033-11.785.056a7.405,7.405,0,0,1-3.819-.9,7.219,7.219,0,0,1-2.94-3.072,6.724,6.724,0,0,1-.68-2.163,16.571,16.571,0,0,1-.088-2.32q0-2.338-.007-4.807c0-3.291-.007-6.744-.01-10.323a7.226,7.226,0,0,1,7.221-7.24l11.081,0,5.269,0a7.3,7.3,0,0,1,4.753,1.734,7.19,7.19,0,0,1,2.4,4.177,12.072,12.072,0,0,1,.119,2.323q0,1.134,0,2.231c-.007,2.924-.015,5.649-.022,8.139q-.006,1.866-.012,3.549a12.916,12.916,0,0,1-.22,3.172,7.113,7.113,0,0,1-2.844,4.134,6.953,6.953,0,0,1-2.976,1.172,5.1,5.1,0,0,1-.833.065,1.668,1.668,0,0,1-.284,0" transform="translate(-121.336 -59.264)" fill="#263238"/>
                <path id="Trazado_236779" data-name="Trazado 236779" d="M195.792,205.029H179.36a7.045,7.045,0,0,1-7.045-7.045V181.552a7.045,7.045,0,0,1,7.045-7.045h16.431a7.045,7.045,0,0,1,7.045,7.045v16.431a7.045,7.045,0,0,1-7.045,7.045" transform="translate(-55.4 -56.105)" fill="#fff"/>
                <path id="Trazado_236780" data-name="Trazado 236780" d="M195.71,204.945c0-.03.388,0,1.106-.131a7.085,7.085,0,0,0,2.908-1.214,7,7,0,0,0,2.732-4.068,12.841,12.841,0,0,0,.188-3.126q-.006-1.682-.013-3.549c-.007-2.489-.014-5.214-.022-8.139q0-1.1,0-2.231a11.76,11.76,0,0,0-.123-2.267,6.882,6.882,0,0,0-2.308-3.985,6.964,6.964,0,0,0-4.541-1.643l-5.269,0-11.081,0a6.882,6.882,0,0,0-6.875,6.887c0,3.58-.007,7.033-.01,10.323q0,2.467-.007,4.807a16.3,16.3,0,0,0,.076,2.277,6.441,6.441,0,0,0,.643,2.076,6.953,6.953,0,0,0,2.811,2.965,7.157,7.157,0,0,0,3.686.886l11.785.056,3.2.033.833.017a1.7,1.7,0,0,1,.284.018,1.687,1.687,0,0,1-.284.018l-.833.018-3.2.033-11.785.056a7.4,7.4,0,0,1-3.819-.9,7.219,7.219,0,0,1-2.94-3.072,6.725,6.725,0,0,1-.68-2.163,16.463,16.463,0,0,1-.088-2.32q0-2.338-.007-4.807c0-3.291-.007-6.744-.01-10.323a7.226,7.226,0,0,1,7.221-7.24l11.081,0,5.269,0a7.3,7.3,0,0,1,4.753,1.734,7.19,7.19,0,0,1,2.4,4.177,12.069,12.069,0,0,1,.119,2.323q0,1.134,0,2.231c-.007,2.924-.015,5.649-.022,8.139q-.006,1.866-.012,3.549a12.915,12.915,0,0,1-.221,3.172,7.113,7.113,0,0,1-2.844,4.134,6.954,6.954,0,0,1-2.976,1.172,5.1,5.1,0,0,1-.833.065,1.662,1.662,0,0,1-.284,0" transform="translate(-55.318 -56.022)" fill="#263238"/>
                <path id="Trazado_236781" data-name="Trazado 236781" d="M193.1,193.339a3.748,3.748,0,0,0,2.234-3.468,3.523,3.523,0,1,0-7.031-.033,3.742,3.742,0,0,0,2.24,3.5c-5.41.815-5.165,6.7-5.165,6.7l12.794.058s.292-5.944-5.071-6.754" transform="translate(-59.6 -59.834)" fill="#a3314f"/>
                <path id="Trazado_236782" data-name="Trazado 236782" d="M256.688,41.863a7.54,7.54,0,1,1,7.181-5.225,7.5,7.5,0,0,1-7.181,5.225m.01-13.723a6.183,6.183,0,1,0,1.894.3,6.193,6.193,0,0,0-1.894-.3" transform="translate(-80.105 -8.611)" fill="#263238"/>
                <path id="Trazado_236783" data-name="Trazado 236783" d="M271.989,52.148a.677.677,0,0,1-.5-.22l-5.6-6.1a.679.679,0,1,1,1-.917l5.6,6.1a.679.679,0,0,1-.5,1.137" transform="translate(-85.427 -14.368)" fill="#263238"/>
                <path id="Trazado_236784" data-name="Trazado 236784" d="M398.911,142.336a12.575,12.575,0,1,1,12.575-12.575,12.589,12.589,0,0,1-12.575,12.575m0-24.472a11.9,11.9,0,1,0,11.9,11.9,11.91,11.91,0,0,0-11.9-11.9" transform="translate(-124.21 -37.676)" fill="#a3314f"/>
                <path id="Trazado_236785" data-name="Trazado 236785" d="M401.384,142.31a11.761,11.761,0,0,1-3.224-2.968,14.861,14.861,0,0,1-2.943-9.821,15.415,15.415,0,0,1,3.445-9.564,11.108,11.108,0,0,1,3.228-2.72l.3.609c-.059.029-5.975,3.059-6.294,11.7s5.758,12.137,5.819,12.171Z" transform="translate(-127.061 -37.692)" fill="#a3314f"/>
                <path id="Trazado_236786" data-name="Trazado 236786" d="M404.767,142.3l-.357-.577c.059-.037,5.944-3.789,5.625-12.437s-5.982-11.412-6.039-11.439l.288-.613c.249.117,6.1,2.96,6.429,12.028s-5.884,13-5.946,13.04" transform="translate(-129.888 -37.691)" fill="#a3314f"/>
                <path id="Trazado_236787" data-name="Trazado 236787" d="M400.266,128.083a16.214,16.214,0,0,1-10.232-3.18l.417-.535a15.551,15.551,0,0,0,9.815,3.036,14.5,14.5,0,0,0,9.433-3.021l.429.526a15.173,15.173,0,0,1-9.863,3.173" transform="translate(-125.399 -39.985)" fill="#a3314f"/>
                <path id="Trazado_236788" data-name="Trazado 236788" d="M409.74,144.8a15.876,15.876,0,0,0-9.82-2.946,14.8,14.8,0,0,0-9.437,2.931l-.421-.532a15.47,15.47,0,0,1,9.859-3.078,16.539,16.539,0,0,1,10.229,3.084Z" transform="translate(-125.408 -45.39)" fill="#a3314f"/>
                <rect id="Rectángulo_51372" data-name="Rectángulo 51372" width="24.185" height="0.678" transform="translate(262.77 91.782)" fill="#a3314f"/>
                <rect id="Rectángulo_51373" data-name="Rectángulo 51373" width="17.206" height="17.206" transform="translate(217.232 187.524)" fill="#e0e0e0"/>
                <rect id="Rectángulo_51374" data-name="Rectángulo 51374" width="17.72" height="1.472" transform="translate(238.776 188.569)" fill="#e0e0e0"/>
                <rect id="Rectángulo_51375" data-name="Rectángulo 51375" width="17.72" height="1.472" transform="translate(238.776 191.972)" fill="#e0e0e0"/>
                <rect id="Rectángulo_51376" data-name="Rectángulo 51376" width="17.72" height="1.472" transform="translate(238.776 195.375)" fill="#e0e0e0"/>
                <rect id="Rectángulo_51377" data-name="Rectángulo 51377" width="17.72" height="1.472" transform="translate(238.776 198.778)" fill="#e0e0e0"/>
                <rect id="Rectángulo_51378" data-name="Rectángulo 51378" width="17.72" height="1.472" transform="translate(238.776 202.181)" fill="#e0e0e0"/>
                <path id="Trazado_236789" data-name="Trazado 236789" d="M360.5,264.053H313.5v-6.79a4.716,4.716,0,0,1,4.716-4.716h37.492a4.784,4.784,0,0,1,4.784,4.784Z" transform="translate(-100.794 -81.196)" fill="#e0e0e0"/>
                <path id="Trazado_236790" data-name="Trazado 236790" d="M356.028,293.814a5.094,5.094,0,0,0,1.661-.366,4.4,4.4,0,0,0,1.641-1.219,4.286,4.286,0,0,0,1-2.565c-.01-4.29-.025-10.477-.044-18.118-.006-3.825-.014-8.016-.022-12.513q0-.844,0-1.7a5.021,5.021,0,0,0-.188-1.667,4.289,4.289,0,0,0-3.8-3.029c-.584-.032-1.212-.008-1.823-.014l-3.745,0-32.91.014a4.288,4.288,0,0,0-2.014.494,4.242,4.242,0,0,0-1.514,1.4,4.112,4.112,0,0,0-.657,1.936c-.033.688-.01,1.421-.017,2.125q0,4.265,0,8.4c0,5.5-.007,10.815-.01,15.873q0,1.9,0,3.746,0,.924,0,1.836a8.9,8.9,0,0,0,.085,1.774,4.322,4.322,0,0,0,3.418,3.371,8.937,8.937,0,0,0,1.669.08l12.514.022,18.12.056,4.927.033,1.282.018c.288.006.436.018.436.018s-.148.012-.436.018l-1.282.017-4.927.033-18.12.056-12.514.022a9.191,9.191,0,0,1-1.724-.081,4.62,4.62,0,0,1-3.667-3.6,9.124,9.124,0,0,1-.1-1.836q0-.912,0-1.836,0-1.848,0-3.746c0-5.058-.007-10.369-.01-15.873q0-4.13,0-8.4c.007-.716-.018-1.41.017-2.152a4.473,4.473,0,0,1,.712-2.1,4.5,4.5,0,0,1,3.825-2.05l32.91.014,3.745,0c.621.008,1.217-.016,1.846.019a4.6,4.6,0,0,1,4.064,3.255,5.323,5.323,0,0,1,.2,1.755q0,.857,0,1.7c-.008,4.5-.015,8.687-.021,12.513-.022,7.653-.023,13.84-.069,18.125a4.415,4.415,0,0,1-2.753,3.842,4.467,4.467,0,0,1-1.25.3c-.29.009-.438,0-.438,0" transform="translate(-100.71 -81.112)" fill="#263238"/>
                <path id="Trazado_236791" data-name="Trazado 236791" d="M350.048,251.609a1.977,1.977,0,1,1-1.977-1.977,1.978,1.978,0,0,1,1.977,1.977" transform="translate(-111.272 -80.258)" fill="#263238"/>
                <path id="Trazado_236792" data-name="Trazado 236792" d="M389.118,209.132a9.826,9.826,0,0,0,15.116-8.725,7.013,7.013,0,0,0,1.723-1.789,6.907,6.907,0,0,1-1.984.543,3.456,3.456,0,0,0,1.518-1.911,6.905,6.905,0,0,1-2.193.839,3.458,3.458,0,0,0-5.888,3.152,9.806,9.806,0,0,1-7.121-3.61,3.459,3.459,0,0,0,1.069,4.613,3.44,3.44,0,0,1-1.565-.432,3.46,3.46,0,0,0,2.771,3.432,3.455,3.455,0,0,1-1.56.058,3.458,3.458,0,0,0,3.228,2.4,6.946,6.946,0,0,1-5.115,1.43" transform="translate(-125.104 -63.337)" fill="#455a64"/>
                <path id="Trazado_236793" data-name="Trazado 236793" d="M346.828,59.665c1.042,3.635-1.326,7.193-5.051,7.193h-19.6a4.81,4.81,0,0,1-4.582-6.634,5.183,5.183,0,0,1,5.622-3.053,8.9,8.9,0,0,1,17.222-1.894s5.049-.274,6.385,4.388" transform="translate(-101.996 -15.864)" fill="#a3314f"/>
                <path id="Trazado_236794" data-name="Trazado 236794" d="M334.826,73.066V65.543h-2.947a.426.426,0,0,1-.347-.672l4.851-6.845a.425.425,0,0,1,.694,0l4.846,6.791a.426.426,0,0,1-.347.673h-2.868v7.577Z" transform="translate(-106.564 -18.598)" fill="#fff"/>
              </g>
            </g>
            <g id="Grupo_165372" data-name="Grupo 165372">
              <g id="Grupo_165371" data-name="Grupo 165371" clip-path="url(#clip-path-3)">
                <path id="Trazado_236795" data-name="Trazado 236795" d="M316.464,212.352l-8.856-31.173H230.192L220.1,212.248a2.908,2.908,0,0,0,2.734,3.822H258.2l1.432-1.432h16.7l1.432,1.432H313.7a2.906,2.906,0,0,0,2.766-3.717" transform="translate(-70.718 -58.25)" fill="#e0e0e0"/>
                <g id="Grupo_165367" data-name="Grupo 165367" transform="translate(149.241 122.929)" opacity="0.3">
                  <g id="Grupo_165366" data-name="Grupo 165366">
                    <g id="Grupo_165365" data-name="Grupo 165365" clip-path="url(#clip-path-7)">
                      <path id="Trazado_236796" data-name="Trazado 236796" d="M316.464,212.352l-8.856-31.173H230.192L220.1,212.248a2.908,2.908,0,0,0,2.734,3.822H258.2l1.432-1.432h16.7l1.432,1.432H313.7a2.906,2.906,0,0,0,2.766-3.717" transform="translate(-219.959 -181.179)"/>
                    </g>
                  </g>
                </g>
                <path id="Trazado_236797" data-name="Trazado 236797" d="M234.991,156.768v-45.74a3.273,3.273,0,0,1,3.264-3.283h71.139a3.273,3.273,0,0,1,3.264,3.283v45.74Z" transform="translate(-75.551 -34.641)" fill="#e0e0e0"/>
                <rect id="Rectángulo_51381" data-name="Rectángulo 51381" width="68.275" height="40.673" transform="translate(164.136 77.629)" fill="#fff"/>
                <path id="Trazado_236798" data-name="Trazado 236798" d="M310.1,155s-.009-.256-.015-.739-.008-1.206-.015-2.137c-.008-1.878-.02-4.626-.035-8.151-.018-7.05-.042-17.2-.073-29.646l.137.137-68.27.039h0l.176-.176c0,14.405-.009,28.156-.013,40.673l-.164-.164,49.105.08,14.1.045,3.761.02.973.01c.22,0,.337.01.337.01s-.1.007-.317.009l-.955.01-3.728.02-14.062.045-49.214.079h-.164V155c0-12.517-.008-26.268-.013-40.673v-.176h.182l68.27.039h.138v.137c-.031,12.482-.055,22.66-.073,29.731-.015,3.512-.026,6.25-.035,8.121q-.01,1.38-.015,2.111c-.005.474-.015.71-.015.71" transform="translate(-77.693 -36.701)" fill="#263238"/>
                <path id="Trazado_236799" data-name="Trazado 236799" d="M292.888,110.669a1.259,1.259,0,1,1-1.259-1.235,1.247,1.247,0,0,1,1.259,1.235" transform="translate(-93.356 -35.184)" fill="#263238"/>
                <path id="Trazado_236800" data-name="Trazado 236800" d="M316.464,210.653l-8.856-31.173H230.192L220.1,210.549a2.908,2.908,0,0,0,2.734,3.822H258.2l1.432-1.432h16.7l1.432,1.432H313.7a2.906,2.906,0,0,0,2.766-3.717" transform="translate(-70.718 -57.704)" fill="#e0e0e0"/>
                <path id="Trazado_236801" data-name="Trazado 236801" d="M305.76,182.319l-67.47-.227a1.567,1.567,0,0,0-1.523.94l-5.409,15.343c-.294.835.465,1.668,1.518,1.668h78.072c1.048,0,1.806-.828,1.521-1.66l-5.2-15.116a1.567,1.567,0,0,0-1.513-.949" transform="translate(-74.363 -58.544)" fill="#ebebeb"/>
                <g id="Grupo_165370" data-name="Grupo 165370" transform="translate(182.14 143.27)" opacity="0.1">
                  <g id="Grupo_165369" data-name="Grupo 165369">
                    <g id="Grupo_165368" data-name="Grupo 165368" clip-path="url(#clip-path-8)">
                      <path id="Trazado_236802" data-name="Trazado 236802" d="M296.75,221.1H270.119a1.794,1.794,0,0,1-1.616-2.284l1.5-6.3a1.7,1.7,0,0,1,1.616-1.363h23.789a1.708,1.708,0,0,1,1.626,1.411l1.337,6.3a1.791,1.791,0,0,1-1.626,2.236" transform="translate(-268.448 -211.159)"/>
                    </g>
                  </g>
                </g>
                <path id="Trazado_236803" data-name="Trazado 236803" d="M307.283,187.879l-.693-3.211a.479.479,0,0,0-.468-.378h-4.154a.479.479,0,0,0-.474.547l.459,3.217a.479.479,0,0,0,.475.411l4.388-.006a.479.479,0,0,0,.467-.58" transform="translate(-96.931 -59.25)" fill="#263238"/>
                <path id="Trazado_236804" data-name="Trazado 236804" d="M288.976,187.953l-.3-3.228a.48.48,0,0,0-.478-.436h-4.245a.479.479,0,0,0-.478.5l.119,3.234a.479.479,0,0,0,.48.461l4.421-.006a.479.479,0,0,0,.477-.522" transform="translate(-91.141 -59.25)" fill="#263238"/>
                <path id="Trazado_236805" data-name="Trazado 236805" d="M298.3,187.92l-.459-3.219a.479.479,0,0,0-.474-.411h-4.884a.479.479,0,0,0-.477.522l.3,3.226a.479.479,0,0,0,.478.436l5.047-.007a.479.479,0,0,0,.474-.547" transform="translate(-93.882 -59.25)" fill="#263238"/>
                <path id="Trazado_236806" data-name="Trazado 236806" d="M253.035,188.007l.656-2.932a.644.644,0,0,0-.628-.785h-4.023a.644.644,0,0,0-.619.467l-.839,2.937a.645.645,0,0,0,.621.822l4.206-.006a.644.644,0,0,0,.628-.5" transform="translate(-79.591 -59.25)" fill="#263238"/>
                <path id="Trazado_236807" data-name="Trazado 236807" d="M337.255,187.777l-1.222-3.18a.479.479,0,0,0-.447-.307h-7.894a.479.479,0,0,0-.449.646l1.187,3.192a.479.479,0,0,0,.45.311l7.929-.011a.479.479,0,0,0,.446-.651" transform="translate(-105.201 -59.25)" fill="#263238"/>
                <path id="Trazado_236808" data-name="Trazado 236808" d="M279.447,184.29h-4.591a.479.479,0,0,0-.478.456l-.157,3.243a.478.478,0,0,0,.479.5l4.866-.006a.479.479,0,0,0,.478-.5l-.119-3.236a.478.478,0,0,0-.478-.461" transform="translate(-88.164 -59.25)" fill="#263238"/>
                <path id="Trazado_236809" data-name="Trazado 236809" d="M244.562,184.29h-3.2a.644.644,0,0,0-.607.427l-1.057,2.945a.644.644,0,0,0,.608.862l3.417,0a.643.643,0,0,0,.619-.467l.841-2.941a.644.644,0,0,0-.619-.821" transform="translate(-77.052 -59.25)" fill="#263238"/>
                <path id="Trazado_236810" data-name="Trazado 236810" d="M261.853,188.085l.425-3.253a.478.478,0,0,0-.474-.541h-4.085a.48.48,0,0,0-.467.375l-.729,3.259a.479.479,0,0,0,.468.584l4.388-.007a.479.479,0,0,0,.474-.417" transform="translate(-82.47 -59.25)" fill="#263238"/>
                <path id="Trazado_236811" data-name="Trazado 236811" d="M265.688,184.707l-.425,3.251a.479.479,0,0,0,.476.541l4.545-.006a.479.479,0,0,0,.478-.456l.157-3.245a.48.48,0,0,0-.478-.5h-4.277a.479.479,0,0,0-.475.417" transform="translate(-85.283 -59.25)" fill="#263238"/>
                <path id="Trazado_236812" data-name="Trazado 236812" d="M316.238,187.834l-.949-3.2a.479.479,0,0,0-.459-.343H310.4a.479.479,0,0,0-.468.58l.693,3.208a.479.479,0,0,0,.469.378l4.684-.006a.479.479,0,0,0,.459-.615" transform="translate(-99.642 -59.25)" fill="#263238"/>
                <path id="Trazado_236813" data-name="Trazado 236813" d="M324.989,187.8,323.8,184.6a.478.478,0,0,0-.448-.311h-4.066a.479.479,0,0,0-.459.615l.949,3.2a.479.479,0,0,0,.46.343l4.306-.006a.479.479,0,0,0,.448-.646" transform="translate(-102.498 -59.251)" fill="#263238"/>
                <path id="Trazado_236814" data-name="Trazado 236814" d="M279.514,191.547H274.5a.479.479,0,0,0-.478.456l-.161,3.346a.479.479,0,0,0,.479.5l5.294-.007a.479.479,0,0,0,.478-.5l-.123-3.339a.478.478,0,0,0-.478-.461" transform="translate(-88.049 -61.583)" fill="#263238"/>
                <path id="Trazado_236815" data-name="Trazado 236815" d="M327.553,195.158l-1.226-3.292a.479.479,0,0,0-.448-.312H321.44a.479.479,0,0,0-.459.615l.978,3.3a.48.48,0,0,0,.46.343l4.686-.006a.479.479,0,0,0,.449-.646" transform="translate(-103.191 -61.586)" fill="#263238"/>
                <path id="Trazado_236816" data-name="Trazado 236816" d="M318.233,195.2l-.979-3.3a.479.479,0,0,0-.459-.343H311.97a.479.479,0,0,0-.468.58l.714,3.308a.479.479,0,0,0,.469.378l5.089-.006a.479.479,0,0,0,.459-.615" transform="translate(-100.146 -61.585)" fill="#263238"/>
                <path id="Trazado_236817" data-name="Trazado 236817" d="M264.771,195.859l4.959-.007a.478.478,0,0,0,.478-.455l.161-3.349a.48.48,0,0,0-.478-.5h-4.682a.478.478,0,0,0-.475.417l-.438,3.356a.479.479,0,0,0,.476.541" transform="translate(-84.971 -61.583)" fill="#263238"/>
                <path id="Trazado_236818" data-name="Trazado 236818" d="M284.349,195.842l4.7-.006a.479.479,0,0,0,.476-.522l-.305-3.33a.48.48,0,0,0-.477-.436h-4.515a.478.478,0,0,0-.478.5l.123,3.337a.479.479,0,0,0,.479.461" transform="translate(-91.226 -61.584)" fill="#263238"/>
                <path id="Trazado_236819" data-name="Trazado 236819" d="M292.673,192.071l.305,3.327a.479.479,0,0,0,.478.436l5.3-.007a.479.479,0,0,0,.474-.546l-.474-3.32a.479.479,0,0,0-.474-.411H293.15a.479.479,0,0,0-.477.522" transform="translate(-94.096 -61.584)" fill="#263238"/>
                <path id="Trazado_236820" data-name="Trazado 236820" d="M308.7,195.24l-.715-3.311a.479.479,0,0,0-.468-.377H303a.479.479,0,0,0-.474.546l.474,3.318a.478.478,0,0,0,.475.411l4.756-.006a.479.479,0,0,0,.467-.58" transform="translate(-97.263 -61.585)" fill="#263238"/>
                <path id="Trazado_236821" data-name="Trazado 236821" d="M248.769,191.543h-10a.48.48,0,0,0-.447.307l-1.3,3.382a.479.479,0,0,0,.447.651l10.551-.014a.478.478,0,0,0,.467-.374l.754-3.367a.479.479,0,0,0-.467-.583" transform="translate(-76.192 -61.582)" fill="#263238"/>
                <path id="Trazado_236822" data-name="Trazado 236822" d="M255.333,195.867l4.857-.006a.479.479,0,0,0,.474-.417l.439-3.358a.479.479,0,0,0-.475-.541h-4.543a.479.479,0,0,0-.467.375l-.753,3.365a.479.479,0,0,0,.468.583" transform="translate(-81.937 -61.583)" fill="#263238"/>
                <path id="Trazado_236823" data-name="Trazado 236823" d="M338.744,195.8l3.126,0a.479.479,0,0,0,.444-.657L341,191.856a.479.479,0,0,0-.444-.3h-2.875a.479.479,0,0,0-.455.626l1.065,3.283a.479.479,0,0,0,.456.331" transform="translate(-108.412 -61.586)" fill="#263238"/>
                <path id="Trazado_236824" data-name="Trazado 236824" d="M335.245,195.171l-1.065-3.285a.478.478,0,0,0-.455-.331h-3.33a.48.48,0,0,0-.449.647l1.225,3.289a.479.479,0,0,0,.449.312l3.171,0a.479.479,0,0,0,.455-.627" transform="translate(-106.07 -61.586)" fill="#263238"/>
                <path id="Trazado_236825" data-name="Trazado 236825" d="M263.975,203.879l4.916.008a.721.721,0,0,0,.721-.687l.169-3.495a.722.722,0,0,0-.721-.756h-4.629a.721.721,0,0,0-.715.628l-.455,3.486a.721.721,0,0,0,.714.815" transform="translate(-84.638 -63.964)" fill="#263238"/>
                <path id="Trazado_236826" data-name="Trazado 236826" d="M341.1,198.95h-7.55a.721.721,0,0,0-.676.973l1.327,3.565a.721.721,0,0,0,.674.47l7.617.012a.721.721,0,0,0,.674-.983l-1.395-3.578a.721.721,0,0,0-.672-.459" transform="translate(-107.005 -63.964)" fill="#263238"/>
                <path id="Trazado_236827" data-name="Trazado 236827" d="M253.883,199.514l-.778,3.475a.721.721,0,0,0,.7.879l4.863.008a.721.721,0,0,0,.716-.628l.455-3.483a.722.722,0,0,0-.715-.815h-4.541a.721.721,0,0,0-.7.564" transform="translate(-81.369 -63.964)" fill="#263238"/>
                <path id="Trazado_236828" data-name="Trazado 236828" d="M244.033,199.48l-1.026,3.589a.622.622,0,0,0,.6.793l4.967.008a.623.623,0,0,0,.609-.486l.819-3.66a.622.622,0,0,0-.615-.758l-4.76.062a.622.622,0,0,0-.59.451" transform="translate(-78.121 -63.969)" fill="#263238"/>
                <path id="Trazado_236829" data-name="Trazado 236829" d="M313.19,199.823l.765,3.543a.721.721,0,0,0,.7.569l5.036.008a.721.721,0,0,0,.693-.926l-1.053-3.551a.721.721,0,0,0-.691-.516H313.9a.721.721,0,0,0-.7.873" transform="translate(-100.687 -63.964)" fill="#263238"/>
                <path id="Trazado_236830" data-name="Trazado 236830" d="M273.649,199.637l-.169,3.5a.721.721,0,0,0,.719.756l25.633.042a.722.722,0,0,0,.706-.874l-.765-3.539a.721.721,0,0,0-.7-.569h-24.7a.722.722,0,0,0-.721.687" transform="translate(-87.925 -63.964)" fill="#263238"/>
                <path id="Trazado_236831" data-name="Trazado 236831" d="M235.6,199.325l-1.381,3.753a.572.572,0,0,0,.536.769l4.165.007a.572.572,0,0,0,.551-.415l1.074-3.76a.572.572,0,0,0-.55-.729h-3.859a.572.572,0,0,0-.537.375" transform="translate(-75.292 -63.964)" fill="#263238"/>
                <path id="Trazado_236832" data-name="Trazado 236832" d="M323.3,199.876l1.054,3.555a.72.72,0,0,0,.69.516l4.6.007a.721.721,0,0,0,.677-.972L329,199.42a.722.722,0,0,0-.676-.47H324a.721.721,0,0,0-.691.926" transform="translate(-103.935 -63.964)" fill="#263238"/>
                <path id="Trazado_236833" data-name="Trazado 236833" d="M312.813,179.568c0,.1-17.355.176-38.759.176s-38.762-.079-38.762-.176,17.351-.176,38.762-.176,38.759.079,38.759.176" transform="translate(-75.648 -57.676)" fill="#263238"/>
                <path id="Trazado_236834" data-name="Trazado 236834" d="M267.211,129.4a10.366,10.366,0,0,1,2.339-1.461l.145-2.553,4.173-.7.969,2.367a10.365,10.365,0,0,1,2.688.619l1.907-1.7,3.445,2.457-.987,2.357a10.344,10.344,0,0,1,1.461,2.34l2.553.145.7,4.173-2.366.97a10.4,10.4,0,0,1-.619,2.688l1.7,1.907-2.456,3.445-2.358-.987a10.363,10.363,0,0,1-2.339,1.461l-.145,2.554-4.173.7-.97-2.367a10.371,10.371,0,0,1-2.688-.619l-1.907,1.7-3.445-2.456.988-2.358a10.366,10.366,0,0,1-1.461-2.339l-2.553-.145-.7-4.173,2.367-.97a10.36,10.36,0,0,1,.619-2.688l-1.7-1.908,2.457-3.445Zm3.063,5.24a4.539,4.539,0,1,0,6.33-1.06,4.539,4.539,0,0,0-6.33,1.06" transform="translate(-83.95 -40.088)" fill="#f5f5f5"/>
                <path id="Trazado_236835" data-name="Trazado 236835" d="M302.033,145.785a7.034,7.034,0,0,1,1.584-.989l.1-1.729,2.825-.473.656,1.6a7.044,7.044,0,0,1,1.82.419l1.291-1.152,2.332,1.663-.668,1.6a7.021,7.021,0,0,1,.989,1.584l1.728.1.474,2.825-1.6.656a6.985,6.985,0,0,1-.419,1.82L314.293,155l-1.663,2.332-1.6-.668a7.024,7.024,0,0,1-1.584.989l-.1,1.728-2.825.474-.657-1.6a7.013,7.013,0,0,1-1.82-.419l-1.291,1.153-2.332-1.664.668-1.6a7.024,7.024,0,0,1-.989-1.584l-1.729-.1-.473-2.825,1.6-.657a7.012,7.012,0,0,1,.419-1.82l-1.152-1.291,1.663-2.332Zm2.074,3.548a3.073,3.073,0,1,0,4.286-.718,3.073,3.073,0,0,0-4.286.718" transform="translate(-95.778 -45.845)" fill="#f5f5f5"/>
                <path id="Trazado_236836" data-name="Trazado 236836" d="M300.3,121.609a6.226,6.226,0,0,1,1.4-.875l.087-1.531,2.5-.419.581,1.419a6.207,6.207,0,0,1,1.611.371l1.143-1.02,2.064,1.472-.592,1.413a6.219,6.219,0,0,1,.876,1.4l1.53.087.419,2.5-1.418.581a6.2,6.2,0,0,1-.371,1.611l1.02,1.143-1.472,2.065-1.413-.592a6.216,6.216,0,0,1-1.4.875l-.087,1.53-2.5.419-.581-1.419a6.206,6.206,0,0,1-1.611-.371l-1.143,1.02-2.064-1.472.592-1.413a6.2,6.2,0,0,1-.876-1.4l-1.53-.087-.419-2.5,1.418-.581a6.2,6.2,0,0,1,.371-1.61l-1.02-1.143,1.472-2.065Zm1.836,3.141a2.72,2.72,0,1,0,3.794-.636,2.72,2.72,0,0,0-3.794.636" transform="translate(-95.375 -38.19)" fill="#f5f5f5"/>
              </g>
            </g>
            <g id="Grupo_165374" data-name="Grupo 165374">
              <g id="Grupo_165373" data-name="Grupo 165373" clip-path="url(#clip-path-3)">
                <path id="Trazado_236837" data-name="Trazado 236837" d="M70.856,120.836c-3.1-1.906-3.909-6.42-2.292-9.681s5.123-5.278,8.708-5.91a16.755,16.755,0,0,1,14.5,4.572c2.014,2.013,3.659,4.654,6.362,5.55,2.375.788,4.979.007,7.466.292a11.259,11.259,0,0,1,7.968,5.57,24.306,24.306,0,0,1,2.944,9.548c.406,3.052.694,6.4,2.848,8.6,2.1,2.146,5.374,2.559,7.97,4.07a10.826,10.826,0,0,1,3.432,14.739c-1,1.5-2.438,2.884-2.53,4.684-.084,1.642,1,3.087,1.518,4.648a7.308,7.308,0,0,1-6.119,9.165c-2.132.154-4.431-.645-6.329.337s-2.56,3.277-3.749,5.036a9.139,9.139,0,0,1-11.1,3.04c-1.58-.747-3.081-2-4.823-1.853s-3.088,1.649-4.795,2.006c-2.236.466-4.389-1.154-5.75-2.989s-2.321-4.005-4.05-5.5c-2.263-1.955-5.409-2.4-8.25-3.332A23.134,23.134,0,0,1,61.25,141.222" transform="translate(-18.935 -33.76)" fill="#263238"/>
                <path id="Trazado_236838" data-name="Trazado 236838" d="M124.751,185.962a6.278,6.278,0,0,1,2.47-1.677l-.191-.009a3.666,3.666,0,0,1,.533-.1,2.479,2.479,0,0,1,1.952.212H129.5a4.614,4.614,0,0,1,2.555,2.159,5.461,5.461,0,0,1-.561,5.636,4.173,4.173,0,0,1-7.679-1.322,5.181,5.181,0,0,1,.938-4.9" transform="translate(-39.73 -59.181)" fill="#455a64"/>
                <path id="Trazado_236839" data-name="Trazado 236839" d="M64.407,202.588l-4.142-59.895a5.091,5.091,0,0,1,4.327-5.353l26.689-7.981c8.6-1.286,14.8,9.107,15.725,17.755,1.022,9.609,1.89,21.38,1.058,28.618-1.673,14.554-13.542,16.928-13.542,16.928-.006-.05.129,14.794.293,20.049l3.541,16.246Z" transform="translate(-19.372 -41.555)" fill="#ffc09d"/>
                <path id="Trazado_236840" data-name="Trazado 236840" d="M119.675,173.164a1.855,1.855,0,0,1-1.707,1.947,1.776,1.776,0,0,1-1.983-1.59,1.857,1.857,0,0,1,1.705-1.948,1.776,1.776,0,0,1,1.985,1.59" transform="translate(-37.288 -55.159)" fill="#263238"/>
                <path id="Trazado_236841" data-name="Trazado 236841" d="M122.181,162.485c-.219.252-1.668-.727-3.663-.636-1.994.062-3.414,1.151-3.641.917-.111-.1.1-.55.722-1.041a5.091,5.091,0,0,1,2.9-1.033,4.9,4.9,0,0,1,2.928.808c.634.444.86.873.752.986" transform="translate(-36.925 -51.662)" fill="#263238"/>
                <path id="Trazado_236842" data-name="Trazado 236842" d="M93.2,174.063A1.855,1.855,0,0,1,91.5,176.01a1.775,1.775,0,0,1-1.983-1.589,1.857,1.857,0,0,1,1.705-1.949,1.776,1.776,0,0,1,1.985,1.59" transform="translate(-28.777 -55.448)" fill="#263238"/>
                <path id="Trazado_236843" data-name="Trazado 236843" d="M93.3,164.278c-.22.252-1.671-.727-3.665-.636-1.993.062-3.414,1.151-3.64.917-.111-.1.1-.55.722-1.042a5.091,5.091,0,0,1,2.9-1.033,4.893,4.893,0,0,1,2.929.808c.632.444.86.873.752.986" transform="translate(-27.641 -52.239)" fill="#263238"/>
                <path id="Trazado_236844" data-name="Trazado 236844" d="M107.607,178.617a13.193,13.193,0,0,1,3.215-.724c.508-.075.985-.2,1.056-.548a2.593,2.593,0,0,0-.4-1.495q-.8-1.819-1.674-3.814c-2.329-5.433-4.04-9.908-3.82-10s2.287,4.237,4.616,9.67q.843,2.01,1.611,3.84a2.95,2.95,0,0,1,.35,1.988,1.281,1.281,0,0,1-.805.781,3.444,3.444,0,0,1-.86.157,12.963,12.963,0,0,1-3.284.146" transform="translate(-34.067 -52.095)" fill="#263238"/>
                <path id="Trazado_236845" data-name="Trazado 236845" d="M101.768,219.185A34.733,34.733,0,0,1,83.056,214.8s4.343,10.7,18.753,8.72Z" transform="translate(-26.703 -69.059)" fill="#ff9b6c"/>
                <path id="Trazado_236846" data-name="Trazado 236846" d="M104.906,192.546a4.912,4.912,0,0,0-4.133-1.97,3.2,3.2,0,0,0-2.563,1.541,2.932,2.932,0,0,0,3.474,4.247,7.285,7.285,0,0,0,2.859-1.943,2.266,2.266,0,0,0,.6-.773,1.019,1.019,0,0,0-.121-1.009" transform="translate(-31.457 -61.267)" fill="#ff9b6c"/>
                <path id="Trazado_236847" data-name="Trazado 236847" d="M99.689,188.882c.324-.033.421,2.132,2.341,3.589s4.214,1.12,4.244,1.421c.036.135-.5.443-1.469.512a5.4,5.4,0,0,1-3.538-1.065,4.7,4.7,0,0,1-1.824-3.015c-.121-.9.1-1.449.246-1.442" transform="translate(-31.96 -60.727)" fill="#263238"/>
                <path id="Trazado_236848" data-name="Trazado 236848" d="M93.26,152.336c-.173.551-2.176.379-4.5.763-2.337.336-4.194,1.1-4.526.629-.148-.227.159-.751.9-1.309a7.941,7.941,0,0,1,6.879-1.06c.874.309,1.324.717,1.251.978" transform="translate(-27.069 -48.547)" fill="#263238"/>
                <path id="Trazado_236849" data-name="Trazado 236849" d="M120.958,152.352c-.331.468-1.726.058-3.379.106-1.656-.009-3.039.436-3.382-.024-.151-.225.05-.687.643-1.143a4.894,4.894,0,0,1,5.448-.066c.6.44.816.9.67,1.126" transform="translate(-36.7 -48.364)" fill="#263238"/>
                <path id="Trazado_236850" data-name="Trazado 236850" d="M122.083,139.095a9.931,9.931,0,0,0-3.895-5.417,36.883,36.883,0,0,1-3.247-1.826c-2.115-1.657-2.641-4.586-3.966-6.923a10.924,10.924,0,0,0-8.4-5.4c-2.871-.251-5.811.652-8.614-.012-2.072-.49-3.9-1.8-5.993-2.171-4.085-.714-7.829,2.264-10.74,5.218.032,2.916,2.384,4.832,4.647,6.671a10.112,10.112,0,0,0,8.22,2.041c2.219-.439,4.642-1.6,6.586-.442,2.044,1.218,2.173,4.27,3.992,5.8,2.6,2.191,6.653.04,9.927.959,2.529.71,4.137,3.093,5.839,5.093s4.235,3.888,6.742,3.1a29.566,29.566,0,0,0-1.1-6.7" transform="translate(-24.829 -37.694)" fill="#263238"/>
                <path id="Trazado_236851" data-name="Trazado 236851" d="M75.156,127.844c-1.834-.5-5.588-1.624-6.591-3.193-2.177-3.409-5.962-5.7-9.791-5.438a9.213,9.213,0,0,0-8.188,7.4,13.25,13.25,0,0,0-11.279,7.5,13.894,13.894,0,0,0-.7,1.71,10.079,10.079,0,0,0-.55,8.472c.656,1.64,1.759,3.46.934,5.021-.841,1.589-3.023,1.67-4.713,2.281a6.693,6.693,0,0,0-4.106,7.537c.252,1.094.792,2.181.58,3.284-.221,1.147-1.189,1.969-1.927,2.874a8.33,8.33,0,0,0,5.082,13.485c1.3.217,2.711.142,3.845.818,1.3.775,1.888,2.318,2.816,3.515a7.184,7.184,0,0,0,7.82,2.324,6.558,6.558,0,0,0,1.553-.809,5.158,5.158,0,0,0,4.6,1.957l-.982-30.485a2.525,2.525,0,0,0,1.869,1.421c4.91,1.035,5.478-9.06,4.346-11.778A28.446,28.446,0,0,0,64.61,140.5c1.322-2.017,2.432-7.48,2.108-9.927,1.765.077,9.243-2.514,8.438-2.732" transform="translate(-8.67 -38.321)" fill="#263238"/>
                <path id="Trazado_236852" data-name="Trazado 236852" d="M63.9,175.8c-.2-3.1-4-3.7-6.666-2.112-1.462.874-2.565,2.6-2.382,5.893.49,8.77,9.193,6.469,9.194,6.217,0-.157.088-6.371-.146-10" transform="translate(-17.63 -55.569)" fill="#ffc09d"/>
                <path id="Trazado_236853" data-name="Trazado 236853" d="M62.248,184.021c-.04-.026-.147.115-.4.248a1.53,1.53,0,0,1-1.141.088c-.946-.288-1.808-1.716-1.938-3.294a5.046,5.046,0,0,1,.305-2.211,1.766,1.766,0,0,1,1.084-1.237.778.778,0,0,1,.925.368c.132.239.085.417.133.429.026.02.18-.157.089-.516a.974.974,0,0,0-.376-.53,1.155,1.155,0,0,0-.857-.176,2.151,2.151,0,0,0-1.52,1.449,5.192,5.192,0,0,0-.394,2.474c.155,1.764,1.152,3.367,2.44,3.663a1.639,1.639,0,0,0,1.384-.309c.26-.232.3-.431.264-.445" transform="translate(-18.693 -56.962)" fill="#ff9b6c"/>
                <path id="Trazado_236854" data-name="Trazado 236854" d="M70.476,128.71a5.238,5.238,0,0,0-1.729,1.491c-.852,1.208-1.145,3.5-.557,6.077l.05.221-.215.057a8.483,8.483,0,0,0-5.58,5.063,6.594,6.594,0,0,0-.423,2.147,12.9,12.9,0,0,0,.309,2.314,17.414,17.414,0,0,1,.37,2.492,4.124,4.124,0,0,1-.657,2.6c-1.067,1.677-2.809,2.519-4.305,3.334a14.756,14.756,0,0,0-4.035,2.728,10.969,10.969,0,0,0-3.17,7.4,11.449,11.449,0,0,0,1.236,5.406c.6,1.189,1.1,1.754,1.05,1.791-.017.014-.147-.12-.381-.389a9.349,9.349,0,0,1-.88-1.288A11.139,11.139,0,0,1,50.1,164.63a11.289,11.289,0,0,1,3.2-7.794,15.117,15.117,0,0,1,4.159-2.865c1.5-.814,3.137-1.648,4.065-3.128.953-1.345.493-3.079.214-4.647a13.334,13.334,0,0,1-.306-2.431,7.132,7.132,0,0,1,.479-2.349,8.891,8.891,0,0,1,6-5.3l-.165.277c-.559-2.7-.183-5.076.792-6.336a3.693,3.693,0,0,1,1.356-1.139,2.152,2.152,0,0,1,.581-.206" transform="translate(-16.106 -41.38)" fill="#455a64"/>
                <path id="Trazado_236855" data-name="Trazado 236855" d="M58.876,191.283a6.275,6.275,0,0,1,2.47-1.677l-.191-.009a3.664,3.664,0,0,1,.533-.1,2.476,2.476,0,0,1,1.952.212h-.018a4.611,4.611,0,0,1,2.555,2.159,5.461,5.461,0,0,1-.561,5.636,4.174,4.174,0,0,1-7.679-1.322,5.181,5.181,0,0,1,.938-4.9" transform="translate(-18.55 -60.892)" fill="#455a64"/>
                <path id="Trazado_236856" data-name="Trazado 236856" d="M246.864,278.431l5.978-2.292s1.63-5.214,2.715-6.745,6.857-6.218,7.2-6.345,4.13-8.631,5.858-8.355,2.92,1.49,2.436,3.8-4.312,6.91-3.251,7.676a7.756,7.756,0,0,0,2.787,1.042s.47-2.651,1.925-3.509,3.113.566,3.113.566l.044,1.143L277.1,264.1s1.511-5.324,3.8-5.3a9.317,9.317,0,0,1,2.26-3.038,1.971,1.971,0,0,1,3.037.887l-4.112,12.064L270.78,281.168s-5.3,2.037-6.651,2.662-7.481,4.868-10.194,5.775-5.864,2.288-5.864,2.288Z" transform="translate(-79.368 -81.884)" fill="#ffc09d"/>
                <path id="Trazado_236857" data-name="Trazado 236857" d="M265.072,284.1a6.868,6.868,0,0,0-2.146-.22,9.929,9.929,0,0,0-5.119,1.125,6.221,6.221,0,0,0-2.121,2.044,9.734,9.734,0,0,0-1.012,2.146,6.4,6.4,0,0,0-.492,2.1,10.563,10.563,0,0,0,.874-1.955,7.659,7.659,0,0,1,3.043-3.836,10.986,10.986,0,0,1,4.837-1.216,9.524,9.524,0,0,0,2.136-.191" transform="translate(-81.716 -91.27)" fill="#ff9b6c"/>
                <path id="Trazado_236858" data-name="Trazado 236858" d="M276.389,271.515c.089-.128-.528-.687-1.489-.972s-1.782-.162-1.778-.007.742.3,1.612.562,1.567.556,1.656.417" transform="translate(-87.81 -86.926)" fill="#ff9b6c"/>
                <path id="Trazado_236859" data-name="Trazado 236859" d="M294.642,270.6a12.287,12.287,0,0,1,.264-2.617c.236-1.627.6-3.9,1.056-6.516l.17.341c-.4-.183-.881-.47-1.238-.583a1.581,1.581,0,0,0-1.206.154,3.483,3.483,0,0,0-1.4,1.689,12.552,12.552,0,0,0-.741,2.086c-.327,1.394-.545,2.69-.746,3.767a21.568,21.568,0,0,1-.732,3.487,17.4,17.4,0,0,1,.273-3.558c.144-1.093.312-2.39.615-3.834a12.29,12.29,0,0,1,.746-2.218,4.04,4.04,0,0,1,1.679-2,2.227,2.227,0,0,1,1.688-.2,12.026,12.026,0,0,1,1.343.64l.215.1-.045.241c-.487,2.606-.936,4.868-1.281,6.475a12.266,12.266,0,0,1-.665,2.545" transform="translate(-93.25 -83.757)" fill="#ff9b6c"/>
                <path id="Trazado_236860" data-name="Trazado 236860" d="M274.925,283.091c-.028-.006-.01-.183.052-.518a7.146,7.146,0,0,1,.486-1.384,17.657,17.657,0,0,1,2.967-4.325l-.064.109c.782-2.316.071-5.669,2.169-8.664a2.748,2.748,0,0,1,2.179-.969,4.032,4.032,0,0,1,2.111.74l.151.1-.023.187c-.421,3.389-.81,6.317-1.111,8.393a5.451,5.451,0,0,1-.761,2.362c-.294.5-.506.739-.535.719a4.34,4.34,0,0,1,.343-.816,5.933,5.933,0,0,0,.558-2.333c.191-2.089.5-5.017.877-8.394l.128.289a3.46,3.46,0,0,0-1.757-.6,2.1,2.1,0,0,0-1.67.756,4.968,4.968,0,0,0-.977,2.028,19.19,19.19,0,0,0-.472,2.217c-.126.737-.159,1.416-.246,2.145a12.883,12.883,0,0,1-.442,2l-.019.061-.045.048a20.232,20.232,0,0,0-3.079,4.087c-.609,1.077-.746,1.78-.82,1.762" transform="translate(-88.386 -85.95)" fill="#ff9b6c"/>
                <path id="Trazado_236861" data-name="Trazado 236861" d="M60.7,232.735c.36-.52,2.759-5.153,2.759-5.153l13.609,11.73S90.4,250.485,90.4,249.762l2.128-10.747,2.622-9.778,4.895,7.4s15.377,30.147,15.377,30.509,9.517,31.564,9.517,31.564l-2.048,12.65-.241,44.816-28.672-1.2-5.662-9.035-9.759-57.466Z" transform="translate(-19.514 -73.169)" fill="#fff"/>
                <path id="Trazado_236862" data-name="Trazado 236862" d="M107.918,404.034h30.548l4.84,20.531H96.328Z" transform="translate(-30.97 -129.9)" fill="#263238"/>
                <path id="Trazado_236863" data-name="Trazado 236863" d="M86.144,340.536c-.961-14.719-.559-42.487-6.193-56.974S51.7,233.481,51.7,233.481l-5.552,8.632-14.556,5.463,19.748,80.05S43.733,345.535,40.111,356c-1.082,3.127-2.543,8.436-4.144,13.733H85.942c.442-11.642.656-22.242.2-29.195" transform="translate(-10.157 -75.066)" fill="#a3314f"/>
                <path id="Trazado_236864" data-name="Trazado 236864" d="M216.482,270.534l-38.523,21.415-26.7-38.1q-.108-.148-.23-.309c-3.037-4.021-6.023-8.447-10.939-9.552l-.744-.168,1.429,45.6S159.76,310.349,170.4,319c3.169,2.576,11.2.967,15.028-1.145C200.763,309.4,226.95,287.7,226.95,287.7Z" transform="translate(-44.802 -78.391)" fill="#a3314f"/>
                <path id="Trazado_236865" data-name="Trazado 236865" d="M143.464,327.26s2.806-21.767,3.726-27.233c4.817-28.609-16.4-60.239-16.4-60.239l-9.7-1.6-8.369-6.912,3.7,10.327s12.157,34.01,14.571,44.876,3.622,44.266,4,43.462c.221-.474,1.684,20.165,3.52,39.085h20.594Z" transform="translate(-36.239 -74.355)" fill="#a3314f"/>
                <path id="Trazado_236866" data-name="Trazado 236866" d="M145.632,306.3a3.971,3.971,0,0,1,.007-.709q.041-.759.109-2.021.042-.664.091-1.458,0-.805,0-1.738c0-1.246.03-2.666-.092-4.232a88.157,88.157,0,0,0-4.766-23.96,82.7,82.7,0,0,0-3.865-9.512l-.005-.01,0-.008a81.7,81.7,0,0,0-4.461-8.694c-1.473-2.56-2.831-4.789-3.969-6.634l-2.689-4.3-.716-1.151a2.232,2.232,0,0,1-.227-.41,2.081,2.081,0,0,1,.292.368l.778,1.111c.669.976,1.628,2.411,2.8,4.236s2.561,4.04,4.062,6.592a78.347,78.347,0,0,1,4.545,8.716l-.008-.018a80.362,80.362,0,0,1,3.912,9.566,84.7,84.7,0,0,1,4.652,24.1c.1,1.573.05,3,.022,4.251-.015.622-.029,1.2-.042,1.743q-.072.795-.132,1.46c-.083.841-.149,1.512-.2,2.018a3.981,3.981,0,0,1-.1.7" transform="translate(-40.204 -77.63)" fill="#263238"/>
                <path id="Trazado_236867" data-name="Trazado 236867" d="M95.39,258.433a2.11,2.11,0,0,1-.541-.237l-1.469-.776L88.2,254.553l.3-.153c-.253,2.329-.681,5.049-1.109,7.947-.173,1.181-.335,2.331-.469,3.432l-.052.425-.325-.276c-2.771-2.358-5.18-4.433-6.888-5.929l-1.992-1.774a4.34,4.34,0,0,1-.684-.683,4.434,4.434,0,0,1,.788.561l2.08,1.669c1.759,1.434,4.207,3.464,6.993,5.8l-.377.149c.128-1.109.286-2.264.46-3.446.43-2.9.879-5.617,1.169-7.927l.039-.309.265.157,5.1,3.013,1.413.873a2.093,2.093,0,0,1,.479.347" transform="translate(-24.75 -81.677)" fill="#263238"/>
                <path id="Trazado_236868" data-name="Trazado 236868" d="M112.143,240.92a6.162,6.162,0,0,1,.042,1.227c-.016.88-.036,2-.06,3.338-.071,2.818-.2,6.71-.375,11.007,0,.106-.008.211-.012.313l-.031.751-.4-.634-5.15-8.118.322-.039c-.568,1.563-1.043,2.869-1.41,3.878a8.45,8.45,0,0,1-.589,1.408,8.6,8.6,0,0,1,.4-1.473l1.261-3.929.115-.359.208.32,5.242,8.06-.433.117c0-.1.009-.208.013-.313.174-4.3.357-8.186.513-11,.084-1.335.154-2.453.21-3.332a6.135,6.135,0,0,1,.14-1.219" transform="translate(-33.589 -77.457)" fill="#263238"/>
                <path id="Trazado_236869" data-name="Trazado 236869" d="M23.749,254.255a21.759,21.759,0,0,0-3.38,2.6,23.015,23.015,0,0,0-5.887,9.274c-1.374,3.925-2.736,8.755-3.527,11.8L7.272,333.8a32.88,32.88,0,0,0,2.349,14.542l11.41,28.068h24.6L32.352,338.856,36.9,297.429Z" transform="translate(-2.315 -81.745)" fill="#a3314f"/>
                <path id="Trazado_236870" data-name="Trazado 236870" d="M53.926,244.833l5.411,16.229H65.1l-3.741,2.381,29.584,56.542" transform="translate(-17.338 -78.715)" fill="#a3314f"/>
                <path id="Trazado_236871" data-name="Trazado 236871" d="M90.944,319.985a.85.85,0,0,1-.13-.2l-.341-.6-1.27-2.332-4.593-8.616-15-28.511c-3.011-5.769-5.873-11.254-8.446-16.184l-.092-.176.168-.107,3.747-2.371.11.378-5.765-.021H59.2l-.041-.126L55.288,249.25l-1.035-3.263L54,245.132a1.315,1.315,0,0,1-.071-.3,1.334,1.334,0,0,1,.123.281c.079.218.181.494.308.839l1.13,3.232L59.511,261l-.174-.126,5.765-.02.7,0-.594.381-3.735,2.391.076-.284,8.48,16.166,14.873,28.575,4.46,8.686c.5,1,.9,1.8,1.191,2.373l.3.623a.9.9,0,0,1,.088.22" transform="translate(-17.337 -78.715)" fill="#263238"/>
                <path id="Trazado_236872" data-name="Trazado 236872" d="M37.841,265.914a36.083,36.083,0,0,1,7.983,30.705" transform="translate(-12.166 -85.493)" fill="#a3314f"/>
                <path id="Trazado_236873" data-name="Trazado 236873" d="M45.823,296.619c-.1-.018.309-1.82.48-4.775a37.556,37.556,0,0,0-.076-5.187,40.92,40.92,0,0,0-1.068-6.255,41,41,0,0,0-2.114-5.985,37.577,37.577,0,0,0-2.46-4.567c-1.588-2.5-2.819-3.874-2.745-3.937a6.72,6.72,0,0,1,.89.94,14.022,14.022,0,0,1,.959,1.178c.353.476.78,1,1.175,1.636a33.974,33.974,0,0,1,2.576,4.568,38.372,38.372,0,0,1,2.175,6.047,38.363,38.363,0,0,1,1.045,6.339,33.978,33.978,0,0,1-.024,5.244c-.036.746-.153,1.413-.23,2a14.038,14.038,0,0,1-.264,1.5,6.781,6.781,0,0,1-.32,1.255" transform="translate(-12.165 -85.493)" fill="#263238"/>
                <path id="Trazado_236874" data-name="Trazado 236874" d="M57.462,396.868a.881.881,0,0,1-.085-.187l-.217-.56c-.191-.518-.459-1.244-.8-2.168l-2.89-8.009c-2.419-6.8-5.753-16.172-9.451-26.569L44,359.335l0-.04c.032-.289.066-.6.1-.915,1.248-11.176,2.376-21.292,3.2-28.642.424-3.645.768-6.6,1.009-8.675.124-1,.223-1.794.292-2.356l.085-.612a.967.967,0,0,1,.041-.208.939.939,0,0,1-.005.211c-.013.158-.029.362-.05.616-.054.565-.13,1.356-.227,2.364-.214,2.075-.52,5.038-.9,8.687L44.46,358.419c-.035.313-.069.626-.1.915l-.009-.078c3.658,10.411,6.957,19.8,9.35,26.6l2.786,8.046c.315.934.563,1.667.74,2.191l.184.572a.894.894,0,0,1,.052.2" transform="translate(-14.148 -102.203)" fill="#263238"/>
                <path id="Trazado_236875" data-name="Trazado 236875" d="M148.881,265.208a54.64,54.64,0,0,1,3.994,7.6c.573,1.2,1.048,2.576,1.63,4.025.489,1.482,1.075,3.048,1.518,4.748.51,1.681.9,3.483,1.324,5.347l.525,2.867c.18.97.283,1.968.43,2.97a95.892,95.892,0,0,1,.275,20.7l-.4,3.558c-.111,1.048-.28,1.94-.383,2.675q-.17,1.062-.27,1.686a3.722,3.722,0,0,1-.118.584,3.755,3.755,0,0,1,.048-.594q.075-.627.2-1.694c.083-.736.231-1.631.324-2.679s.218-2.243.346-3.557a100.9,100.9,0,0,0-.376-20.638c-.147-1-.248-1.991-.427-2.957l-.517-2.855c-.417-1.856-.8-3.651-1.3-5.328-.432-1.695-1.006-3.257-1.48-4.737-.567-1.447-1.027-2.824-1.583-4.025l-.75-1.732c-.242-.545-.5-1.043-.73-1.517-.46-.945-.849-1.763-1.218-2.406l-.806-1.5a3.817,3.817,0,0,1-.261-.537" transform="translate(-47.866 -85.266)" fill="#263238"/>
                <path id="Trazado_236876" data-name="Trazado 236876" d="M196.1,326.548a6.378,6.378,0,0,1-.708-1.672,16.741,16.741,0,0,1-.384-8.688,6.367,6.367,0,0,1,.558-1.728,16.726,16.726,0,0,1-.313,1.776,20.048,20.048,0,0,0,.379,8.57,16.642,16.642,0,0,1,.468,1.742" transform="translate(-62.569 -101.101)" fill="#263238"/>
              </g>
            </g>
          </g>
        </g>
      </g>
    </g>
  </g>
</svg>
