<svg xmlns="http://www.w3.org/2000/svg" xmlns:xlink="http://www.w3.org/1999/xlink" width="343" height="381" viewBox="0 0 343 381"><defs><filter id="a" x="0" y="0" width="343" height="381" filterUnits="userSpaceOnUse"><feOffset dy="6" input="SourceAlpha"/><feGaussianBlur stdDeviation="8" result="b"/><feFlood flood-opacity="0.161"/><feComposite operator="in" in2="b"/><feComposite in="SourceGraphic"/></filter></defs><g transform="translate(-155.948 -2586.999)"><g transform="matrix(1, 0, 0, 1, 155.95, 2587)" filter="url(#a)"><path d="M280,333H15A15,15,0,0,1,0,318V79.712c.155,0,.324.006.5.006a21.2,21.2,0,0,0,8.368-1.7,21.418,21.418,0,0,0,6.834-4.65,21.636,21.636,0,0,0,4.607-6.9,21.95,21.95,0,0,0,0-16.889,21.636,21.636,0,0,0-4.607-6.9,21.419,21.419,0,0,0-6.834-4.65A21.2,21.2,0,0,0,.5,36.327c-.164,0-.332,0-.5.006V15A15,15,0,0,1,15,0H280a15,15,0,0,1,15,15V318a15,15,0,0,1-15,15Z" transform="translate(24 18)" fill="#e2e2e2"/></g></g></svg>