<svg xmlns="http://www.w3.org/2000/svg" xmlns:xlink="http://www.w3.org/1999/xlink" width="343" height="381" viewBox="0 0 343 381"><defs><filter id="a" x="0" y="0" width="343" height="381" filterUnits="userSpaceOnUse"><feOffset dy="6" input="SourceAlpha"/><feGaussianBlur stdDeviation="8" result="b"/><feFlood flood-opacity="0.161"/><feComposite operator="in" in2="b"/><feComposite in="SourceGraphic"/></filter></defs><g transform="translate(-785.948 -2586.999)"><g transform="matrix(1, 0, 0, 1, 785.95, 2587)" filter="url(#a)"><path d="M280,333H15A15,15,0,0,1,0,318V79.712c.155,0,.324.006.5.006a21.2,21.2,0,0,0,8.368-1.7,21.418,21.418,0,0,0,6.834-4.65,21.636,21.636,0,0,0,4.607-6.9,21.95,21.95,0,0,0,0-16.889,21.636,21.636,0,0,0-4.607-6.9,21.419,21.419,0,0,0-6.834-4.65A21.2,21.2,0,0,0,.5,36.327c-.164,0-.332,0-.5.006V15A15,15,0,0,1,15,0H280a15,15,0,0,1,15,15V318a15,15,0,0,1-15,15Z" transform="translate(24 18)" fill="#6e2034"/></g><path d="M39.209-19.07q0,9.3-4.955,14.561T21.173.749q-8.2,0-13.153-5.258T3.065-19.07V-32.829q0-9.3,4.919-14.561T21.1-52.647q8.127,0,13.117,5.275t4.99,14.543ZM27.2-33.648q0-4.741-1.622-7.236a5.069,5.069,0,0,0-4.473-2.5,4.974,4.974,0,0,0-4.456,2.5q-1.568,2.5-1.568,7.236v15.327q0,4.848,1.586,7.325a5.053,5.053,0,0,0,4.509,2.477A4.993,4.993,0,0,0,25.611-11Q27.2-13.474,27.2-18.321ZM74.647,0H38.575V-7.842L54.543-25.379a34.484,34.484,0,0,0,4.705-6.487,11.03,11.03,0,0,0,1.5-4.955,7.686,7.686,0,0,0-1.354-4.794,5.136,5.136,0,0,0-4.349-1.764,4.968,4.968,0,0,0-4.366,2.3,10.275,10.275,0,0,0-1.551,5.864h-11.8l-.071-.214A16.158,16.158,0,0,1,42-47.639q4.919-5.008,13.046-5.008,8.519,0,13.153,4.188t4.634,11.531a15.192,15.192,0,0,1-2.566,8.715A108.862,108.862,0,0,1,60.852-17L54.543-9.446l.071.178H74.647Z" transform="translate(1012.948 2923)" fill="#f6f6f6" opacity="0.278"/></g></svg>