<svg xmlns="http://www.w3.org/2000/svg" xmlns:xlink="http://www.w3.org/1999/xlink" width="343" height="381" viewBox="0 0 343 381"><defs><filter id="a" x="0" y="0" width="343" height="381" filterUnits="userSpaceOnUse"><feOffset dy="6" input="SourceAlpha"/><feGaussianBlur stdDeviation="8" result="b"/><feFlood flood-opacity="0.161"/><feComposite operator="in" in2="b"/><feComposite in="SourceGraphic"/></filter></defs><g transform="translate(-1100.948 -2587)"><g transform="matrix(1, 0, 0, 1, 1100.95, 2587)" filter="url(#a)"><path d="M280,333H15A15,15,0,0,1,0,318V79.712c.155,0,.324.006.5.006a21.2,21.2,0,0,0,8.368-1.7,21.418,21.418,0,0,0,6.834-4.65,21.636,21.636,0,0,0,4.607-6.9,21.95,21.95,0,0,0,0-16.889,21.636,21.636,0,0,0-4.607-6.9,21.419,21.419,0,0,0-6.834-4.65A21.2,21.2,0,0,0,.5,36.327c-.164,0-.332,0-.5.006V15A15,15,0,0,1,15,0H280a15,15,0,0,1,15,15V318a15,15,0,0,1-15,15Z" transform="translate(24 18)" fill="#6e2034"/></g><path d="M39.209-19.07q0,9.3-4.955,14.561T21.173.749q-8.2,0-13.153-5.258T3.065-19.07V-32.829q0-9.3,4.919-14.561T21.1-52.647q8.127,0,13.117,5.275t4.99,14.543ZM27.2-33.648q0-4.741-1.622-7.236a5.069,5.069,0,0,0-4.473-2.5,4.974,4.974,0,0,0-4.456,2.5q-1.568,2.5-1.568,7.236v15.327q0,4.848,1.586,7.325a5.053,5.053,0,0,0,4.509,2.477A4.993,4.993,0,0,0,25.611-11Q27.2-13.474,27.2-18.321Zm28.38,2.673a6.752,6.752,0,0,0,4.99-1.747,6.552,6.552,0,0,0,1.747-4.848,5.466,5.466,0,0,0-1.782-4.117,6.7,6.7,0,0,0-4.812-1.693,5.8,5.8,0,0,0-3.867,1.337,4.368,4.368,0,0,0-1.586,3.511H38.575l-.071-.214A11.494,11.494,0,0,1,43.369-48.8a19.853,19.853,0,0,1,12.351-3.85q8.448,0,13.527,3.867t5.079,10.961a10.833,10.833,0,0,1-2.139,6.487,14.605,14.605,0,0,1-5.81,4.669,13.6,13.6,0,0,1,6.487,4.616,12.263,12.263,0,0,1,2.281,7.5,13.221,13.221,0,0,1-5.471,11.21Q64.2.749,55.72.749A21.528,21.528,0,0,1,42.959-3.083q-5.418-3.832-5.24-11.1l.071-.214H49.517a5.584,5.584,0,0,0,1.747,4.206A6.174,6.174,0,0,0,55.72-8.519a7.863,7.863,0,0,0,5.329-1.8,5.674,5.674,0,0,0,2.085-4.473q0-3.778-1.978-5.507a8.209,8.209,0,0,0-5.578-1.729h-5.7v-8.947Z" transform="translate(1327.948 2923)" fill="#f6f6f6" opacity="0.278"/></g></svg>