<svg xmlns="http://www.w3.org/2000/svg" xmlns:xlink="http://www.w3.org/1999/xlink" width="155.183" height="155.183" viewBox="0 0 155.183 155.183"><defs><filter id="a" x="0" y="0" width="155.183" height="155.183" filterUnits="userSpaceOnUse"><feOffset dy="6" input="SourceAlpha"/><feGaussianBlur stdDeviation="5" result="b"/><feFlood flood-opacity="0.329"/><feComposite operator="in" in2="b"/><feComposite in="SourceGraphic"/></filter><clipPath id="c"><rect width="74.379" height="74.379" fill="none"/></clipPath></defs><g transform="translate(-6665.521 -3435)"><g transform="matrix(1, 0, 0, 1, 6665.52, 3435)" filter="url(#a)"><circle cx="62.591" cy="62.591" r="62.591" transform="translate(15 9)" fill="#ffb500"/></g><g transform="translate(6704.333 3469.713)"><g transform="translate(0.35)" clip-path="url(#c)"><path d="M0,28.4V22.971c.054-.041.137-.07.159-.124a3.686,3.686,0,0,1,3.87-2.383q17.845.039,35.69.013h.829c0-.4,0-.744,0-1.082s-.009-.686.026-1.024a1.659,1.659,0,0,1,1.493-1.547c.212-.026.426-.032.692-.051,0-.668-.032-1.3.006-1.929a4,4,0,0,1,4.115-3.9c1.343-.009,2.687,0,4.031,0a4.041,4.041,0,0,1,4.3,4.239c.009.528,0,1.056,0,1.572,1.779.178,2.2.651,2.2,2.4,0,.429,0,.858,0,1.326h.805q6.632,0,13.265,0a3.449,3.449,0,0,1,3.431,2.361,1.768,1.768,0,0,0,.169.278V70.049c-.055.04-.139.069-.16.122-.715,1.791-2.087,2.4-3.944,2.387-7.184-.038-14.368-.015-21.552-.015h-.77v3.666c2.337,0,4.631,0,6.925,0a3.309,3.309,0,1,1,.027,6.6q-4.4.006-8.8,0-13.671,0-27.342,0a3.31,3.31,0,1,1,.027-6.6c1,0,2,0,3.005,0h3.92V72.542h-.842c-6.988,0-13.977-.043-20.965.026-2.072.021-3.7-.441-4.549-2.5-.005-.013-.045-.012-.069-.018V32.357L1.163,31.6c.82.178,1.047.724,1.046,1.511Q2.189,48.394,2.2,63.676v.8H60.55c1.122,0,1.3.125,1.644,1.155-.236.863-.837,1.059-1.673,1.058Q31.861,66.664,3.2,66.676h-1c0,.656,0,1.236,0,1.816,0,1.5.349,1.849,1.855,1.849H68.484c.293,0,.585-.018.878-.028.752.009,1.5.037,2.255.021A1.148,1.148,0,0,0,72.84,69.3a25.133,25.133,0,0,0,.022-2.6H69.656c-1.208-.009-2.417-.034-3.625-.021a1.225,1.225,0,0,1-1.4-1.067c.21-.89.5-1.131,1.394-1.139,1.163-.01,2.327-.016,3.49-.024h3.368v-.863q0-19.525,0-39.05c0-.171.006-.342,0-.513a1.248,1.248,0,0,0-1.318-1.343c-.78-.017-1.562.01-2.342.018H57.415a5.852,5.852,0,0,1-.007.848A3.473,3.473,0,0,1,57.075,25a1.987,1.987,0,0,0-.4,1.34c.016.488-.015.978.008,1.465A1.142,1.142,0,1,1,54.5,27.8c.039-.668.008-1.34.008-2.011H52.3V49.92h2.206v-.889q0-7.912,0-15.823c0-.982.17-1.2,1.077-1.458.913.235,1.095.476,1.1,1.521,0,5.792.011,11.584-.017,17.376A2.565,2.565,0,0,1,56.246,52c-1.784,2.624-3.609,5.22-5.427,7.821-1.074,1.537-2.612,1.535-3.685,0C45.348,57.25,43.547,54.7,41.8,52.1a3.083,3.083,0,0,1-.5-1.613c-.032-7.845-.021-15.69-.023-23.535,0-.74.125-1.489-.5-2.116-.2-.2-.189-.638-.22-.972-.035-.378-.008-.763-.008-1.141a2.212,2.212,0,0,0-.285-.046q-18.328,0-36.657,0a1.255,1.255,0,0,0-1.4,1.405c-.012,1.173-.033,2.347.007,3.519a1.32,1.32,0,0,1-1.046,1.526L0,28.4m49.71-11.61h3.279c0-.692.031-1.3-.007-1.908a1.759,1.759,0,0,0-1.743-1.722c-.656-.029-1.314.012-1.972.021-.341-.011-.682-.014-1.022-.034-3.379-.2-3.368.959-3.284,3.426a.934.934,0,0,0,.068.217Zm2.2,2.247H42.8v4.5H55.172v-4.5Zm-8.8,57.15h3.2V72.566H28.736v3.618Zm10.412,2.254c-.17-.01-.341-.028-.511-.028q-16.744,0-33.487,0a1.969,1.969,0,0,0-.51.029,1.09,1.09,0,0,0,0,2.136,3.025,3.025,0,0,0,.729.032q16.487,0,32.974,0c.268,0,.536-.018.8-.028.753.01,1.507.04,2.26.023a1.095,1.095,0,1,0,0-2.186c-.753-.016-1.506.013-2.26.023M45.647,25.8H43.517V49.94h2.131Zm4.406,0H47.91V49.936h2.143ZM44.507,52.183l4.475,6.426,4.473-6.426Z" transform="translate(-0.336 -9.336)" fill="#010101"/><path d="M0,129.975l1.164.734q0,1.235,0,2.471L0,133.935v-3.96" transform="translate(-0.336 -110.914)" fill="#f8fbfb"/><path d="M7.929,99.9l0-2.471a1.32,1.32,0,0,0,1.046-1.526c-.04-1.172-.02-2.346-.007-3.519a1.255,1.255,0,0,1,1.4-1.405q18.328-.007,36.657,0a2.212,2.212,0,0,1,.285.046c0,.378-.027.762.008,1.141.031.334.02.773.22.972.628.627.5,1.376.5,2.116,0,7.845-.009,15.69.023,23.535a3.083,3.083,0,0,0,.5,1.613c1.744,2.592,3.544,5.146,5.331,7.709,1.073,1.539,2.611,1.541,3.685,0,1.818-2.6,3.643-5.2,5.427-7.821a2.565,2.565,0,0,0,.417-1.352c.027-5.792.02-11.584.017-17.376,0-1.045-.182-1.286-1.1-1.521q0-1.237,0-2.474a1.257,1.257,0,0,0,1.1-1.468c-.023-.487.009-.977-.008-1.465a1.987,1.987,0,0,1,.4-1.34,3.473,3.473,0,0,0,.333-1.453A5.852,5.852,0,0,0,64.181,91H75.99a6.474,6.474,0,0,1,.281,1.328q.023,20.211.013,40.423c-1.163.008-2.327.014-3.49.024-.892.008-1.184.249-1.394,1.139l-2.439.016c-.346-1.03-.522-1.155-1.644-1.155H8.966v-.8q0-15.282.009-30.563c0-.787-.226-1.333-1.046-1.511m26.7,26.157q3.482,0,6.965,0c1.113,0,1.468-.337,1.47-1.424q.01-6.269,0-12.538c0-1.082-.376-1.44-1.471-1.441q-6.965,0-13.93,0c-1.094,0-1.468.359-1.47,1.442q-.01,6.269,0,12.538c0,1.087.356,1.421,1.47,1.423q3.482.006,6.965,0m0-17.893q3.482,0,6.965,0c1.113,0,1.467-.336,1.47-1.424q.013-4.069,0-8.138c0-1.082-.376-1.44-1.471-1.44q-6.965,0-13.929,0c-1.094,0-1.466.359-1.469,1.442q-.012,4.069,0,8.138c0,1.087.356,1.421,1.47,1.423q3.482.006,6.965,0" transform="translate(-7.102 -77.637)" fill="#f6f6f6"/><path d="M75,383.776l2.439-.016a1.225,1.225,0,0,0,1.4,1.067c1.208-.013,2.417.012,3.625.02l-.293,3.61c-.293.01-.585.028-.878.028H16.859c-1.505,0-1.854-.348-1.855-1.849,0-.58,0-1.161,0-1.816h1q28.659,0,57.319.012c.836,0,1.437-.195,1.673-1.058" transform="translate(-13.139 -327.481)" fill="#b0c0d2"/><path d="M472.321,132.751q0-20.211-.012-40.423A6.484,6.484,0,0,0,472.028,91c.781-.008,1.562-.034,2.342-.018a1.248,1.248,0,0,1,1.318,1.343c.007.171,0,.342,0,.513v39.913Z" transform="translate(-403.14 -77.635)" fill="#f3f9ff"/><path d="M159.106,473.162c-.268.01-.536.028-.8.028q-16.487,0-32.974,0a3.025,3.025,0,0,1-.729-.032,1.09,1.09,0,0,1,0-2.136,1.978,1.978,0,0,1,.51-.029q16.744,0,33.487,0c.17,0,.341.018.511.028v2.141" transform="translate(-105.918 -401.92)" fill="#b0c0d2"/><path d="M359.914,115.664q0,1.237,0,2.474c-.906.258-1.076.476-1.077,1.458q0,7.912,0,15.824v.889h-2.206V112.177h2.206c0,.671.031,1.343-.008,2.011a1.245,1.245,0,0,0,1.083,1.477" transform="translate(-304.667 -95.726)" fill="#a3314f"/><rect width="2.131" height="24.136" transform="translate(43.181 16.468)" fill="#a3314f"/><rect width="2.143" height="24.134" transform="translate(47.574 16.465)" fill="#a3314f"/><path d="M210.326,434.778H195.951V431.16h14.375v3.618" transform="translate(-167.55 -367.93)" fill="#b0c0d2"/><path d="M300.978,70.631h-9.11v-4.5h9.11v4.5" transform="translate(-249.401 -56.434)" fill="#ffb500"/><path d="M303.486,292.166h8.948l-4.473,6.426-4.475-6.426" transform="translate(-259.315 -249.32)" fill="#e58f6e"/><path d="M311.214,29.475h-4.679a.939.939,0,0,1-.068-.217c-.084-2.467-.1-3.627,3.284-3.426.34.02.681.023,1.022.034a7.975,7.975,0,0,1,.442,3.609" transform="translate(-261.84 -22.024)" fill="#a3314f"/><path d="M353.986,70.631v-4.5h3.259v4.5Z" transform="translate(-302.409 -56.434)" fill="#ffb500"/><path d="M293.972,434.778V431.16h3.2v3.618Z" transform="translate(-251.196 -367.93)" fill="#727997"/><path d="M472.973,394.786q.147-1.8.294-3.61h3.207a25.14,25.14,0,0,1-.022,2.6,1.148,1.148,0,0,1-1.224,1.029c-.751.017-1.5-.012-2.255-.021" transform="translate(-403.947 -333.81)" fill="#727997"/><path d="M336.4,29.621a7.975,7.975,0,0,0-.442-3.609c.657-.01,1.316-.05,1.972-.021a1.758,1.758,0,0,1,1.742,1.722c.038.606.007,1.217.007,1.908Z" transform="translate(-287.021 -22.171)" fill="#a3314f"/><path d="M364.971,473.18v-2.141c.753-.009,1.507-.039,2.26-.023a1.095,1.095,0,1,1,0,2.186c-.753.017-1.506-.013-2.26-.023" transform="translate(-311.783 -401.937)" fill="#727997"/><path d="M140.886,240.542q-3.482,0-6.965,0c-1.114,0-1.469-.336-1.47-1.423q-.01-6.269,0-12.538c0-1.083.375-1.441,1.469-1.442q6.965,0,13.93,0c1.095,0,1.469.359,1.471,1.441q.01,6.269,0,12.538c0,1.087-.358,1.422-1.47,1.424q-3.482.006-6.965,0M134.7,238.3h12.349V227.4H134.7Z" transform="translate(-113.358 -192.119)" fill="#040809"/><path d="M140.882,144.137q-3.482,0-6.965,0c-1.115,0-1.467-.335-1.471-1.423q-.012-4.069,0-8.138c0-1.083.375-1.441,1.469-1.442q6.965,0,13.929,0c1.095,0,1.468.358,1.471,1.44q.012,4.069,0,8.138c0,1.087-.357,1.422-1.47,1.424q-3.482.006-6.965,0m-6.18-2.258h12.359v-6.506H134.7Z" transform="translate(-113.353 -113.607)" fill="#070806"/><rect width="12.349" height="10.899" transform="translate(21.339 35.277)" fill="#636363"/><rect width="12.359" height="6.506" transform="translate(21.348 21.765)" fill="#ffb500"/></g></g></g></svg>