<svg xmlns="http://www.w3.org/2000/svg" xmlns:xlink="http://www.w3.org/1999/xlink" width="586.165" height="466" viewBox="0 0 586.165 466"><defs><clipPath id="a"><circle cx="233" cy="233" r="233" transform="translate(897.999 3673)" fill="#fff" stroke="#707070" stroke-width="1"/></clipPath></defs><g transform="translate(-812.409 -8434)"><g transform="translate(4.409 4761)" clip-path="url(#a)"><g transform="translate(358.735 3610.899)"><circle cx="240.106" cy="240.106" r="240.106" transform="translate(532.158 62.101)" fill="#ededed"/><g transform="translate(649.23 234.986)"><path d="M651.6,149.8A22.8,22.8,0,0,0,621.68,161.83l-.1.235-5.9,13.824-5.889,13.959c-3.943,9.294-7.882,18.551-11.893,27.685-3.493,7.895-7.018,15.724-10.654,23.286-.283.576-.558,1.139-.839,1.71v.005c-.288.593-.576,1.189-.871,1.785-1.833,3.7-3.668,7.354-5.563,10.829-.383-.976-.751-1.965-1.114-2.967-2.211-6.047-4.252-12.432-6.2-18.962q-.357-1.191-.709-2.4c-.6-2.021-1.189-4.061-1.77-6.107q-2.009-7.121-3.969-14.367l-.8-2.96-.626-2.324-.526-1.953-.989-3.611-.488-1.79c-.158-.571-.338-1.222-.483-1.685l-.406-1.282a16.68,16.68,0,0,0-32.55,4.424l-.088,2.166-.058,2.058c-.03,1.372-.068,2.732-.068,4.089-.02,2.712.025,5.416.088,8.125.155,5.4.451,10.817.919,16.237a247.763,247.763,0,0,0,3.8,27.324q.346,1.728.719,3.468.237,1.089.488,2.178c.659,2.8,1.36,5.634,2.173,8.493.831,2.862,1.745,5.754,2.8,8.713s2.3,5.972,3.768,9.1a71.167,71.167,0,0,0,5.558,9.808l.9,1.292.994,1.32.5.658.558.676,1.132,1.352a49.177,49.177,0,0,0,5.759,5.556l.108.083.2.158.418.318.689.5.163.12c.538.386,1.164.789,1.8,1.169l.045.025a30.141,30.141,0,0,0,4.257,2.128,29.106,29.106,0,0,0,6.24,1.778c.621.113,1.239.193,1.853.263s1.2.113,1.785.138a31.868,31.868,0,0,0,8.951-.864,34.9,34.9,0,0,0,6.535-2.329,41.556,41.556,0,0,0,8.18-5.158,56.13,56.13,0,0,0,5.128-4.65l.042-.045c.488-.5.964-1,1.415-1.49A82.3,82.3,0,0,0,612.816,297c.476-.638.939-1.269,1.389-1.9.6-.831,1.172-1.652,1.728-2.471.789-1.159,1.547-2.3,2.279-3.443,1.64-2.556,3.175-5.065,4.615-7.582,2.867-5.02,5.508-9.953,7.955-14.91s4.777-9.87,6.961-14.815q3.305-7.41,6.31-14.835,6.047-14.854,11.167-29.853,2.584-7.5,4.945-15.073c.784-2.529,1.565-5.058,2.3-7.6l1.1-3.838c.381-1.3.706-2.536,1.089-3.944A22.8,22.8,0,0,0,651.6,149.8Z" transform="translate(-529.128 -147.966)" fill="#ced371"/><g transform="translate(4.812 57.098)"><path d="M562.523,173.094c-9.99,13.864-19.255,28.268-26.223,43.91-1.652,3.713-3.172,7.492-4.532,11.337q-.375-1.739-.719-3.468,1.033-2.764,2.178-5.471c7.336-17.447,17.59-33.359,28.669-48.632Z" transform="translate(-531.05 -170.77)" fill="#9ea257"/></g><g transform="translate(28.655 82.855)"><path d="M546.676,203.006a91.58,91.58,0,0,0-4.2,31.053c.4,10.153,2.366,20.176,2.992,30.309-.638-.381-1.264-.784-1.8-1.169l-.163-.12c-.2-2.772-.493-5.534-.814-8.268-1.257-10.736-2.767-21.4-1.815-32.227a94.86,94.86,0,0,1,13.871-41.526q.349,1.206.709,2.4A92.268,92.268,0,0,0,546.676,203.006Z" transform="translate(-540.572 -181.057)" fill="#9ea257"/></g><g transform="translate(44.09 144.137)"><path d="M580.626,217.357c-.451.488-.926.989-1.415,1.49l-.042.045c-2.574-6.109-7.374-12-14.572-11.438-8.338.651-12.569,10.912-14.572,17.74a48.392,48.392,0,0,0-1.435,6.56c-.613-.07-1.232-.15-1.853-.263a48.4,48.4,0,0,1,2.136-8.856c2.266-6.605,6.189-14.85,13.621-16.733,7.3-1.853,14.109,3.548,17.294,9.69C580.088,216.175,580.371,216.761,580.626,217.357Z" transform="translate(-546.737 -205.532)" fill="#9ea257"/></g><g transform="translate(57.28 92.853)"><path d="M581.53,236.862c-.556.819-1.132,1.64-1.728,2.471A70.252,70.252,0,0,0,552,186.765v-.005c.28-.571.556-1.134.839-1.71A72.3,72.3,0,0,1,581.53,236.862Z" transform="translate(-552.005 -185.05)" fill="#9ea257"/></g><g transform="translate(50.253 106.991)"><path d="M562.358,215.676a1.072,1.072,0,0,1-1.052-.789c-2.228-8.215-11.826-22.382-11.923-22.525a1.067,1.067,0,0,1,1.765-1.2c.4.593,9.9,14.6,12.219,23.166a1.07,1.07,0,0,1-.751,1.309A1.148,1.148,0,0,1,562.358,215.676Z" transform="translate(-549.198 -190.697)" fill="#9ea257"/></g><g transform="translate(54.074 112.974)"><path d="M561.164,199.648a1.064,1.064,0,0,1-.721-.26h0c-.028-.025-2.947-2.5-8.944-4.209a1.066,1.066,0,1,1,.584-2.051c6.5,1.853,9.63,4.537,9.76,4.652a1.063,1.063,0,0,1,.1,1.5A1.049,1.049,0,0,1,561.164,199.648Z" transform="translate(-550.724 -193.086)" fill="#9ea257"/></g></g><g transform="translate(661.55 90.101)"><g transform="translate(50.121 130.873)"><path d="M554.76,435.407c2.879,12.662,39.248,26.045,76.993,30.7,35.572,4.382,70.8,2.108,89.124-2.5s9.049-35.885,6.079-60c-2.679-21.778-5.115-38.787-5.115-38.787-5.874-26.27-9.224-39.235-10.669-48.617-.12-.781-.23-1.532-.32-2.266-1.157-8.979-.411-15.113,1.595-28.526,1.775-11.893,6.23-29.065,12.256-46.782.21-.629.423-1.259.648-1.89.551-1.6,1.114-3.217,1.7-4.825.283-.794.576-1.582.866-2.376,2.158-5.879,4.472-11.736,6.9-17.377,10.571-24.635,12.274-52.388-13.148-60.868-16.616-5.541-31.045-8.924-31.045-8.924l-58.45,4.845c-10.306,1.152-18,2.471-23.8,4.181-.653.193-1.292.393-1.9.6-16.583,5.533-16.1,14.97-19.843,34.731-5.093,26.906-19.815,51.739-16.18,64.832.135.473.273.951.431,1.417.183.571.383,1.134.588,1.693,3.533,9.369,10.571,17.474,13.275,20.371.691.739,1.1,1.139,1.1,1.139-.005.055-.012.11-.018.175-.042.438-.1.9-.158,1.382-.23,1.855-.553,4.056-.964,6.552-.6,3.651-1.279,7.329-2.018,10.984-.153.746-.3,1.49-.468,2.236-5.631,26.931-14.219,52.183-15.5,55.044-4.231,18.038-7.977,35.79-10.273,50.568-.093.606-.183,1.214-.273,1.808C554.131,418.519,553.4,429.413,554.76,435.407Z" transform="translate(-554.066 -142.37)" fill="#ced371"/><g transform="translate(13.561 35.812)"><path d="M581.481,158.386c-1.7,11.936-5.8,23.193-10.514,34.233-5.15,12.063-10.514,24.861-8.29,38.254.285,1.718-2.344,2.456-2.629.726-2.1-12.627,1.943-24.793,6.823-36.3,5.186-12.219,10.1-24.407,11.978-37.638.248-1.73,2.877-.994,2.632.726Z" transform="translate(-559.482 -156.673)" fill="#9ea257"/></g><g transform="translate(2.096 7.091)"><g transform="translate(14.715 16.012)"><path d="M560.78,239.1c.183.571.383,1.134.588,1.693,11.13-3.515,20.529-12.639,25.391-23.5,9.267-20.717,4.757-43.757.2-65.042-.243-1.147-2-.656-1.753.483,4.274,19.966,8.6,41.376,1.019,61.124C581.807,225.373,572.315,235.471,560.78,239.1Z" transform="translate(-560.78 -151.597)" fill="#9ea257"/></g><g transform="translate(115.676 81.487)"><path d="M601.542,211.451c3.528,21.706,20.088,41.126,38.895,51.552-.12-.781-.231-1.532-.32-2.266a78.747,78.747,0,0,1-24.135-21.591c-11.347-15.481-21.616-41.867-1.159-54.571,12.755-7.927,26.719-5.431,39.145.854.21-.628.423-1.259.648-1.89a52.5,52.5,0,0,0-17.171-5.5,35.73,35.73,0,0,0-26.386,6.966C602.839,191.478,599.894,201.273,601.542,211.451Z" transform="translate(-601.102 -177.747)" fill="#9ea257"/></g><g transform="translate(0 145.814)"><path d="M554.9,313.094c8.563.546,17.316-3.886,23.579-9.99,17.309-16.873,24.215-43.757,19.219-67.128a74.051,74.051,0,0,0-16.28-32.537c-.153.746-.3,1.49-.468,2.236q1.273,1.536,2.456,3.14a72.359,72.359,0,0,1,11.242,62.644c-3.145,11.1-8.9,21.833-17.111,30.016-5.909,5.887-14.207,10.293-22.364,9.813C555.083,311.892,554.993,312.5,554.9,313.094Z" transform="translate(-554.903 -203.438)" fill="#9ea257"/></g><g transform="translate(108.479 204.015)"><path d="M641.234,228.5a64.107,64.107,0,0,0-37.17,82.509c.4,1.1-1.354,1.575-1.755.483a65.91,65.91,0,0,1,38.442-84.748c1.092-.423,1.565,1.335.483,1.755Z" transform="translate(-598.228 -226.683)" fill="#9ea257"/></g><g transform="translate(60.294 144.157)"><path d="M601.071,204.651c10.276,6.362,19.232,14.635,24.926,25.411,4.509,8.531,9.96,22.595,1.412,30.457-9.7,8.926-23.406,1.3-31.345-6.012-9.029-8.313-17.274-20.992-17.076-33.689.09-5.809,2.486-12.089,7.256-15.667,4.539-3.405,9.93-2.762,14.828-.5,1.059.488.138,2.056-.919,1.567-4.91-2.266-10.221-2.444-14.229,1.62-3.753,3.808-5.333,9.3-5.085,14.542.526,11.064,7.4,21.931,15.108,29.508,7.361,7.234,21.055,16.15,30.494,7.033,7.639-7.379,1.8-20.97-2.4-28.659-5.563-10.183-14.1-17.983-23.892-24.044-.994-.613-.08-2.186.919-1.567Z" transform="translate(-578.984 -202.776)" fill="#9ea257"/></g><g transform="translate(48.949)"><path d="M579.492,187.384c11.3,20.567,36.646,16.45,54.056,6.911a106.057,106.057,0,0,0,44.666-47.708c.5-1.049-1.074-1.976-1.57-.916A104.544,104.544,0,0,1,656.9,174.236c-13.528,13.881-33.774,27.853-54.1,26.253-11.19-.879-19.833-8.042-23.762-18.421-4.229-11.182-2.8-23.361-1.327-34.931-.653.193-1.292.393-1.9.6C574.138,161.011,572.806,175.2,579.492,187.384Z" transform="translate(-574.452 -145.202)" fill="#9ea257"/></g><g transform="translate(65 75.811)"><path d="M594.4,175.525c7.9,1.5,18.8,6.866,20.612,15.639,1.705,8.255-7.557,11.708-14.187,11.31-7.845-.471-17.247-5.4-19.57-13.468-2.258-7.837,5.7-13.841,12.9-13.513,1.164.055,1.172,1.873,0,1.82-7.3-.336-14.207,6.252-10.128,13.568,3.408,6.114,10.914,9.692,17.73,9.81,7.133.125,15.026-4.893,9.933-12.684-3.869-5.922-11.015-9.439-17.777-10.726-1.149-.22-.661-1.973.483-1.755Z" transform="translate(-580.863 -175.48)" fill="#9ea257"/></g></g><g transform="translate(142.094 43.909)"><path d="M633.726,407.613a1.409,1.409,0,0,1-1.4-1.295,656.646,656.646,0,0,0-20.389-118.667c-7.361-27.36,23.969-122.733,25.306-126.78a1.408,1.408,0,0,1,2.674.884c-.326.984-32.4,98.616-25.264,125.165a659.241,659.241,0,0,1,20.479,119.17,1.406,1.406,0,0,1-1.289,1.517C633.8,407.61,633.763,407.613,633.726,407.613Z" transform="translate(-610.816 -159.907)" fill="#9ea257"/></g><g transform="translate(31.074 234.15)"><path d="M599.289,263.6c12.081,0,25.311-2.454,39.358-7.356a183.405,183.405,0,0,0,36.724-17.717,1.44,1.44,0,0,0-1.592-2.4,180.31,180.31,0,0,1-36.14,17.419c-18.9,6.59-46.221,12-69.069.343a1.439,1.439,0,0,0-1.307,2.564C576.6,261.214,587.385,263.6,599.289,263.6Z" transform="translate(-566.476 -235.886)" fill="#9ea257"/></g><g transform="translate(25.543 201.318)"><path d="M592.936,241.926c11.49,3.736,24.831,5.5,39.706,5.175a183.54,183.54,0,0,0,40.4-5.493,1.439,1.439,0,0,0-.774-2.772,180.391,180.391,0,0,1-39.756,5.388c-20.008.423-47.663-2.882-65.789-21.03a1.44,1.44,0,0,0-2.038,2.036C572.1,232.647,581.618,238.246,592.936,241.926Z" transform="translate(-564.267 -222.774)" fill="#9ea257"/></g><g transform="translate(1.127 267.42)"><path d="M666.651,278.134A404.266,404.266,0,0,0,729.76,273.2a1.439,1.439,0,0,0-.5-2.834,402.52,402.52,0,0,1-63.963,4.89c-32.492-.118-77.7-4.695-108.527-25.827a1.439,1.439,0,0,0-1.627,2.374c31.446,21.553,77.281,26.215,110.194,26.333Z" transform="translate(-554.516 -249.174)" fill="#9ea257"/><g transform="translate(159.738 22.788)"><path d="M619.753,290.94a1.439,1.439,0,0,0,1.4-1.114c2.694-11.54,2.739-29.358,2.742-30.111a1.44,1.44,0,0,0-1.44-1.44h0a1.438,1.438,0,0,0-1.44,1.437c0,.18-.048,18.245-2.664,29.46a1.441,1.441,0,0,0,1.074,1.73A1.48,1.48,0,0,0,619.753,290.94Z" transform="translate(-618.313 -258.275)" fill="#9ea257"/></g><g transform="translate(139.229 26.079)"><path d="M611.562,290.786a1.437,1.437,0,0,0,1.4-1.114c2.7-11.553,2.431-27.975,2.419-28.667a1.423,1.423,0,0,0-1.465-1.415,1.44,1.44,0,0,0-1.412,1.465c0,.168.271,16.761-2.344,27.963a1.438,1.438,0,0,0,1.074,1.728A1.347,1.347,0,0,0,611.562,290.786Z" transform="translate(-610.122 -259.589)" fill="#9ea257"/></g><g transform="translate(111.91 27.442)"><path d="M600.653,291.437a1.439,1.439,0,0,0,1.4-1.112c2.694-11.553,2.451-28.078,2.439-28.777a1.439,1.439,0,0,0-2.877.048c0,.168.248,16.871-2.366,28.076a1.439,1.439,0,0,0,1.074,1.728A1.483,1.483,0,0,0,600.653,291.437Z" transform="translate(-599.211 -260.134)" fill="#9ea257"/></g><g transform="translate(86.03 26.08)"><path d="M590.317,290.786a1.441,1.441,0,0,0,1.435-1.352c.734-11.881,2.674-28.071,2.694-28.231a1.439,1.439,0,1,0-2.857-.346c-.02.163-1.97,16.435-2.712,28.4a1.443,1.443,0,0,0,1.347,1.525Z" transform="translate(-588.875 -259.59)" fill="#9ea257"/></g><g transform="translate(60.599 22.788)"><path d="M580.247,289.884l.1,0a1.438,1.438,0,0,0,1.34-1.532c-.661-9.905,2.649-28.193,2.682-28.376a1.439,1.439,0,1,0-2.832-.518c-.14.764-3.408,18.829-2.722,29.087A1.439,1.439,0,0,0,580.247,289.884Z" transform="translate(-578.718 -258.275)" fill="#9ea257"/></g><g transform="translate(32.648 16.397)"><path d="M568.995,287.413a1.439,1.439,0,0,0,1.44-1.437c0-10.716,2.657-28.421,2.684-28.6a1.438,1.438,0,1,0-2.844-.431c-.113.734-2.719,18.1-2.719,29.027A1.438,1.438,0,0,0,568.995,287.413Z" transform="translate(-567.555 -255.722)" fill="#9ea257"/></g><g transform="translate(8.982 8.676)"><path d="M559.54,281.982a1.439,1.439,0,0,0,1.44-1.435c.042-11.52,3.493-25.987,3.528-26.133a1.44,1.44,0,0,0-2.8-.674c-.145.6-3.563,14.943-3.605,26.8a1.441,1.441,0,0,0,1.432,1.445Z" transform="translate(-558.103 -252.639)" fill="#9ea257"/></g></g><g transform="translate(30.678 131.357)"><path d="M567.395,197.458c-.043.438-.1.9-.16,1.385,8.2,1.835,18.769,2.076,31.2-.351,24.5-4.782,44.5,6.52,44.706,6.63a1.208,1.208,0,0,0,.608.165,1.227,1.227,0,0,0,.616-2.294,72.233,72.233,0,0,0-46.4-6.916c-12.885,2.514-23.621,2.118-31.641.068.688.741,1.094,1.139,1.094,1.139Z" transform="translate(-566.318 -194.832)" fill="#9ea257"/></g><g transform="translate(57.564 19.559)"><path d="M596.14,174.808c14.993,0,45.585-21.473,46.879-22.389a1.231,1.231,0,0,0-1.42-2.011c-.311.22-31.246,21.936-45.46,21.936-13.6,0-16.616-14.855-16.643-15.008a1.232,1.232,0,0,0-2.419.466C577.111,157.972,580.529,174.808,596.14,174.808Z" transform="translate(-577.056 -150.182)" fill="#9ea257"/></g></g><g transform="translate(88.644)"><path d="M638.276,102.32s32.963-7.429,45.775,13.606-2.111,53.945-2.111,53.945,1.189,8.558,18.4,15.514,9.2,34.535-8.543,30.662c0,0-6.315,25.316-25.351,11.039s-47.831-10.251-47.831-10.251-10.739,9.152-23.186,2.929-3.661-15.742-3.661-15.742-12.9,5.806-20.511-6.575c-8.077-13.14,13.511-22.958,15.386-29.666,6.81-24.345-2.714-19.177-12.126-32.623-11.5-16.42,10.358-30.024,19.935-17.827,0,0-14.349-14.362,2.151-24.628C611.675,83.32,638.276,102.32,638.276,102.32Z" transform="translate(-569.451 -90.101)" fill="#171612"/></g><g transform="translate(106.142 21.622)"><g transform="translate(6.501 41.522)"><path d="M585.67,115.32s-4.657-.073-6.154,5.726.456,15.942,6.542,15.349S585.67,115.32,585.67,115.32Z" transform="translate(-579.036 -115.32)" fill="#c6695d"/></g><g transform="translate(0 57.89)"><path d="M589.395,147.764a12.954,12.954,0,1,1,12.955-12.952A12.969,12.969,0,0,1,589.395,147.764Zm0-23.564A10.609,10.609,0,1,0,600,134.812,10.621,10.621,0,0,0,589.395,124.2Z" transform="translate(-576.44 -121.857)" fill="#fff"/></g><g transform="translate(20.997 69.222)"><g transform="translate(3.738 19.739)"><line y2="0.005" fill="#eaad8f"/></g><path d="M635.721,167.474s-9.61,14.355-27.117,15.088c-22.242.929-23.779-8.773-23.779-8.773a41.646,41.646,0,0,0,2.669-8.9c.22-1.187.4-2.411.548-3.683a101.037,101.037,0,0,0,.548-11.713c0-1.037-.008-2.116-.028-3.227v-.133c15.546-2.051,28.654-7.519,38.294-17.855l2.416-1.124,1.628-.766.193.914-.576,2.792C627.764,143.211,629.635,154.5,635.721,167.474Z" transform="translate(-584.826 -126.383)" fill="#eaad8f"/></g><g transform="translate(24.215 81.711)"><path d="M613.223,131.371c-3.946,6.918-12.69,18.974-27.112,22.329a101.077,101.077,0,0,0,.548-11.713c0-1.037-.008-2.116-.028-3.227.3.065.6.12.906.173C595.751,140.322,605.173,136.972,613.223,131.371Z" transform="translate(-586.111 -131.371)" fill="#171612"/></g><g transform="translate(17.024 92.868)"><path d="M640.534,154.994s-2.031-18.811-5.12-19.159S621.44,147.8,607.366,147s-17.106-10.784-20.154-6.7-3.974,18.033-3.974,18.033S585.167,170.8,601,171.77,637.73,160.362,640.534,154.994Z" transform="translate(-583.239 -135.827)" fill="#ced371"/></g><g transform="translate(64.176 95.305)"><path d="M604.322,137.378c3.7,6.242,4.67,13.621,4.7,20.767a1.2,1.2,0,0,1-2.4,0c-.025-6.73-.884-13.671-4.369-19.555a1.2,1.2,0,0,1,2.076-1.212Z" transform="translate(-602.071 -136.8)" fill="#9ea257"/></g><g transform="translate(57.002 99.46)"><path d="M601.62,139.254c2.9,7,3.791,14.227,3.746,21.753a1.2,1.2,0,0,1-2.4,0c.043-7.324-.834-14.312-3.661-21.112-.593-1.427,1.733-2.051,2.318-.641Z" transform="translate(-599.206 -138.46)" fill="#9ea257"/></g><g transform="translate(48.561 102.831)"><path d="M598.174,140.675a134.927,134.927,0,0,1,2.068,22.016,1.2,1.2,0,0,1-2.4,0,131.073,131.073,0,0,0-1.983-21.378c-.268-1.512,2.048-2.161,2.318-.639Z" transform="translate(-595.834 -139.806)" fill="#9ea257"/></g><g transform="translate(40.144 104.337)"><path d="M594.959,141.568l-.083,23.368a1.2,1.2,0,0,1-2.4,0q.041-11.684.082-23.368a1.2,1.2,0,0,1,2.4,0Z" transform="translate(-592.473 -140.407)" fill="#9ea257"/></g><g transform="translate(16.074 112.657)"><path d="M606.932,162.2c.493,0,1-.01,1.507-.03,17.3-.694,32.615-15.734,33.259-16.373a1.209,1.209,0,0,0-1.705-1.715c-.153.15-15.3,15.018-31.651,15.674-17.968.706-22.935-12.151-23.138-12.7a1.209,1.209,0,0,0-2.271.831C582.988,148.031,588.371,162.2,606.932,162.2Z" transform="translate(-582.86 -143.73)" fill="#9ea257"/></g><g transform="translate(27.885 102.341)"><path d="M593.241,141.092a79.557,79.557,0,0,0-3.26,22.557,1.2,1.2,0,0,1-2.4,0,81.841,81.841,0,0,1,3.348-23.2,1.2,1.2,0,0,1,2.316.638Z" transform="translate(-587.577 -139.61)" fill="#9ea257"/></g><g transform="translate(19.45 98.099)"><path d="M590.773,139.358a57.169,57.169,0,0,0-4.161,21.187,1.2,1.2,0,0,1-2.4,0,59.021,59.021,0,0,1,4.249-21.829c.568-1.417,2.894-.8,2.316.641Z" transform="translate(-584.208 -137.916)" fill="#9ea257"/></g><g transform="translate(8.833)"><path d="M658.894,147.97c-.32,8.278-7.717,18.148-18.558,18.033h-.293c-.19.468-.413.926-.641,1.4-.1.2-.2.408-.306.611a.618.618,0,0,1-.033.055c-7.286,13.806-27.645,21.313-38.5,21.19a24.67,24.67,0,0,1-7.271-1.229c-11.4-2.937-12.947-18.543-10.691-30.342a45.6,45.6,0,0,1,1.209-4.842c.035-.1.065-.205.1-.31,0,0-3.215-16.746-3.839-24.022-1.2-14.1,7.4-28.053,38.286-29.678s37.533,17.767,39.305,27.983c.3,1.705-.426,11.753-2.171,13.31C658.358,141.726,659,145.186,658.894,147.97Z" transform="translate(-579.968 -98.737)" fill="#eaad8f"/></g><g transform="translate(34.276 42.103)"><g transform="translate(2.189 1.494)"><path d="M595.1,120.025c.065,2.173-.8,3.964-1.928,4s-2.1-1.7-2.163-3.876.8-3.964,1.925-4S595.033,117.849,595.1,120.025Z" transform="translate(-591.004 -116.149)" fill="#171612"/></g><path d="M590.461,117.835a.567.567,0,0,1-.26-.243.575.575,0,0,1,.225-.781c.233-.13,5.754-3.1,10.005.573a.576.576,0,0,1-.754.871c-3.648-3.16-8.646-.466-8.7-.438A.572.572,0,0,1,590.461,117.835Z" transform="translate(-590.129 -115.552)" fill="#171612"/></g><g transform="translate(14.262 43.179)"><g transform="translate(3.264 1.31)"><path d="M587.532,120.381c.065,2.173-.8,3.964-1.925,4s-2.1-1.7-2.163-3.876.8-3.966,1.928-4S587.467,118.205,587.532,120.381Z" transform="translate(-583.44 -116.505)" fill="#171612"/></g><path d="M582.539,118.994a.6.6,0,0,1-.29-.205.578.578,0,0,1,.12-.806c.213-.16,5.276-3.856,9.988-.786a.575.575,0,0,1-.629.964c-4.046-2.637-8.628.711-8.673.746A.581.581,0,0,1,582.539,118.994Z" transform="translate(-582.136 -115.982)" fill="#171612"/></g><g transform="translate(61.552 63.379)"><path d="M608.67,127.937h-.291c-.193.468-.413.929-.643,1.4-.1.2-.2.408-.305.611a.211.211,0,0,1-.033.055,9.941,9.941,0,0,1-4.119-1.815,7.953,7.953,0,0,1-2.116-2.476,1.119,1.119,0,0,1,1.961-1.079,6.008,6.008,0,0,0,2.576,2.434,8.149,8.149,0,0,0,1.928.686A9.953,9.953,0,0,0,608.67,127.937Z" transform="translate(-601.023 -124.05)" fill="#c6695d"/></g><g transform="translate(11.47 54.106)" opacity="0.5"><path d="M587.411,123.053c-.07,1.229-2.812,2.1-6.39,2.136a45.6,45.6,0,0,1,1.209-4.842C585.3,120.857,587.476,121.931,587.411,123.053Z" transform="translate(-581.021 -120.346)" fill="#c6695d"/></g><g transform="translate(60.846 60.706)"><path d="M620.832,125.145c-.7.491-1.4.987-2.116,1.455a10.6,10.6,0,1,1-5.962-1.227A2.555,2.555,0,0,0,614.3,123c-.2-.01-.4-.018-.606-.018a13,13,0,1,0,7.136,2.163Z" transform="translate(-600.741 -122.982)" fill="#fff"/></g><g transform="translate(25.433 72.292)"><path d="M589.007,129.752a3.894,3.894,0,0,0,2.354-1.039.651.651,0,0,0-.932-.909,2.641,2.641,0,0,1-2.922.386.65.65,0,1,0-.518,1.192A4.232,4.232,0,0,0,589.007,129.752Z" transform="translate(-586.597 -127.609)" fill="#c6695d"/></g><g transform="translate(19.898 64.397)"><path d="M591.493,130.049l.11-.008a8.228,8.228,0,0,0,6.625-4.131,1.007,1.007,0,0,0-1.8-.9,6.22,6.22,0,0,1-4.992,3.027l-.093.008c-3.568.265-5.15-1.645-5.165-1.665a1.006,1.006,0,1,0-1.567,1.262C584.7,127.753,586.883,130.392,591.493,130.049Z" transform="translate(-584.387 -124.456)" fill="#c6695d"/></g><g transform="translate(19.89 46.618)"><path d="M589.445,131.717a.952.952,0,0,1-.5-.145l-4.124-2.632a.937.937,0,0,1,.058-1.615c3.4-1.835,5.523-4.78,6.683-9.267a.939.939,0,1,1,1.818.471c-1.147,4.427-3.157,7.529-6.277,9.64l2.852,1.82a.937.937,0,0,1-.506,1.728Z" transform="translate(-584.384 -117.355)" fill="#b4665e"/></g><g transform="translate(32.541 29.498)"><path d="M592.014,115.494a2.28,2.28,0,0,1-1.395-4.254,6.607,6.607,0,0,1,4.607-.543,16.547,16.547,0,0,1,11.427,9.272s-7.7-4.221-12.084-4.539A12.711,12.711,0,0,0,592.014,115.494Z" transform="translate(-589.436 -110.518)" fill="#171612"/></g><g transform="translate(9.65 29.903)"><path d="M592.465,115.653a2.279,2.279,0,0,0,1.4-4.252,6.609,6.609,0,0,0-4.607-.543c-8.418,1.76-8.961,7.769-8.961,7.769s5.236-2.717,9.617-3.037A12.7,12.7,0,0,1,592.465,115.653Z" transform="translate(-580.294 -110.68)" fill="#171612"/></g><g transform="translate(36.978 55.57)" opacity="0.5"><path d="M591.21,123.067c-.078,1.4,3.348,2.737,7.654,2.977s7.862-.7,7.94-2.1-3.348-2.734-7.654-2.977S591.29,121.665,591.21,123.067Z" transform="translate(-591.208 -120.931)" fill="#c6695d"/></g><g transform="translate(67.166 46.945)"><path d="M604.522,131.307a1.115,1.115,0,0,0,.951-.859c1.79-7.732,11.215-10.747,11.31-10.777a1.118,1.118,0,0,0-.661-2.136c-.438.135-10.744,3.413-12.827,12.409a1.119,1.119,0,0,0,.836,1.342A1.15,1.15,0,0,0,604.522,131.307Z" transform="translate(-603.265 -117.486)" fill="#c6695d"/></g><g transform="translate(71.41 51.54)"><path d="M611.858,124.572a1.12,1.12,0,0,0,.836-1.658,7.68,7.68,0,0,0-6.618-3.593,1.118,1.118,0,1,0,.005,2.236,5.43,5.43,0,0,1,4.662,2.451A1.119,1.119,0,0,0,611.858,124.572Z" transform="translate(-604.96 -119.321)" fill="#c6695d"/></g></g><g transform="translate(112.562 19.328)"><path d="M621.366,116.984s-2.03,8.678,5.161,13.994c5.959,4.4,9.592,5.7,9.592,5.7s-11.052,23.614-2.086,27.447,8.914-22.492,22.913-22.625c0,0,5.078-.851,4.923-9.675s-14.149-34.47-37.177-34-43.885,10.947-45.34,27.054,2.138,13.085,2.138,13.085-1.247-9.459,10.133-16.057C601.065,116.435,621.366,116.984,621.366,116.984Z" transform="translate(-579.004 -97.82)" fill="#171612"/></g></g></g></g><g transform="translate(812.409 8558.581)"><g transform="translate(59.264 0.169)"><g transform="translate(0 0)"><rect width="63.726" height="511.22" transform="translate(0 59.383) rotate(-68.724)" fill="#e59f3f"/></g><g transform="translate(3.981 10.229)"><g transform="translate(0 34.971)"><g transform="translate(0 0)"><rect width="4.248" height="511.221" transform="translate(0 3.959) rotate(-68.724)" fill="#b56d25"/></g></g><g transform="translate(6.81 17.484)"><g transform="translate(0 0)"><rect width="4.248" height="511.22" transform="translate(0 3.959) rotate(-68.724)" fill="#b56d25"/></g></g><g transform="translate(13.618 0)"><g transform="translate(0)"><rect width="4.248" height="511.22" transform="translate(0 3.959) rotate(-68.724)" fill="#b56d25"/></g></g></g></g><g transform="translate(510.731 175.967)"><g transform="translate(0 0)"><rect width="63.726" height="26.733" transform="translate(0 59.383) rotate(-68.724)" fill="#171612"/></g></g><g transform="translate(535.641 185.668)"><path d="M663.192,262.211l7.091,2.759a31.862,31.862,0,0,0,41.253-18.13h0a31.863,31.863,0,0,0-18.13-41.253l-7.088-2.759Z" transform="translate(-663.192 -202.827)" fill="#c04d3a"/></g><g transform="translate(0 0.001)"><path d="M531.651,128.842l-23.123,59.382-33-33.162-6.866-6.9-19.395-19.491,28.1.058,10.945.022Z" transform="translate(-449.264 -128.674)" fill="#eaad8f"/></g><g transform="translate(0.001)"><path d="M477.366,128.734a33.168,33.168,0,0,1-2.306,9.988,22.993,22.993,0,0,1-6.4,9.445l-19.395-19.492Z" transform="translate(-449.265 -128.674)" fill="#171612"/></g></g></g></svg>