<svg xmlns="http://www.w3.org/2000/svg" xmlns:xlink="http://www.w3.org/1999/xlink" width="64.545" height="66.244" viewBox="0 0 64.545 66.244"><defs><clipPath id="a"><rect width="42.15" height="42.855" fill="#9ea257"/></clipPath></defs><g transform="translate(2418 -2329.533)"><g transform="translate(-2418 2329.533)"><ellipse cx="32.273" cy="33.122" rx="32.273" ry="33.122" transform="translate(0 0)" fill="#9ea257"/></g><g transform="translate(-2406.884 2341.637)"><g clip-path="url(#a)"><path d="M91.977,127.542c-.177-.153-.365-.3-.531-.46q-3.052-3.043-6.093-6.1c-.2-.2-.316-.24-.58-.071a9.943,9.943,0,0,1-14.9-5.22c-.086-.252-.211-.3-.447-.3-2.985.007-5.97,0-8.954.012-.315,0-.452-.06-.413-.4s-.1-.766.07-.964.629-.063.96-.064q4-.008,7.992,0c.314,0,.377-.05.338-.386a9.29,9.29,0,0,1,.5-4.359,2.156,2.156,0,0,0,.141-.771c-.005-2.329,0-4.659-.009-6.988,0-.279.05-.412.359-.375.342.041.791-.144,1.006.069s.062.661.064,1.006c.008,1.363,0,2.726,0,4.174a14.865,14.865,0,0,1,1.349-1.385c.129-.111.075-.26.075-.392,0-1.492.01-2.985,0-4.477,0-.305.043-.435.4-.427,1.035.022,1.036,0,1.036,1.036v3.162c.456-.211.863-.411,1.281-.586.185-.078.145-.216.146-.346,0-.739.009-1.479,0-2.218,0-.227.046-.338.3-.312.37.038.851-.153,1.081.083.177.182.052.66.056,1.006s.008.7,0,1.046c-.006.191.055.248.244.2s.411-.075.617-.108c.574-.091.574-.09.574-.693,0-1.339.007-2.678-.006-4.017,0-.279.054-.414.362-.378.343.04.793-.144,1.009.071s.062.664.064,1.009q.013,1.82,0,3.64c0,.248.058.344.321.345a2.7,2.7,0,0,1,.784.11c.321.1.337-.043.336-.3-.007-1.967,0-3.934-.011-5.9,0-.324.076-.421.41-.415,1.027.019,1.027,0,1.027,1.011,0,1.9.008,3.794-.008,5.691a.5.5,0,0,0,.387.569,10.45,10.45,0,0,1,1.049.493c0-1.493.016-2.939-.01-4.383-.008-.41.077-.541.511-.522.925.039.927.012.927.939,0,1.548,0,3.1,0,4.645a.651.651,0,0,0,.246.573,10.381,10.381,0,0,1,1.186,1.237v-.729c0-1.158.007-2.315-.005-3.473,0-.244.038-.355.313-.329.357.033.831-.109,1.047.072s.067.68.068,1.038q.011,2.762,0,5.523a2.155,2.155,0,0,0,.139.771,9.364,9.364,0,0,1,.5,4.4c-.034.288.02.392.3.339.436-.084.57.108.5.511a.235.235,0,0,0,0,.042c0,.858,0,.872-.843.867a.348.348,0,0,0-.4.3,5.812,5.812,0,0,1-.582,1.38c-.151.255-.1.4.1.6q3.148,3.124,6.278,6.267c.6.6.593.89-.012,1.5-.552.553-1.107,1.1-1.656,1.658a2.747,2.747,0,0,1-.547.444Z" transform="translate(-52.904 -84.687)" fill="#fff"/><path d="M53.991,48.021q7.05,0,14.1,0a3.573,3.573,0,0,1,3.691,3.027,4.372,4.372,0,0,1,.042.75q0,11.235.006,22.47a3.827,3.827,0,0,1-.728,2.348c-.111.151-.2.217-.343.04a1.8,1.8,0,0,0-.22-.192c-.2-.175-.465-.317-.576-.537-.129-.255.219-.427.288-.676a3.189,3.189,0,0,0,.15-.858q0-11.361,0-22.721a2.138,2.138,0,0,0-2.168-2.222c-.348-.011-.7,0-1.046,0H39.945A2.188,2.188,0,0,0,37.638,51a2.685,2.685,0,0,0-.085.786q0,11.235,0,22.47A2.153,2.153,0,0,0,39.892,76.6c2.9,0,5.8.007,8.7-.007.313,0,.417.071.385.387s.107.774-.061.972c-.2.234-.654.074-1,.075q-4.038.011-8.075,0a3.58,3.58,0,0,1-3.634-2.794A4.439,4.439,0,0,1,36.12,74.2q0-11.172,0-22.345a3.6,3.6,0,0,1,3.854-3.831q7.008,0,14.017,0" transform="translate(-31.826 -42.312)" fill="#fff"/><path d="M17.9,0H31.873a3.62,3.62,0,0,1,3.854,4c-.006.209-.046.318-.274.281a.559.559,0,0,0-.084,0c-.335,0-.741.112-.984-.038s-.058-.589-.1-.9a2.168,2.168,0,0,0-2.26-1.914q-6.946,0-13.893,0H3.863A2.188,2.188,0,0,0,1.432,3.854q0,11.152,0,22.3a2.213,2.213,0,0,0,1.42,2.277c.161.066.183.14.147.277a6.221,6.221,0,0,0-.194.768c-.052.41-.243.383-.552.257A3.589,3.589,0,0,1,.005,26.366c-.011-1.381,0-2.762,0-4.143Q0,13,0,3.769A3.592,3.592,0,0,1,2.637.134,4.3,4.3,0,0,1,3.837,0q7.03,0,14.06,0" transform="translate(0 0)" fill="#fff"/><path d="M97.468,166.462c0,1.3-.008,2.59.006,3.885,0,.289-.034.449-.375.4s-.8.147-1-.078c-.169-.19-.06-.634-.061-.966,0-2.381.006-4.762-.01-7.143,0-.337.1-.413.417-.408,1.019.017,1.019,0,1.019,1.009v3.3" transform="translate(-84.597 -142.88)" fill="#fff"/><path d="M121.349,183.232c0,.961-.009,1.921.006,2.882,0,.257-.063.349-.324.32-.356-.038-.814.146-1.044-.072-.213-.2-.059-.659-.061-1-.007-1.67.005-3.341-.011-5.011,0-.3.08-.388.368-.356.342.039.793-.142,1,.066s.056.659.06,1c.009.724,0,1.448,0,2.172" transform="translate(-105.627 -158.567)" fill="#fff"/><path d="M73.638,200.468c0,.613-.008,1.227,0,1.841,0,.215-.058.281-.28.289-1.153.041-1.153.048-1.153-1.083,0-.962.008-1.924-.006-2.886,0-.249.05-.33.318-.331,1.117-.006,1.117-.017,1.117,1.083v1.088" transform="translate(-63.622 -174.729)" fill="#fff"/><path d="M25.5,24.749c0,.685,0,.685-.7.685-.736,0-.736,0-.736-.739,0-.689,0-.689.7-.689.73,0,.73,0,.73.742" transform="translate(-21.207 -21.154)" fill="#fff"/><path d="M49.609,24.721c0,.713,0,.713-.719.713s-.713,0-.713-.711,0-.717.714-.717.719,0,.719.715" transform="translate(-42.45 -21.153)" fill="#fff"/><path d="M72.251,24.715c0-.708,0-.708.72-.708s.709,0,.709.722c0,.705,0,.705-.725.705-.7,0-.7,0-.7-.72" transform="translate(-63.664 -21.154)" fill="#fff"/><path d="M108.287,72.787c0-.712,0-.712.721-.712.706,0,.706,0,.706.728,0,.705,0,.705-.723.705-.7,0-.7,0-.7-.721" transform="translate(-95.417 -63.509)" fill="#fff"/><path d="M61.65,72.828c0,.679,0,.679-.673.679-.758,0-.758,0-.758-.752,0-.681,0-.681.669-.681.763,0,.763,0,.763.755" transform="translate(-53.062 -63.507)" fill="#fff"/><path d="M85.7,72.784c0,.723,0,.723-.709.723s-.719,0-.719-.705c0-.728,0-.728.746-.728.682,0,.682,0,.682.71" transform="translate(-74.254 -63.508)" fill="#fff"/><path d="M158.942,162.224a8.57,8.57,0,1,1-8.566,8.561,8.571,8.571,0,0,1,8.566-8.561" transform="translate(-132.503 -142.943)" fill="#9ea257"/><path d="M287.814,292.055c-.05.057-.082.1-.121.139-.316.315-.6.819-.96.888s-.628-.5-.926-.791c-1.625-1.608-3.233-3.235-4.861-4.84-.222-.219-.233-.33,0-.536a5.826,5.826,0,0,0,.669-.746c.12-.15.195-.138.322-.009q2.863,2.875,5.734,5.742c.047.047.089.1.141.154" transform="translate(-247.405 -252.061)" fill="#fefefe"/><path d="M169.532,174.272a7.141,7.141,0,1,1-7.131,7.155,7.142,7.142,0,0,1,7.131-7.155" transform="translate(-143.099 -153.56)" fill="#fff"/><path d="M183.71,188.105a5.657,5.657,0,0,1,2.027,3.342,5.89,5.89,0,0,1,0,2.2c-.042.238-.122.341-.4.34q-5.207-.018-10.414,0c-.278,0-.357-.1-.4-.342a5.681,5.681,0,0,1,1.931-5.48c.16.075.092.2.093.3.005,1.241.013,2.482,0,3.722,0,.292.074.374.37.373,1.067-.007,1.067,0,1.067-1.046,0-1.31.007-2.621-.006-3.931,0-.25.066-.39.313-.444.271-.059.544-.119.808-.2.283-.091.322.028.321.277-.008,1.645,0,3.29-.012,4.935,0,.328.081.421.413.415,1.027-.019,1.027,0,1.027-1.047,0-1.422.009-2.844-.007-4.266,0-.3.065-.368.37-.31,1.066.2,1.068.191,1.068,1.278,0,1.324.009,2.649-.007,3.973,0,.291.074.373.368.371,1.068-.008,1.068,0,1.068-1.047Z" transform="translate(-153.697 -164.692)" fill="#9ea257"/><path d="M190.746,258.626a5.737,5.737,0,0,1-9.877,0Z" transform="translate(-159.372 -227.888)" fill="#9ea257"/></g></g></g></svg>