<svg xmlns="http://www.w3.org/2000/svg" xmlns:xlink="http://www.w3.org/1999/xlink" width="151.658" height="151.658" viewBox="0 0 151.658 151.658"><defs><filter id="a" x="0" y="0" width="151.658" height="151.658" filterUnits="userSpaceOnUse"><feOffset dy="6" input="SourceAlpha"/><feGaussianBlur stdDeviation="5" result="b"/><feFlood flood-opacity="0.329"/><feComposite operator="in" in2="b"/><feComposite in="SourceGraphic"/></filter></defs><g transform="translate(-1108 -1651)"><g transform="matrix(1, 0, 0, 1, 1108, 1651)" filter="url(#a)"><circle cx="60.829" cy="60.829" r="60.829" transform="translate(15 9)" fill="#ffb500"/></g><g transform="translate(1103.427 1634.488)"><g transform="translate(51.88 53.097)"><path d="M57.137,104.952q0-1.974,0-3.949c1.024-.2,1.278-.866,1.275-1.837q-.031-15.992-.012-31.984c0-2.345,1.207-3.554,3.532-3.555q12.783,0,25.566,0c.29,0,.58.026.936.043,0,2.66-.005,5.259,0,7.858a5.606,5.606,0,0,0,5.86,5.9c2.31.015,4.621,0,6.932,0h.957v7.679c-7.626-2.366-14.283-.962-19.333,5.278-4.506,5.568-5.2,11.988-1.727,18.238,4.656,8.376,12.072,10.546,21.126,8,0,2.015.043,4.021-.012,6.025a3.067,3.067,0,0,1-3.364,3.175q-18.5.006-37,0a3.133,3.133,0,0,1-3.475-3.433c-.01-1.857-.036-3.714.011-5.57a1.479,1.479,0,0,0-1.272-1.746l-.009-3.962a1.361,1.361,0,0,0,1.275-1.607c-.029-.978-.031-1.958,0-2.936a1.379,1.379,0,0,0-1.275-1.615m16.894-11.87a2.479,2.479,0,0,0-.586-.149q-3.285-.016-6.569,0a2.443,2.443,0,0,0-.585.151c-.724.258-1.22.717-1.04,1.534.177.8.8,1.019,1.571,1.012q3.36-.031,6.722,0c.775.006,1.389-.221,1.55-1.03s-.325-1.277-1.061-1.517m.359-10.974c-2.549,0-5.1-.007-7.647,0-.986,0-1.533.469-1.531,1.249s.577,1.264,1.535,1.266q7.647.012,15.295,0c1.022,0,1.588-.5,1.562-1.319-.025-.8-.524-1.194-1.567-1.2-2.549-.008-5.1,0-7.647,0m-1.059-8.475q3.149,0,6.3,0a5.1,5.1,0,0,0,.895-.057,1.165,1.165,0,0,0,1.055-1.248,1.184,1.184,0,0,0-1.1-1.219,5.522,5.522,0,0,0-.9-.037q-5.49,0-10.98,0c-.749,0-1.5-.029-2.248.036a1.153,1.153,0,0,0-1.139,1.174,1.2,1.2,0,0,0,1.093,1.313,4.4,4.4,0,0,0,.806.04q3.1,0,6.21,0m.034,44.025c2.1,0,4.2,0,6.3,0,.328,0,.745.068.963-.1.386-.3.887-.747.9-1.145s-.463-.878-.833-1.2c-.2-.175-.631-.116-.957-.116q-6.344-.009-12.689,0c-.3,0-.685-.062-.873.095a2.526,2.526,0,0,0-.92,1.158,1.038,1.038,0,0,0,.921,1.226,4.551,4.551,0,0,0,.981.079c2.07.007,4.14,0,6.209,0m-3.226-11.04c1.166,0,2.333.011,3.5,0,.98-.012,1.5-.48,1.483-1.282-.019-.744-.559-1.225-1.464-1.23q-3.5-.022-7,0a1.291,1.291,0,0,0-1.446,1.255c-.005.754.526,1.241,1.427,1.255,1.166.019,2.333,0,3.5.005" transform="translate(-55.874 -61.098)" fill="#d2e1f1"/><path d="M53.15,107.071a1.479,1.479,0,0,1,1.272,1.746c-.047,1.856-.021,3.713-.011,5.57a3.133,3.133,0,0,0,3.475,3.433q18.5,0,37,0a3.067,3.067,0,0,0,3.364-3.175c.055-2,.012-4.01.012-6.025-9.054,2.549-16.469.379-21.126-8-3.474-6.249-2.779-12.67,1.727-18.238,5.05-6.24,11.707-7.644,19.333-5.278V69.428h-.958c-2.31,0-4.621.012-6.931,0a5.606,5.606,0,0,1-5.861-5.9c-.006-2.6,0-5.2,0-7.859-.356-.017-.646-.043-.936-.043q-12.783,0-25.565,0c-2.325,0-3.532,1.21-3.532,3.555q0,15.992.012,31.984c0,.971-.251,1.638-1.276,1.837-.958-.212-1.267-.839-1.266-1.777.015-10.755,0-21.51.014-32.266a5.592,5.592,0,0,1,5.9-5.85Q71.486,53.1,85.174,53.1a2.283,2.283,0,0,1,1.756.71c4.382,4.4,8.794,8.764,13.153,13.183a2.642,2.642,0,0,1,.667,1.654c.065,3.025.016,6.051.05,9.077a1.4,1.4,0,0,0,.445,1.032,16.829,16.829,0,0,1,6.086,21c-.049.107-.075.224-.162.489.655.612,1.373,1.247,2.052,1.922q4.055,4.024,8.089,8.07a5.605,5.605,0,1,1-7.929,7.906c-2.808-2.788-5.594-5.6-8.506-8.516-.043.35-.09.561-.092.772-.007,1.348.007,2.7-.006,4.044a5.612,5.612,0,0,1-5.951,5.9q-11.527.008-23.053,0-6.934,0-13.868,0a5.625,5.625,0,0,1-6.015-6.015c-.006-1.827.021-3.655-.01-5.482a1.523,1.523,0,0,1,1.27-1.769m53.135-14.188a14.341,14.341,0,1,0-14.228,14.272,14.333,14.333,0,0,0,14.228-14.272m-4.327,14.269c2.936,2.936,6.207,6.23,9.511,9.49a2.8,2.8,0,0,0,2.746.735,3.046,3.046,0,0,0,1.441-5.212c-3.094-3.133-6.226-6.229-9.346-9.337a3.568,3.568,0,0,0-.474-.342l.333.426-4.211,4.239M95.99,66.921l-9.021-8.994c0,1.79-.005,3.789,0,5.788a3.022,3.022,0,0,0,2.8,3.175c2.142.125,4.3.03,6.224.03" transform="translate(-51.88 -53.097)"/><path d="M53.149,235.715a1.379,1.379,0,0,1,1.275,1.615c-.031.978-.029,1.958,0,2.936a1.361,1.361,0,0,1-1.275,1.607,1.422,1.422,0,0,1-1.258-1.65c.017-.95.02-1.9,0-2.85a1.446,1.446,0,0,1,1.26-1.657" transform="translate(-51.886 -191.86)" fill="#40285b"/><path d="M99.946,140.582c2.549,0,5.1-.006,7.647,0,1.043,0,1.542.4,1.567,1.2.026.82-.54,1.318-1.563,1.319q-7.647.01-15.294,0c-.958,0-1.534-.5-1.535-1.266s.545-1.245,1.531-1.249c2.549-.01,5.1,0,7.647,0" transform="translate(-81.429 -119.572)" fill="#3e2658"/><path d="M98.911,97.164q-3.105,0-6.21,0a4.376,4.376,0,0,1-.806-.04A1.2,1.2,0,0,1,90.8,95.81a1.153,1.153,0,0,1,1.138-1.175c.745-.065,1.5-.035,2.248-.035q5.49,0,10.98,0a5.519,5.519,0,0,1,.9.037,1.183,1.183,0,0,1,1.1,1.219A1.165,1.165,0,0,1,106.1,97.1a5.094,5.094,0,0,1-.894.057q-3.15.006-6.3,0" transform="translate(-81.454 -84.629)" fill="#3f295b"/><path d="M98.962,280.487c-2.07,0-4.14,0-6.209,0a4.565,4.565,0,0,1-.981-.079,1.038,1.038,0,0,1-.922-1.226,2.526,2.526,0,0,1,.92-1.158c.188-.156.576-.094.873-.095q6.344-.007,12.688,0c.327,0,.754-.059.958.116.37.317.843.8.833,1.2s-.512.846-.9,1.145c-.217.168-.635.1-.963.1-2.1.007-4.2,0-6.3,0" transform="translate(-81.471 -223.925)" fill="#40295a"/><path d="M95.694,234.659c-1.167,0-2.333.014-3.5,0-.9-.014-1.432-.5-1.427-1.255a1.291,1.291,0,0,1,1.446-1.255q3.5-.024,7,0c.906.006,1.446.486,1.464,1.23.02.8-.5,1.269-1.483,1.282-1.166.015-2.333,0-3.5,0" transform="translate(-81.429 -189.138)" fill="#402759"/><path d="M99.59,186.286c.737.24,1.224.7,1.061,1.517s-.775,1.036-1.55,1.03q-3.36-.027-6.722,0c-.774.007-1.394-.213-1.57-1.012-.18-.817.316-1.276,1.04-1.534l7.741,0" transform="translate(-81.432 -154.301)" fill="#3d2357"/><path d="M103,185.789l-7.741,0a2.44,2.44,0,0,1,.585-.151q3.284-.016,6.569,0a2.476,2.476,0,0,1,.586.149" transform="translate(-84.84 -153.805)" fill="#5bdff7"/><path d="M187.683,173.231a14.341,14.341,0,1,1-14.3-14.393,14.3,14.3,0,0,1,14.3,14.393M171.8,175.506c-1.316-1.342-2.561-2.635-3.833-3.9a1.18,1.18,0,0,0-1.769-.045,1.207,1.207,0,0,0-.031,1.77q2.353,2.416,4.77,4.769a1.2,1.2,0,0,0,1.841-.012q3.865-3.83,7.7-7.686c.1-.1.262-.244.254-.357-.036-.475.036-1.121-.238-1.372a2.111,2.111,0,0,0-1.44-.266c-.263.02-.514.38-.747.611-2.126,2.112-4.246,4.229-6.513,6.489" transform="translate(-133.277 -133.446)" fill="#8dd1b4"/><path d="M260.418,263.432l4.211-4.239-.333-.426a3.621,3.621,0,0,1,.474.342c3.12,3.107,6.252,6.2,9.346,9.337a3.046,3.046,0,0,1-1.441,5.211,2.8,2.8,0,0,1-2.746-.735c-3.3-3.26-6.575-6.554-9.511-9.49" transform="translate(-210.339 -209.377)" fill="#a3314f"/><path d="M207.01,82.2c-1.927,0-4.082.095-6.224-.03a3.022,3.022,0,0,1-2.8-3.175c-.007-2,0-4,0-5.788L207.01,82.2" transform="translate(-162.9 -68.381)" fill="#b0c0d2"/><path d="M193.308,205.731c2.267-2.261,4.388-4.378,6.513-6.489.232-.231.483-.591.747-.611a2.111,2.111,0,0,1,1.44.266c.274.252.2.9.238,1.372.008.113-.15.252-.254.357q-3.847,3.848-7.7,7.686a1.2,1.2,0,0,1-1.841.012q-2.415-2.354-4.77-4.769a1.207,1.207,0,0,1,.031-1.77,1.181,1.181,0,0,1,1.769.045c1.272,1.266,2.517,2.558,3.833,3.9" transform="translate(-154.784 -163.671)"/></g></g></g></svg>