<svg xmlns="http://www.w3.org/2000/svg" width="64.545" height="66.244" viewBox="0 0 64.545 66.244"><g transform="translate(-1141 -14024)"><g transform="translate(1141 14024)"><ellipse cx="32.273" cy="33.122" rx="32.273" ry="33.122" transform="translate(0 0)" fill="#9ea257"/></g><g transform="translate(3829 11329.369)"><path d="M48.548,12.681c-.479,1.443-.95,2.88-1.436,4.312a.989.989,0,0,0,0,.683c.487,1.432.958,2.869,1.443,4.333-.118.006-.21.015-.3.015-2.927,0-5.854,0-8.781.007a.4.4,0,0,1-.463-.329c-.361-1.139-.758-2.266-1.123-3.4A.353.353,0,0,0,37.475,18q-3.8.014-7.61,0c-.275,0-.348.085-.372.344a11.348,11.348,0,0,1-9.871,10.267c-.76.1-.76.1-.76.854,0,.558.009,1.115,0,1.672,0,.2.056.256.257.255q3.763-.01,7.526,0c.2,0,.259-.057.255-.257-.013-.571-.01-1.143,0-1.714a1.991,1.991,0,0,1,2.029-2.044q6.69-.01,13.38,0a4.474,4.474,0,0,1,2.985,1.11c.2.172.306.2.487-.021.379-.463.8-.9,1.185-1.351.128-.149.21-.173.36-.025.257.254.535.485.809.73-.524.59-1.027,1.168-1.544,1.733a.377.377,0,0,0-.086.5,4.665,4.665,0,0,1-4.221,6.684c-4.446.026-8.892.01-13.338,0a2,2,0,0,1-2.047-2.07c0-.558-.012-1.115,0-1.672.007-.226-.068-.274-.281-.274q-3.742.01-7.485,0c-.226,0-.273.07-.273.281.007,2.788,0,5.575.007,8.363a.661.661,0,0,0,.731.725c2.341.005,4.683,0,7.025.008.222,0,.281-.064.275-.279-.014-.571-.011-1.143,0-1.714A1.99,1.99,0,0,1,28.9,38.084q6.711-.011,13.422,0a4.448,4.448,0,0,1,2.98,1.123c.188.163.286.187.457-.02.381-.462.8-.893,1.185-1.351.14-.165.231-.19.39-.027.242.249.683.458.71.717.024.238-.389.52-.61.783-.027.032-.056.062-.084.093a4.718,4.718,0,0,0-.864,1.011c-.183.4.23.774.332,1.178a4.67,4.67,0,0,1-4.4,5.839c-4.515.044-9.031.019-13.547.01a1.986,1.986,0,0,1-1.983-2.005c-.009-.557-.019-1.116,0-1.672.012-.281-.079-.339-.345-.338-2.258.011-4.516.007-6.774.006a2.03,2.03,0,0,1-2.254-2.242q0-6.063.007-12.126c0-.294-.058-.4-.375-.43A11.359,11.359,0,1,1,29.414,15.616c.01.069.022.138.038.205.065.27-.071.659.133.793s.562.055.852.055c2.314,0,4.627-.007,6.941.011a.478.478,0,0,0,.546-.4c.353-1.112.73-2.216,1.094-3.325.058-.178.106-.3.353-.3,3.011.011,6.021.008,9.032.009a1.1,1.1,0,0,1,.145.022" transform="translate(-2683.058 2701.49)" fill="#fff"/><path d="M38.755,27.352c-.832,0-1.625-.009-2.418.006-.238,0-.265-.111-.29-.3A7.372,7.372,0,1,0,36,29.255c.081-.484.222-.611.685-.576a16.826,16.826,0,0,0,1.755.006c.245-.007.319.031.3.312a10.1,10.1,0,1,1,.015-1.645" transform="translate(-2693.628 2690.809)" fill="#9ea257"/><path d="M209.128,209.578a4.738,4.738,0,0,0-.069,6.64c-.106.1-.236.047-.351.048q-4.722.006-9.443,0c-.687,0-.9-.213-.9-.89q0-2.486,0-4.972c0-.579.237-.826.8-.826q4.847,0,9.694,0Z" transform="translate(-2853.189 2520.626)" fill="#9ea257"/><path d="M209.058,305.381a4.772,4.772,0,0,0,0,6.616c-.109.1-.239.044-.355.044q-4.7.005-9.4,0c-.741,0-.942-.2-.942-.936q0-2.486,0-4.973a.679.679,0,0,1,.761-.78q4.91-.006,9.82,0a.586.586,0,0,1,.117.026" transform="translate(-2853.188 2435.555)" fill="#9ea257"/><path d="M60.684,66.05A6.019,6.019,0,1,1,66.627,58.9c.063.318.065.533-.37.466-.286-.044-.646.081-.855-.053-.174-.111-.173-.491-.257-.75a4.677,4.677,0,1,0,.127,2.449c.061-.266.15-.341.4-.319a2.652,2.652,0,0,0,.626,0c.38-.058.391.133.34.421a6.064,6.064,0,0,1-5.952,4.937" transform="translate(-2725.573 2658.801)" fill="#9ea257"/><path d="M85.255,80.552c-1.186,0-2.369.009-3.551-.007-.281,0-.377.049-.373.355.014.99,0,.99.985.99h2.926a3.269,3.269,0,0,1-3.385,2.672,3.346,3.346,0,0,1-.14-6.676,3.311,3.311,0,0,1,3.538,2.666" transform="translate(-2746.873 2637.609)" fill="#9ea257"/><path d="M300.734,211.7a3.232,3.232,0,0,1-.976,3.623,3.332,3.332,0,1,1-3.514-5.574,3.208,3.208,0,0,1,3.481.5c.1.081.291.149.108.352-.764.846-1.517,1.7-2.29,2.571-.453-.459-.888-.891-1.312-1.332-.131-.137-.209-.154-.365-.01-.806.744-.812.738-.033,1.514l.65.65a1.328,1.328,0,0,0,2.185-.069c.567-.632,1.126-1.272,1.693-1.9a.816.816,0,0,1,.372-.322" transform="translate(-2938.357 2520.743)" fill="#9ea257"/><path d="M300.606,307.592a3.3,3.3,0,0,1-2.149,4.323,3.34,3.34,0,1,1,1.169-5.764c.185.145.241.243.047.452-.682.735-1.344,1.488-2,2.247-.162.188-.252.227-.437.021-.344-.383-.73-.728-1.084-1.1-.148-.155-.234-.156-.395,0-.775.738-.78.733-.027,1.485.256.256.508.516.769.767a1.279,1.279,0,0,0,1.953-.043c.678-.738,1.335-1.5,2-2.245.035-.039.078-.071.152-.138" transform="translate(-2938.267 2435.532)" fill="#9ea257"/><path d="M300,77.872c-.285.856-.562,1.668-.822,2.486-.057.178-.16.193-.311.192-.765,0-1.529,0-2.356,0,.288-.874.567-1.719.847-2.564.048-.144.175-.111.282-.112.765,0,1.529,0,2.359,0" transform="translate(-2940.375 2637.613)" fill="#9ea257"/><path d="M335.9,77.878c-.283.854-.56,1.678-.826,2.505-.051.157-.148.173-.283.173-.778,0-1.557,0-2.379,0,.283-.853.56-1.677.826-2.5.051-.158.148-.173.283-.173.778,0,1.557,0,2.379,0" transform="translate(-2972.254 2637.606)" fill="#9ea257"/><path d="M296.5,113.794c.828,0,1.619,0,2.41,0a.217.217,0,0,1,.249.162c.269.829.545,1.655.83,2.515-.828,0-1.619,0-2.409,0a.218.218,0,0,1-.249-.162c-.269-.829-.545-1.655-.83-2.516" transform="translate(-2940.357 2605.706)" fill="#9ea257"/><path d="M335.891,116.461c-.828,0-1.618,0-2.408,0a.237.237,0,0,1-.263-.2c-.264-.816-.538-1.629-.821-2.479.828,0,1.618,0,2.408,0a.237.237,0,0,1,.262.2c.264.816.539,1.628.822,2.478" transform="translate(-2972.247 2605.715)" fill="#9ea257"/><rect width="43" height="43" transform="translate(-2677 2706.63)" fill="none"/></g></g></svg>