<svg id="_000000ff" data-name="#000000ff" xmlns="http://www.w3.org/2000/svg" width="54.994" height="55" viewBox="0 0 54.994 55">
  <path id="Trazado_188961" data-name="Trazado 188961" d="M8.246,10.915A4.456,4.456,0,0,1,12.406,8q16.8-.007,33.6,0a6.223,6.223,0,0,1,6.316,6.21q.008,8.241,0,16.484,2.506,2.508,5.014,5.014a.949.949,0,0,1-.112,1.468c-.821.811-1.631,1.631-2.448,2.444a.915.915,0,0,1-.9.283,1.617,1.617,0,0,1-.669-.486q-.369.368-.736.737,5.089,5.093,10.182,10.183a.9.9,0,0,1,.052,1.308c-.737.745-1.478,1.489-2.225,2.224a.884.884,0,0,1-1.239-.006q-3.464-3.448-6.916-6.91-.007,4.472,0,8.945c.89.006,1.782-.01,2.671.006a.9.9,0,0,1,.877.988,9.475,9.475,0,0,1-.265,3.165,4.454,4.454,0,0,1-3.092,2.8,7.786,7.786,0,0,1-1.966.136H19.614a4.473,4.473,0,0,1-4.406-3.356,7.753,7.753,0,0,1-.136-1.968V20.415c-2.075,0-4.15.008-6.224-.006a.875.875,0,0,1-.867-.868c-.013-1.964,0-3.926-.006-5.89a7.508,7.508,0,0,1,.271-2.737m1.51,1.4c-.016,2.107,0,4.215-.007,6.322h5.322c0-2,0-4,0-5.993a2.931,2.931,0,0,0-.241-1.311,2.657,2.657,0,0,0-5.077.981m6.185-2.549a4.5,4.5,0,0,1,.9,2.662q.007,23.064,0,46.127a2.658,2.658,0,0,0,5.044,1.172c.491-.984.166-2.115.306-3.161a.9.9,0,0,1,.967-.672H50.553V45.175c-.518-.517-1.032-1.037-1.552-1.55q-.369.368-.735.736a1.4,1.4,0,0,1,.5.782.93.93,0,0,1-.3.791l-2.551,2.551a.9.9,0,0,1-1.306.055q-3.087-3.072-6.159-6.155a.945.945,0,0,1,.11-1.475c.819-.812,1.631-1.63,2.447-2.444a.906.906,0,0,1,.793-.3,1.411,1.411,0,0,1,.775.507q2.477-2.472,4.949-4.948a1.258,1.258,0,0,1-.517-.89,1.155,1.155,0,0,1,.478-.847c.821-.811,1.628-1.633,2.449-2.443a1.192,1.192,0,0,1,.62-.282q0-7.529,0-15.059a4.446,4.446,0,0,0-4.546-4.433q-15.032,0-30.064,0M49.149,32.834q2.475,2.478,4.953,4.954c.472-.466.938-.938,1.408-1.406q-2.478-2.478-4.956-4.954c-.468.468-.938.936-1.4,1.406m-5.322,7.1q1.587,1.593,3.179,3.181,2.48-2.477,4.955-4.955-1.592-1.59-3.181-3.179l-4.953,4.953M40.278,41.7q2.475,2.478,4.953,4.954c.472-.466.937-.937,1.407-1.4q-2.473-2.482-4.955-4.955c-.468.468-.938.936-1.4,1.406m9.979.664q4.8,4.808,9.611,9.612l.964-.962q-4.807-4.807-9.613-9.611-.482.481-.961.961m-26.315,15.3a5.085,5.085,0,0,1-.888,3.536c9.426.028,18.852,0,28.278.013a2.688,2.688,0,0,0,2.529-1.566,4.448,4.448,0,0,0,.24-1.984Z" transform="translate(-7.972 -7.996)" fill="#9ea257"/>
  <path id="Trazado_188962" data-name="Trazado 188962" d="M112,56h29.273v1.774H112Z" transform="translate(-100.465 -50.677)" fill="#9ea257"/>
  <path id="Trazado_188963" data-name="Trazado 188963" d="M112,88h29.273v1.774H112Z" transform="translate(-100.465 -79.129)" fill="#9ea257"/>
  <path id="Trazado_188964" data-name="Trazado 188964" d="M112,120h29.273v1.774H112Z" transform="translate(-100.465 -107.581)" fill="#9ea257"/>
  <path id="Trazado_188965" data-name="Trazado 188965" d="M112,152h29.273v1.774H112Z" transform="translate(-100.465 -136.033)" fill="#9ea257"/>
  <path id="Trazado_188966" data-name="Trazado 188966" d="M112,184h29.273v1.774H112Z" transform="translate(-100.465 -164.484)" fill="#9ea257"/>
  <path id="Trazado_188967" data-name="Trazado 188967" d="M112,216h25.724v1.774H112Z" transform="translate(-100.465 -192.936)" fill="#9ea257"/>
  <path id="Trazado_188968" data-name="Trazado 188968" d="M112,248h23.95v1.774H112Z" transform="translate(-100.465 -221.388)" fill="#9ea257"/>
  <path id="Trazado_188969" data-name="Trazado 188969" d="M110.829,280.089a8.006,8.006,0,1,1-4.483,2.259,7.982,7.982,0,0,1,4.483-2.259m.224,1.765a6.209,6.209,0,1,0,4.6,1.131A6.229,6.229,0,0,0,111.053,281.854Z" transform="translate(-93.358 -249.844)" fill="#9ea257"/>
  <path id="Trazado_188970" data-name="Trazado 188970" d="M139.633,312.1a4.437,4.437,0,1,1-2.983,2.095,4.433,4.433,0,0,1,2.983-2.095m.208,1.767a2.684,2.684,0,0,0-1.8,1.49,2.656,2.656,0,1,0,1.8-1.49Z" transform="translate(-121.83 -278.317)" fill="#9ea257"/>
  <path id="Trazado_188971" data-name="Trazado 188971" d="M267.759,384.344a.884.884,0,0,1,1.348-.006,1.308,1.308,0,0,1,.234.8,1.773,1.773,0,0,0,1.753,1.548c1.183.007,2.365,0,3.548,0v1.774c-1.222-.005-2.445.01-3.667-.008a3.639,3.639,0,0,1-2.9-1.651A5.911,5.911,0,0,1,264,388.463c0-.591,0-1.181,0-1.772a4.17,4.17,0,0,0,2.728-1.054A7.153,7.153,0,0,0,267.759,384.344Z" transform="translate(-235.609 -342.334)" fill="#9ea257"/>
</svg>
