<svg xmlns="http://www.w3.org/2000/svg" xmlns:xlink="http://www.w3.org/1999/xlink" width="66.244" height="66.244" viewBox="0 0 66.244 66.244"><defs><clipPath id="a"><rect width="35.354" height="50.504" fill="none"/></clipPath></defs><g transform="translate(2765.789 -2334.855)"><g transform="translate(-2765.789 2334.855)"><rect width="66.244" height="66.244" rx="33.122" transform="translate(0)" fill="#9ea257"/></g><g transform="translate(-2867.686 2659)"><g transform="translate(119 -315)" clip-path="url(#a)"><path d="M15.553,39.478c0,1.1-.008,2.206.006,3.308,0,.284-.059.383-.314.366-.367-.025-.736-.015-1.1,0a1.642,1.642,0,0,0,.015,3.254,10.389,10.389,0,0,0,1.06,0c.265-.02.351.056.345.383-.02,1.1,0,2.205-.014,3.308,0,.3.05.407.334.4.736-.026,1.473-.017,2.209,0,.215,0,.282-.053.311-.322a3.008,3.008,0,0,1,2.791-2.94,3,3,0,0,1,2.827,2.949c.031.284.117.313.319.312,1.164-.008,2.327.013,3.49-.014.35-.008.46.064.464.508A16.9,16.9,0,0,1,22.572,64.4c-.617.549-1.2,1.146-1.818,1.7a.7.7,0,0,0-.254.642,4.41,4.41,0,0,1,0,.661,1.643,1.643,0,0,0,.623,1.609A2.519,2.519,0,0,1,20.74,73c-.285.161-.366.284-.285.659a2.463,2.463,0,0,1-1.061,2.562.77.77,0,0,0-.414.626,5.183,5.183,0,0,1-4.84,4.585,5.2,5.2,0,0,1-4.846-4.582.729.729,0,0,0-.369-.608,2.472,2.472,0,0,1-1.071-2.729c.05-.251,0-.336-.2-.439a2.328,2.328,0,0,1-1.284-2.13,2.366,2.366,0,0,1,1.174-2.259.445.445,0,0,0,.235-.466A6.434,6.434,0,0,0,7.727,66.4c-.181-.531-.757-.814-1.164-1.2a23.546,23.546,0,0,1-3.989-4.438C-2.6,52.6.353,40.763,8.49,36.984a14.78,14.78,0,0,1,6.84-1.176c.269.008.223.182.223.362q0,1.654,0,3.308" transform="translate(-0.001 -30.925)" fill="#fff"/><path d="M165.525,0c1.59,0,3.181,0,4.771,0,1.405,0,2.28,1.014,2.282,2.64q0,4.707,0,9.414c0,1.584-.89,2.6-2.266,2.607-1,0-2-.013-3,.009-.295.006-.421-.054-.393-.431a11.32,11.32,0,0,0,0-1.271,1.417,1.417,0,1,0-2.819,0,12.99,12.99,0,0,0,0,1.322c.022.334-.089.383-.347.38-1.664-.013-3.328-.016-4.992,0-.286,0-.336-.1-.332-.4.016-1.1,0-2.205.01-3.307,0-.254-.023-.362-.289-.4a3.11,3.11,0,0,1-2.542-3.224,3.114,3.114,0,0,1,2.568-3.249c.209-.031.274-.082.264-.324-.018-.423-.009-.848,0-1.272A2.288,2.288,0,0,1,160.621,0c1.635-.008,3.269,0,4.9,0" transform="translate(-137.225 0)" fill="#fff"/><path d="M14.9,134.972c.81,0,1.621-.012,2.431.007.272.006.4-.05.37-.4a12.513,12.513,0,0,1,0-1.272,1.527,1.527,0,0,1,1.389-1.587,1.526,1.526,0,0,1,1.432,1.59,9.8,9.8,0,0,1,0,1.119c-.034.421.048.577.461.562,1.148-.041,2.3-.006,3.447-.021.256,0,.359.043.349.379-.024.848-.014,1.7,0,2.545,0,.241-.036.328-.275.363a3.326,3.326,0,0,0,0,6.472c.244.036.273.13.272.366-.006,1.935-.012,3.869,0,5.8,0,.338-.1.378-.352.376-1.414-.013-2.829-.02-4.243,0-.329.006-.383-.123-.371-.458.023-.627-.018-1.257.016-1.883a.981.981,0,0,0-.36-.844,47.49,47.49,0,0,1-4.161-4.1,15.083,15.083,0,0,1-3.249-8.641c-.024-.335.063-.393.327-.387.839.018,1.679.007,2.519.007" transform="translate(-10.627 -113.791)" fill="#9ea257"/><path d="M110.548,147.19c0-1.239-.008-2.477.006-3.716,0-.289-.067-.378-.317-.362-.367.024-.736.015-1.1,0a1.642,1.642,0,0,1,.022-3.254,9.877,9.877,0,0,1,1.06.005c.273.023.344-.072.341-.389-.017-1.374,0-2.749-.014-4.123,0-.315.065-.4.339-.391,1.193.019,2.386,0,3.579.016.275,0,.359-.076.338-.392-.026-.371-.008-.746-.006-1.119.008-1.031.6-1.761,1.424-1.754s1.4.742,1.4,1.779c0,.373.016.748,0,1.12-.016.287.062.369.314.366,1.193-.015,2.386.005,3.579-.015.3-.005.357.1.332.428a14.819,14.819,0,0,1-4.522,9.989q-1.479,1.413-2.974,2.8a.751.751,0,0,0-.266.637c.018.712,0,1.425.011,2.138,0,.244-.057.315-.27.312-1-.012-2-.019-3,0-.275.006-.268-.145-.267-.366,0-1.239,0-2.477,0-3.716" transform="translate(-94.995 -113.792)" fill="#9ea257"/><path d="M25.1,49.939c0,.56-.009,1.12,0,1.68.005.227-.036.3-.256.333a3.325,3.325,0,0,0,.005,6.48c.175.028.256.055.251.286-.014.627-.017,1.256,0,1.883.007.268-.09.3-.284.3-.736-.01-1.473-.016-2.209,0-.25.006-.332-.048-.366-.369a3.067,3.067,0,0,0-2.473-2.879,2.809,2.809,0,0,0-2.939,2,3.424,3.424,0,0,0-.2.931c-.015.285-.111.318-.318.316-1.208-.009-2.416-.011-3.624,0-.239,0-.284-.071-.256-.34a14.154,14.154,0,0,1,6.184-10.874,10.688,10.688,0,0,1,6.117-1.832c.275,0,.386.057.369.407-.028.558-.008,1.119-.008,1.679" transform="translate(-10.962 -41.34)" fill="#9ea257"/><path d="M72.215,288.945q-2.715,0-5.429,0a1.231,1.231,0,0,1-.436-.044.759.759,0,0,1-.493-.806.745.745,0,0,1,.6-.764,1.78,1.78,0,0,1,.4-.013H77.576c.088,0,.177,0,.265,0a.767.767,0,0,1,.735.824.749.749,0,0,1-.755.8c-1.133.011-2.266,0-3.4,0H72.215" transform="translate(-58.076 -248.215)" fill="#9ea257"/><path d="M90.638,335.205h6.616c.141,0,.287-.056.233.249a3.441,3.441,0,0,1-6.849-.249" transform="translate(-79.931 -289.588)" fill="#9ea257"/><path d="M82.8,311.28q2.008,0,4.015,0a.816.816,0,1,1,.015,1.627q-4.081,0-8.163,0a.814.814,0,1,1-.015-1.627c1.383,0,2.765,0,4.148,0" transform="translate(-68.61 -268.92)" fill="#9ea257"/><path d="M176.076,11.983q2.363,0,4.725,0c.686,0,.919.273.919,1.074q0,4.629,0,9.259c0,.8-.236,1.067-.924,1.07-.545,0-1.09-.009-1.634.005-.2.005-.259-.045-.288-.3a2.815,2.815,0,1,0-5.622,0c-.029.255-.1.3-.29.293-.751-.011-1.5-.018-2.252,0-.26.007-.312-.095-.309-.372.013-1.1-.008-2.2.013-3.306.007-.343-.086-.432-.367-.409-.322.027-.647.01-.971.006a1.533,1.533,0,0,1-1.5-1.618,1.528,1.528,0,0,1,1.478-1.638c.353-.006.707-.017,1.06,0,.23.014.3-.065.295-.335-.015-.915-.008-1.831,0-2.747,0-.7.253-.993.854-.994,1.6,0,3.209,0,4.814,0" transform="translate(-147.783 -10.352)" fill="#9ea257"/></g></g></g></svg>