<svg xmlns="http://www.w3.org/2000/svg" xmlns:xlink="http://www.w3.org/1999/xlink" width="155.183" height="155.183" viewBox="0 0 155.183 155.183"><defs><filter id="a" x="0" y="0" width="155.183" height="155.183" filterUnits="userSpaceOnUse"><feOffset dy="6" input="SourceAlpha"/><feGaussianBlur stdDeviation="5" result="b"/><feFlood flood-opacity="0.329"/><feComposite operator="in" in2="b"/><feComposite in="SourceGraphic"/></filter><clipPath id="c"><rect width="74.555" height="70.791" fill="none"/></clipPath></defs><g transform="translate(-7014 -3435)"><g transform="matrix(1, 0, 0, 1, 7014, 3435)" filter="url(#a)"><circle cx="62.591" cy="62.591" r="62.591" transform="translate(15 9)" fill="#ffb500"/></g><g transform="translate(7054 3471)" clip-path="url(#c)"><path d="M119.918,141.917l7.613,7.252c.97.924.968,1.437-.021,2.373q-1.867,1.767-3.741,3.526h-.875c-.309-.252-.636-.487-.924-.759q-5.309-5.025-10.608-10.059c-.153-.145-.313-.283-.492-.443a18.195,18.195,0,0,1-21.8-1.386c-.144-.121-.293-.238-.44-.357a18.218,18.218,0,0,1-4.231-6.37l-.211-.719H67.354V132.63h16.3a15.7,15.7,0,0,1,.972-8.277,2.01,2.01,0,0,0,.075-.748q.006-5.74,0-11.48V111.4h2.506V119.7c.649-.542,1.368-1.093,2.016-1.712a1.452,1.452,0,0,0,.427-.931c.035-2.42.019-4.841.019-7.261v-.751h2.5v6.874c.2-.082.332-.127.454-.185.664-.32,1.585-.493,1.915-1.008s.1-1.386.1-2.1c0-.8,0-1.591,0-2.387h2.5V114.1l2.5-.34v-8.227h2.528v8.231l2.165.3.266-.125v-10.78h2.553v4.026c-.01,2.421-.023,4.842-.021,7.262,0,.158.076.4.2.46.724.348,1.472.653,2.3,1.012v-8.019h2.464c0,2.844.037,5.632-.022,8.418a2.193,2.193,0,0,0,.943,2.135c.576.385,1.1.838,1.608,1.229v-7.078h2.439v.784c0,3.229-.019,6.458.016,9.686a12.2,12.2,0,0,0,.335,2.019c.282,1.536.631,3.064.833,4.609a23.529,23.529,0,0,1,.023,2.958H119.5V135c-.468,0-.9.033-1.33-.009-.475-.047-.665.136-.819.551a22.91,22.91,0,0,1-1.015,2.288c-.169.336-.2.55.112.836,1.172,1.068,2.313,2.166,3.465,3.252m-5.646,1.7,9.019,8.4,1.76-1.65-8.868-8.585-1.463-1.453-1.889,1.987,1.441,1.3m-13.41-27.528c-8.225.01-14.9,6.365-14.891,14.18.007,7.859,6.694,14.184,14.971,14.159,8.243-.025,14.879-6.369,14.852-14.2s-6.7-14.152-14.932-14.141" transform="translate(-54.243 -84.096)" fill="#020202"/><path d="M20.766,59.478l-2.395-.156.218-1.133a3.791,3.791,0,0,1-2.771-3.976q.03-18.36.01-36.721c0-.161,0-.323,0-.484A3.654,3.654,0,0,1,19.7,13.415q24.732-.008,49.464,0a3.651,3.651,0,0,1,3.9,3.7c0,.334,0,.668,0,.994l1.2.057q0,1.145-.005,2.29c-.29.012-.58.034-.87.034q-22.909,0-45.817.023a8.132,8.132,0,0,0-2.969.508,5.772,5.772,0,0,0-3.8,5.829q.011,15.9,0,31.808c0,.275-.026.55-.04.825M18.331,18.1H20.8V15.813H18.331Zm5.015-.01H25.77v-2.3H23.346Zm7.408-2.27H28.315v2.258h2.439Z" transform="translate(-12.739 -10.932)" fill="#86ccd7"/><path d="M41.237,90.531c.014-.275.04-.55.04-.825q0-15.9,0-31.808a5.772,5.772,0,0,1,3.8-5.828,8.132,8.132,0,0,1,2.969-.508q22.909-.046,45.818-.023c.29,0,.58-.022.87-.034,1.139.042,2.287,0,3.413.14a5.879,5.879,0,0,1,5.315,5.675c.038,4.012.014,8.024.014,12.036q0,12.8.008,25.594a5.986,5.986,0,0,1-1.536,4.173l-.957-.708-.906-.821A4.027,4.027,0,0,0,101,95q-.018-18.68-.01-37.361a3.525,3.525,0,0,0-3.576-3.7c-2.2-.1-4.416,0-6.625.008-.145-.01-.29-.028-.434-.028q-21.311-.009-42.621-.01A3.614,3.614,0,0,0,43.794,57.7c-.011,2.19,0,4.38,0,6.57q0,15.32,0,30.639c0,2.208,1.242,3.729,3.415,3.818,2.906.12,5.822.021,8.733.016,1.717.019,3.433.041,5.15.056.839.007,1.679,0,2.552,0,.022.444.039.806.057,1.169v1.136c-.214.021-.374.051-.535.051-5.141,0-10.282.012-15.423,0-3.17-.009-5.732-1.876-6.3-4.706a21,21,0,0,1-.16-3.441c-.026-.827-.032-1.654-.047-2.481" transform="translate(-33.21 -41.986)" fill="#030405"/><path d="M276.385,64.5c2.209-.01,4.421-.1,6.625-.008a3.525,3.525,0,0,1,3.576,3.7q.006,18.68.01,37.36a4.027,4.027,0,0,1-.912,2.592l.906.821-2.107,1.392c-1.153-1.087-2.294-2.185-3.466-3.253-.314-.286-.281-.5-.112-.836a22.93,22.93,0,0,0,1.015-2.288c.154-.414.344-.6.819-.551.426.043.861.009,1.33.009v-2.335h-1.239a23.57,23.57,0,0,0-.022-2.958c-.2-1.545-.551-3.073-.833-4.609a12.208,12.208,0,0,1-.335-2.019c-.035-3.229-.016-6.458-.016-9.686V81.05h-2.439v7.078c-.506-.39-1.031-.844-1.608-1.229a2.193,2.193,0,0,1-.943-2.135c.059-2.786.022-5.574.022-8.418h-2.464v8.019c-.831-.359-1.578-.664-2.3-1.012-.119-.057-.2-.3-.2-.46,0-2.421.011-4.842.021-7.263.1-.082.248-.144.293-.247,1.271-2.944,2.547-5.886,3.784-8.842a17.958,17.958,0,0,0,.594-2.041" transform="translate(-218.808 -52.538)" fill="#9ea257"/><path d="M64.005,7.739l-1.2-.057c0-.325,0-.66,0-.994a3.651,3.651,0,0,0-3.9-3.7q-24.732-.007-49.463,0A3.654,3.654,0,0,0,5.567,6.586c-.006.161,0,.323,0,.484q0,18.36-.01,36.721a3.791,3.791,0,0,0,2.771,3.976L8.108,48.9l-.372,1.109a5.971,5.971,0,0,1-4.661-5.969q.006-18.608.011-37.216A6.764,6.764,0,0,1,3.3,5.115,6.086,6.086,0,0,1,9.281.637C13.289.615,17.3.631,21.3.631q18.764,0,37.528,0c4.116,0,6.964,3.147,6.39,7.051l-1.217.055" transform="translate(-2.476 -0.51)" fill="#020202"/><path d="M124.535,285.563c-.018-.362-.035-.725-.057-1.169-.873,0-1.712.006-2.552,0-1.717-.015-3.433-.037-5.15-.056a3.923,3.923,0,0,1,.491-.474c1.213-.828,2.438-1.64,3.655-2.462,1.095-.74,2.184-1.485,3.276-2.228a18.22,18.22,0,0,0,4.231,6.37l-3.9.02" transform="translate(-94.046 -227.575)" fill="#9ea257"/><path d="M73.918,104.181c-1.092.743-2.181,1.489-3.276,2.228-1.217.822-2.442,1.634-3.655,2.462a3.912,3.912,0,0,0-.491.474c-2.912,0-5.827.1-8.733-.016-2.173-.09-3.414-1.611-3.415-3.818q-.005-15.319,0-30.639c0-2.19-.008-4.381,0-6.57a3.615,3.615,0,0,1,3.938-3.793q21.311-.011,42.621.01c.145,0,.29.018.434.028a18.013,18.013,0,0,1-.594,2.041c-1.236,2.957-2.512,5.9-3.784,8.842-.045.1-.193.166-.293.247V71.65H94.119V82.43l-.266.125-2.165-.3V74.021H89.16v8.227l-2.5.34V78.732h-2.5c0,.8,0,1.591,0,2.387,0,.714.237,1.575-.1,2.1s-1.252.688-1.916,1.008c-.121.059-.25.1-.454.185V77.537h-2.5v.751c0,2.42.016,4.841-.019,7.261a1.451,1.451,0,0,1-.427.931c-.647.619-1.367,1.17-2.016,1.712V79.885H74.227v.727q0,5.74,0,11.48a2.009,2.009,0,0,1-.075.748,15.7,15.7,0,0,0-.972,8.277h-16.3v2.345H73.707l.211.719m-9.565-5.45h2.379V84.6H64.353ZM71.7,88.181H69.3V98.737h2.4Zm-9.923,3.543h-2.42v7.01h2.42ZM56.851,69.2h2.419V66.918H56.851Zm9.951.006h2.42V66.913H66.8Zm-4.96-.052h2.417V66.908H61.842Z" transform="translate(-43.765 -52.583)" fill="#ced371"/><path d="M177.886,173.109c8.227-.01,14.905,6.314,14.932,14.141s-6.61,14.173-14.852,14.2c-8.277.025-14.964-6.3-14.971-14.159-.007-7.815,6.667-14.17,14.892-14.18m.008,2.376c-6.87.011-12.4,5.259-12.41,11.779-.011,6.554,5.533,11.828,12.431,11.825s12.439-5.29,12.414-11.841c-.025-6.515-5.585-11.774-12.435-11.762" transform="translate(-131.267 -141.114)" fill="#ffb500"/><path d="M310.3,312.13l8.867,8.585-1.76,1.65-9.019-8.4,1.912-1.834" transform="translate(-248.359 -254.441)" fill="#ffb500"/><path d="M304.337,305.723l-1.911,1.834-1.441-1.3,1.889-1.987,1.463,1.453" transform="translate(-242.398 -248.034)" fill="#fff"/><path d="M257.323,161.611l.266-.125-.266.125" transform="translate(-207.235 -131.639)" fill="#2c648a"/><rect width="2.467" height="2.286" transform="translate(5.592 4.882)" fill="#050a0c"/><rect width="2.425" height="2.296" transform="translate(10.607 4.862)" fill="#050a0c"/><rect width="2.439" height="2.258" transform="translate(15.576 4.887)" fill="#020405"/><rect width="2.379" height="14.13" transform="translate(20.588 32.017)" fill="#010203"/><rect width="2.397" height="10.556" transform="translate(25.534 35.598)"/><rect width="2.42" height="7.01" transform="translate(15.588 39.141)" fill="#010304"/><rect width="2.419" height="2.282" transform="translate(13.087 14.334)" fill="#040809"/><rect width="2.42" height="2.293" transform="translate(23.038 14.329)" fill="#030506"/><rect width="2.417" height="2.245" transform="translate(18.077 14.325)" fill="#040607"/><path d="M188.191,185.967c6.85-.011,12.41,5.248,12.435,11.762.025,6.551-5.518,11.838-12.414,11.841s-12.442-5.271-12.431-11.825c.011-6.52,5.54-11.767,12.41-11.779m9.917,11.829a7.686,7.686,0,0,0-1.153-4.437,8.662,8.662,0,0,0-2.538-2.958v7.336h-2.48v-6.887c0-2.1-.077-2.182-2.336-2.4-.018,0-.039.018-.161.076v9.228h-2.514V188.37c-.7.168-1.285.315-1.873.446a.665.665,0,0,0-.6.774c.026,2.466.012,4.933.012,7.4v.749h-2.531v-7.3a8.65,8.65,0,0,0-2.488,2.921A7.649,7.649,0,0,0,178.3,197.8l.2,2.322h19.417c.066-.779.132-1.55.2-2.321m-1.322,4.763H179.671a10.212,10.212,0,0,0,17.115,0" transform="translate(-141.565 -151.596)" fill="#020303"/><path d="M189.865,203.957a8.65,8.65,0,0,1,2.488-2.921v7.3h2.531v-.749c0-2.466.014-4.933-.012-7.4a.665.665,0,0,1,.6-.775c.587-.131,1.171-.278,1.873-.446v9.383h2.514v-9.228c.122-.059.143-.078.161-.076,2.259.221,2.336.3,2.336,2.4v6.887h2.48V201a8.661,8.661,0,0,1,2.538,2.958v4.437h1.153c-.065.771-.131,1.542-.2,2.321H188.908c-.066-.78-.132-1.551-.2-2.322l1.154-.05Z" transform="translate(-151.978 -162.193)" fill="#9ea257"/><path d="M212.883,275.739a10.212,10.212,0,0,1-17.115,0Z" transform="translate(-157.662 -224.776)" fill="#9ea257"/><path d="M189.836,225.963v4.387l-1.154.05a7.65,7.65,0,0,1,1.154-4.437" transform="translate(-151.95 -184.2)"/><path d="M285.721,230.4h-1.153v-4.437a7.686,7.686,0,0,1,1.153,4.437" transform="translate(-229.176 -184.2)"/></g></g></svg>