<svg xmlns="http://www.w3.org/2000/svg" xmlns:xlink="http://www.w3.org/1999/xlink" width="155.182" height="155.183" viewBox="0 0 155.182 155.183"><defs><filter id="a" x="0" y="0" width="155.182" height="155.183" filterUnits="userSpaceOnUse"><feOffset dy="6" input="SourceAlpha"/><feGaussianBlur stdDeviation="5" result="b"/><feFlood flood-opacity="0.329"/><feComposite operator="in" in2="b"/><feComposite in="SourceGraphic"/></filter></defs><g transform="translate(-358.953 -15733)"><g transform="matrix(1, 0, 0, 1, 358.95, 15733)" filter="url(#a)"><circle cx="62.591" cy="62.591" r="62.591" transform="translate(15 9)" fill="#ffb500"/></g><g transform="translate(384.731 15752.464)"><g transform="translate(11.986 11.879)"><path d="M136.735,128.282q0,1.207-.009,2.415a20.446,20.446,0,0,0-18.975.021,2.227,2.227,0,0,1-.953.171q-4.545.019-9.09.006a5.147,5.147,0,0,0-3.43,1.211,5.368,5.368,0,0,0-1.808,5.428l-5.128-2.354a7.612,7.612,0,0,1,.954-1c2.326-1.631,2.925-3.827,2.783-6.616-.231-4.551-.078-9.123-.051-13.685a16.031,16.031,0,0,1,.262-3.03c1.361-6.818,5.388-11.318,11.977-13.543,1.368-.462,1.64-1.169.9-2.431-.8-1.349-1.6-2.7-2.39-4.045-.143-.244-.262-.5-.409-.786H125.1l-2.8,4.768c-.8,1.363-.546,2.047.939,2.526a17.188,17.188,0,0,1,12.166,16.634q.007,6.679,0,13.359v.953Zm-17.2-3.937c3.124-.381,5.129-2.3,5.285-4.961a5.236,5.236,0,0,0-1.021-3.483,5.5,5.5,0,0,0-4.2-2.207v-5.239a2.811,2.811,0,0,1,2.653,2.607h2.5a4.486,4.486,0,0,0-.857-2.952,5.589,5.589,0,0,0-4.4-2.348v-2.533h-2.623v2.546c-3.093.37-5.108,2.3-5.26,4.957a5.238,5.238,0,0,0,1.07,3.549,5.521,5.521,0,0,0,4.154,2.142v5.254a2.822,2.822,0,0,1-2.644-2.622h-2.566a4.84,4.84,0,0,0,.918,2.948,5.57,5.57,0,0,0,4.393,2.351v2.534h2.6Zm-12.116-20.334A14.667,14.667,0,0,0,103.692,115h2.641a12.252,12.252,0,0,1,3.04-9.231l-1.959-1.759m4.414-3.376-2.364,1.472,1.588,2.109L112.995,103c-.313-.652-.594-1.242-.879-1.83-.07-.145-.152-.285-.288-.537" transform="translate(-78.534 -72.819)" fill="#ced371" opacity="0.9"/><path d="M84.263,118.7H82.934v-.953q0-6.68,0-13.359A17.188,17.188,0,0,0,70.767,87.757c-1.485-.479-1.739-1.163-.939-2.526l2.8-4.767H58.893c.147.283.266.542.409.786.794,1.35,1.595,2.7,2.39,4.045.744,1.263.472,1.97-.9,2.432-6.589,2.225-10.616,6.725-11.977,13.543a16.047,16.047,0,0,0-.262,3.03c-.027,4.563-.181,9.134.051,13.685.142,2.79-.457,4.985-2.783,6.616a7.64,7.64,0,0,0-.954,1L50,127.955a5.368,5.368,0,0,1,1.808-5.428,5.149,5.149,0,0,1,3.43-1.211q4.545.008,9.09-.006a2.23,2.23,0,0,0,.953-.171,20.446,20.446,0,0,1,18.975-.021c.42.066.838.159,1.26.192s.866.008,1.409.008v1.308c-.02.428-.04.856-.061,1.3L85.64,124v15.751H98.815V129.217h2.637v2.174q0,4.7,0,9.4c0,1.147-.466,1.639-1.572,1.64q-10.952.008-21.9,0c-.08,0-.159-.017-.3-.032q-.03-.642-.059-1.283c.02-.428.04-.856.063-1.353h5.254c0-5.348.008-10.622-.026-15.9a1.069,1.069,0,0,0-.586-.719,17.669,17.669,0,0,0-15.759.294,4.761,4.761,0,0,1-1.948.49c-3.029.051-6.06.021-9.091.023-1.818,0-3.022,1.069-3.01,2.66a2.688,2.688,0,0,0,2.975,2.617q5.331,0,10.661,0h.858v2.641c-4.569,0-9.084.023-13.6-.023a5.905,5.905,0,0,1-2.285-.5c-4.639-2.073-9.241-4.225-13.884-6.29a4.282,4.282,0,0,0-2.216-.329,2.8,2.8,0,0,0-2.335,2.545,3.288,3.288,0,0,0,1.838,3.391c4.937,2.467,9.886,4.913,14.816,7.393a15.864,15.864,0,0,0,7.306,1.74c5.813-.021,11.626-.007,17.438-.007h.936v2.64h-.851c-5.861,0-11.722-.01-17.584,0a18.155,18.155,0,0,1-8.333-1.972c-4.8-2.415-9.543-4.967-14.45-7.148-4.275-1.9-5.362-7.887-.9-10.655a6.32,6.32,0,0,1,5.982.2c1.156.6,2.37,1.094,3.548,1.631l1.026-1.36c.729-.707,1.482-1.391,2.17-2.135a1.405,1.405,0,0,0,.255-.885c.015-4.894.052-9.788,0-14.681-.1-9.432,4.256-15.964,12.861-19.909-.784-1.325-1.6-2.706-2.419-4.088-.307-.52-.628-1.032-.915-1.563a1.319,1.319,0,0,1,1.21-2.1c1.377-.024,2.755-.006,4.133-.006q6.86,0,13.721,0c.657,0,1.278.03,1.655.676s.075,1.2-.261,1.761c-1.069,1.788-2.119,3.587-3.184,5.4a19.9,19.9,0,0,1,11.148,10.5,18.985,18.985,0,0,1,1.735,7.9c.016,4.863,0,9.726,0,14.708Z" transform="translate(-26.061 -63.24)" fill="#020201"/><path d="M84.317,295.675v-1.324h-.936c-5.813,0-11.626-.015-17.438.007a15.864,15.864,0,0,1-7.306-1.74c-4.93-2.481-9.879-4.926-14.816-7.393a3.288,3.288,0,0,1-1.838-3.391,2.8,2.8,0,0,1,2.335-2.545,4.283,4.283,0,0,1,2.216.329c4.642,2.064,9.245,4.217,13.884,6.29a5.906,5.906,0,0,0,2.285.5c4.515.046,9.03.023,13.6.023v-2.64h-.858q-5.331,0-10.661,0a2.687,2.687,0,0,1-2.975-2.617c-.012-1.591,1.192-2.658,3.01-2.66,3.03,0,6.061.028,9.091-.023a4.762,4.762,0,0,0,1.948-.49,17.67,17.67,0,0,1,15.759-.294,1.068,1.068,0,0,1,.586.719c.034,5.275.026,10.549.026,15.9H86.971c-.023.5-.043.925-.063,1.353H84.317" transform="translate(-35.353 -217.795)" fill="#fbc7a1"/><path d="M133.108,71.281q.053-3.832.106-7.663c0-.275-.01-.552.019-.824a1.286,1.286,0,0,1,2.006-1c.444.27.843.612,1.411,1.031.424-1.242.884-2.4,1.214-3.59a28.743,28.743,0,0,0-21.943-35.9A28.143,28.143,0,0,0,94.088,27.6c-1.5.985-1.948.906-2.906-.595q-1.9-2.986-3.806-5.974c-.665-1.049-.539-1.644.5-2.34a39.7,39.7,0,0,1,60.953,24.142c.133.583.244,1.171.372,1.788l-1.262.283-1.276.16c-2.735-12.742-9.747-22.151-21.723-27.381s-23.628-4-34.875,2.653l3.02,4.734a31.213,31.213,0,0,1,20.518-4.77,30.225,30.225,0,0,1,18.843,9.129,30.748,30.748,0,0,1,8.752,26.79,29.4,29.4,0,0,1-2.8,9c-.491,1-1.163,1.187-2.155.629a3.381,3.381,0,0,0-.4-.154V74.32l8.382-2.4c-.243-.2-.4-.344-.572-.474-1.449-1.112-1.5-1.324-.67-2.933a37.3,37.3,0,0,0,4.147-18.682c-.01-.288,0-.577,0-.893l1.226-.129h1.362A40.055,40.055,0,0,1,145.468,69.5a26.358,26.358,0,0,1,2.342,1.812,1.326,1.326,0,0,1-.46,2.429,27.124,27.124,0,0,1-2.83.863c-3.092.88-6.182,1.768-9.277,2.637-1.417.4-2.112-.135-2.12-1.589s-.011-2.912-.017-4.369" transform="translate(-70.443 -11.879)" fill="#030302"/><path d="M159.338,57.865l-1.226.129c0,.316-.009.6,0,.893a37.3,37.3,0,0,1-4.147,18.682c-.829,1.609-.78,1.821.67,2.933.169.13.329.272.573.474l-8.382,2.4V74.748a3.341,3.341,0,0,1,.4.154c.992.558,1.664.374,2.155-.629a29.4,29.4,0,0,0,2.8-9,30.747,30.747,0,0,0-8.752-26.79,30.225,30.225,0,0,0-18.843-9.129,31.212,31.212,0,0,0-20.518,4.77l-3.02-4.734c11.247-6.648,22.906-7.879,34.875-2.653s18.988,14.639,21.723,27.381l1.276-.16q.207,1.954.414,3.908" transform="translate(-81.424 -20.932)" fill="#ced371"/><path d="M38.724,131.11,37.7,132.47c-1.178-.537-2.393-1.028-3.548-1.63a6.32,6.32,0,0,0-5.982-.2L26.754,128l1.11-.645a37,37,0,0,1-2.65-26.136l-1.249-.429,1-3.144L26.152,98c.807-1.694,1.6-3.32,2.354-4.961a1.3,1.3,0,0,0-.415-1.689c-.382-.3-.771-.593-1.27-.976l8.362-2.385v8.628c-1.437-.783-1.983-.609-2.638.819a31.094,31.094,0,0,0-.9,24.652,28.352,28.352,0,0,0,3.512,6.606l1.161-.713,2.407,3.13" transform="translate(-21.321 -71.216)" fill="#ced371"/><path d="M31.4,117.079l-1.161.713a28.343,28.343,0,0,1-3.512-6.606,31.093,31.093,0,0,1,.9-24.652c.655-1.429,1.2-1.6,2.638-.82V77.087L21.9,79.472c.5.383.887.675,1.27.976a1.3,1.3,0,0,1,.415,1.689C22.83,83.778,22.04,85.4,21.234,87.1l-1.183-.352L18.8,86.229l1.878-4.348c-.755-.57-1.532-1.172-2.326-1.751-.515-.376-.883-.892-.616-1.467a2.061,2.061,0,0,1,1.12-1.02c4.048-1.215,8.115-2.365,12.179-3.525,1.269-.362,1.971.167,1.968,1.5-.011,4.231-.017,8.462-.092,12.693a2.07,2.07,0,0,1-.729,1.333c-.467.4-1.039.149-1.507-.213-.325-.252-.659-.492-1.133-.845-3.79,9.787-2.839,18.98,2.811,27.736l-.959.757" transform="translate(-16.403 -60.316)" fill="#030402"/><path d="M285.443,281.391c.005,1.456.008,2.913.016,4.369s.7,1.987,2.12,1.589c3.1-.869,6.185-1.757,9.277-2.637q0,1.627,0,3.254h-1.326V298.5H282.357V282.75l1.222-.079c.021-.44.041-.868.061-1.3l1.8.016m2.187,9.238a2.638,2.638,0,1,0,2.6,2.721,2.64,2.64,0,0,0-2.6-2.721" transform="translate(-222.778 -221.989)" fill="#b0c0d2"/><path d="M14.63,145.258l1.249.429a36.994,36.994,0,0,0,2.65,26.135l-1.11.645-1.189.517a38.837,38.837,0,0,1-2.852-27.96l1.252.234" transform="translate(-11.986 -115.684)" fill="#040403"/><path d="M169.964,171v2.544h-2.6v-2.534a5.569,5.569,0,0,1-4.393-2.351,4.841,4.841,0,0,1-.918-2.948h2.566a2.822,2.822,0,0,0,2.644,2.621v-5.254a5.519,5.519,0,0,1-4.154-2.142,5.237,5.237,0,0,1-1.07-3.549c.152-2.66,2.167-4.587,5.26-4.957v-2.547h2.623v2.533a5.589,5.589,0,0,1,4.4,2.348,4.485,4.485,0,0,1,.857,2.951h-2.5a2.811,2.811,0,0,0-2.653-2.607v5.239a5.5,5.5,0,0,1,4.2,2.207,5.236,5.236,0,0,1,1.021,3.483c-.156,2.663-2.161,4.581-5.285,4.961m-2.687-10.648v-5.192a2.6,2.6,0,1,0,0,5.192m2.713,7.92a2.626,2.626,0,0,0,2.621-2.8c-.086-1.344-1.518-2.645-2.621-2.323Z" transform="translate(-128.967 -119.472)" fill="#010100"/><path d="M129.76,153.435l1.959,1.759a12.252,12.252,0,0,0-3.04,9.231h-2.641a14.667,14.667,0,0,1,3.722-10.99" transform="translate(-100.879 -122.242)" fill="#020301"/><path d="M154.714,138.114c.136.253.217.392.288.537.285.588.566,1.178.879,1.83l-1.943,1.213-1.588-2.109,2.364-1.472" transform="translate(-121.419 -110.297)" fill="#030401"/><path d="M296.778,323.368A2.638,2.638,0,1,1,294.09,326a2.644,2.644,0,0,1,2.688-2.634" transform="translate(-231.926 -254.728)" fill="#010203"/><path d="M176.628,179a2.6,2.6,0,1,1,0-5.192Z" transform="translate(-138.318 -138.121)" fill="#ced371" opacity="0.76"/><path d="M198.151,215.016v-5.127c1.1-.322,2.535.979,2.621,2.323a2.626,2.626,0,0,1-2.621,2.8" transform="translate(-157.128 -166.216)" fill="#ced371"/></g></g></g></svg>