<svg xmlns="http://www.w3.org/2000/svg" width="72.763" height="73.03" viewBox="0 0 72.763 73.03">
  <g id="Grupo_876362" data-name="Grupo 876362" transform="translate(-1267.119 -3057.97)">
    <g id="Grupo_876360" data-name="Grupo 876360" transform="translate(179.063 -5.249)">
      <path id="Trazado_613930" data-name="Trazado 613930" d="M17.757,28.473c2.748,1.752,3.092,4.712,3.952,7.505.895-1.344,1.838-2.546,3.49-2.907a4.716,4.716,0,0,1,4.262,1.165,10.659,10.659,0,0,1,.909-2.125,6.474,6.474,0,0,1-1.86-.2,5.828,5.828,0,0,1-3.472-2.583,23.846,23.846,0,0,1-1.262-2.474,1.09,1.09,0,0,1,.845-1.61,22.038,22.038,0,0,1,3.862.049,5.814,5.814,0,0,1,4.512,3.358c.106.208.11.7.495.532s.951-.18.941-.932a14.431,14.431,0,0,0-.909-5.1q-2.328-6.006-4.637-12.02c-.444-1.152-.208-1.662.96-2.053.968-.324,1.936-.649,2.909-.957A1.161,1.161,0,0,1,34.4,8.9c.36.894.7,1.8,1.154,2.689v-.734q0-4.728,0-9.457C35.554.39,35.93.006,36.917,0c1.337,0,2.675,0,4.012,0,1.151,0,1.5.342,1.5,1.473,0,3.367,0,6.733.1,10.131.338-.861.672-1.723,1.015-2.582.391-.978.827-1.183,1.832-.855s1.985.645,2.968.992a1.173,1.173,0,0,1,.824,1.775c-1.413,3.7-2.836,7.392-4.31,11.228.824-.439,1.655-.472,2.275-1.262a9.692,9.692,0,0,1,15.39.143,1.7,1.7,0,0,0,.942.668,5.363,5.363,0,0,1,3.893,5.214,1.625,1.625,0,0,0,.346,1.035,5.283,5.283,0,0,1,.58,5.593,1.382,1.382,0,0,0-.079,1.073,6.847,6.847,0,0,1-6.437,8.92.687.687,0,0,0-.727.5,7.52,7.52,0,0,0-.534,1.809c2.288,0,4.554,0,6.82,0,1.13,0,1.472.35,1.472,1.5q0,9.958,0,19.917c0,1.174-.341,1.506-1.541,1.506H1.554c-1.2,0-1.539-.329-1.539-1.507q0-9.958,0-19.917c0-1.175.337-1.5,1.543-1.5h9.164c.1-.266-.084-.428-.173-.606C9.4,42.929,8.256,40.606,7.074,38.3A7.9,7.9,0,0,1,6.212,33.4c.065-.429-.052-.445-.4-.454a5.628,5.628,0,0,1-5.7-4.73A5.471,5.471,0,0,1,1.929,22.92a1.582,1.582,0,0,0,.512-.895,6.864,6.864,0,0,1,10.425-4.456,3.078,3.078,0,0,0,1.619.554A5.676,5.676,0,0,1,19.72,22a5.6,5.6,0,0,1-1.694,6.223l-.269.253" transform="translate(1088.057 3063.219)" fill="#9ea257"/>
      <path id="Trazado_613931" data-name="Trazado 613931" d="M236.524,101.77a7.315,7.315,0,0,1,5.954,3.34,2.132,2.132,0,0,0,1.5,1.045,3.032,3.032,0,0,1,2.537,3.716,1.392,1.392,0,0,0,.436,1.288,3.038,3.038,0,0,1,.4,4.3,1.379,1.379,0,0,0-.093,1.47A4.539,4.539,0,0,1,243.7,123.5a4.22,4.22,0,0,1-3.046-.747,3.169,3.169,0,0,0-1.241-.495,5.434,5.434,0,0,1-2.27-.98,1.265,1.265,0,0,0-1.637-.014,5.7,5.7,0,0,1-2.548,1.036,2.377,2.377,0,0,0-.963.439,4.552,4.552,0,0,1-6.7-5.652,1.6,1.6,0,0,0-.131-1.781,3.006,3.006,0,0,1,.39-4.028,1.528,1.528,0,0,0,.527-1.523,2.991,2.991,0,0,1,2.337-3.535,2.628,2.628,0,0,0,1.841-1.263,7.435,7.435,0,0,1,6.27-3.182" transform="translate(906.502 2980.94)" fill="#fff"/>
      <path id="Trazado_613932" data-name="Trazado 613932" d="M44.024,255.915q-15.655,0-31.309.016c-.62,0-.808-.128-.773-.767.061-1.119.032-2.244.008-3.366-.008-.374.1-.528.474-.471a2.4,2.4,0,0,0,.358,0q31.273,0,62.547-.017c.684,0,.892.14.846.84a29.6,29.6,0,0,0-.005,3.151c.02.5-.117.625-.621.624q-9.923-.028-19.846-.012Z" transform="translate(1078.406 2860.036)" fill="#fff"/>
      <path id="Trazado_613933" data-name="Trazado 613933" d="M44.066,291.836q-15.691,0-31.381.015c-.593,0-.764-.13-.734-.732.055-1.12.034-2.244.006-3.366-.01-.406.108-.517.513-.512,1.791.022,3.582.009,5.373.009q28.766,0,57.532-.015c.646,0,.842.149.807.8-.059,1.1-.035,2.2-.007,3.294.01.406-.108.519-.513.512-1.313-.025-2.627-.01-3.94-.01Z" transform="translate(1078.397 2830.993)" fill="#fff"/>
      <path id="Trazado_613934" data-name="Trazado 613934" d="M44.134,323.166q15.655,0,31.309-.015c.6,0,.762.134.733.733-.054,1.12-.034,2.244-.006,3.366.01.409-.112.514-.514.51-2.1-.02-4.2-.009-6.3-.009q-28.3,0-56.6.016c-.648,0-.842-.153-.8-.805a30.707,30.707,0,0,0,0-3.151c-.025-.542.131-.659.662-.658q15.762.026,31.524.013" transform="translate(1078.402 2801.956)" fill="#fff"/>
      <path id="Trazado_613935" data-name="Trazado 613935" d="M55.76,163.94c-.913-.435-1.6.031-2.3.334a1.075,1.075,0,0,0-.642,1.4,1.1,1.1,0,0,0,1.419.751,4,4,0,0,0,1.788-.895,9.777,9.777,0,0,0,1.928,4.937h-.926q-3.758,0-7.517,0c-.442,0-1.4-1.19-1.3-1.6.044-.174.227-.142.341-.192.477-.208.976-.369,1.452-.58a1.126,1.126,0,0,0,.721-1.491,1.157,1.157,0,0,0-1.581-.671c-.537.186-1.066.4-1.584.636-.357.162-.571.09-.688-.281a1.39,1.39,0,0,0-.085-.2c-.211-.424-.634-.877-.581-1.265.061-.45.768-.4,1.164-.629A1.138,1.138,0,0,0,48,162.774a1.12,1.12,0,0,0-1.356-.752,3.066,3.066,0,0,0-.54.173c-1.067.411-1.053.406-1.578-.652a4.788,4.788,0,0,1-.063-4.526,4.931,4.931,0,0,1,4.978-2.826c2.564.427,3.885,1.406,4.631,3.926.562,1.9,1.106,3.8,1.692,5.823" transform="translate(1052.548 2938.604)" fill="#fff"/>
      <path id="Trazado_613936" data-name="Trazado 613936" d="M126.833,194.645c-1.551,0-3.1-.011-4.654.008a.716.716,0,0,1-.731-.409,13.063,13.063,0,0,1-1.869-3.66,6.262,6.262,0,0,1,1.637-5.865,2.175,2.175,0,0,1,3.408.326,2.734,2.734,0,0,0,3.607.851,3.764,3.764,0,0,0,.983-.926,2.2,2.2,0,0,1,3.565-.016,6.262,6.262,0,0,1,.648,7.494c-.436.736-.762,1.7-1.417,2.094-.6.361-1.574.1-2.383.1-.931,0-1.862,0-2.793,0" transform="translate(991.511 2914.429)" fill="#fff"/>
      <path id="Trazado_613937" data-name="Trazado 613937" d="M27.493,103.14a3.4,3.4,0,0,1-2.443,3.357c-.154.045-.326.191-.463.054s-.026-.313.024-.462a6.915,6.915,0,0,1,1.248-2.3c.6-.713.593-1.427.021-1.88s-1.191-.326-1.79.377a8.564,8.564,0,0,0-1.8,3.52c-.065.259-.087.522-.426.567-.418.056-.338-.333-.416-.52-.459-1.093-.869-2.206-1.311-3.307-.32-.8-.9-1.111-1.537-.867-.7.267-.931.881-.617,1.709.428,1.131.875,2.256,1.3,3.387.067.176.294.355.058.568-.26.234-.466.071-.7-.078a8.424,8.424,0,0,0-3.92-1.4,1.163,1.163,0,0,0-1.415,1.057,1.212,1.212,0,0,0,1.2,1.25,6.422,6.422,0,0,1,2.424.777c.177.1.48.148.471.376-.011.266-.333.3-.536.392a3.392,3.392,0,0,1-4.238-1.36,3.318,3.318,0,0,1,.78-4.421,2.451,2.451,0,0,0,1.071-1.8,4.264,4.264,0,0,1,2.99-3.669,4.32,4.32,0,0,1,4.632.993,1.9,1.9,0,0,0,1.591.4,3.35,3.35,0,0,1,3.661,2.42,5.334,5.334,0,0,1,.138.858" transform="translate(1078.263 2983.842)" fill="#fff"/>
      <path id="Trazado_613938" data-name="Trazado 613938" d="M192.762,79.968c-.391-.554-1.16-.737-1.3-1.315a3.2,3.2,0,0,1,.133-1.962q2.53-6.112,5.028-12.238c1.089-2.655,2.205-5.3,3.247-7.972.287-.738.675-.4,1.1-.3.591.152.245.511.148.767-1.472,3.879-2.961,7.751-4.435,11.628a9.333,9.333,0,0,0-.545,2.354,7.5,7.5,0,0,1-.556,2.122c-.947,2.268-1.859,4.551-2.818,6.912" transform="translate(933.337 3017.932)" fill="#fff"/>
      <path id="Trazado_613939" data-name="Trazado 613939" d="M198.645,30.259a10.907,10.907,0,0,1-1.173-4.026c.074-4.556.036-9.114.014-13.671,0-.524.106-.678.653-.666,1.652.035,1.653.007,1.653,1.657,0,4.176-.056,8.352.029,12.526a10.891,10.891,0,0,1-1.176,4.181" transform="translate(928.403 3053.603)" fill="#fff"/>
      <path id="Trazado_613940" data-name="Trazado 613940" d="M202.846,174.53a1,1,0,0,1,.246,1.157,6.276,6.276,0,0,0-.177,3.518,12.541,12.541,0,0,1,.12,3.342,3.38,3.38,0,0,0,.821,2.479,5.813,5.813,0,0,1,1.266,1.91h-5.031c.394-.751.869-1.4,1.168-2.146a8.448,8.448,0,0,0,.221-5.992,1.318,1.318,0,0,1,.023-1.017c.459-1.066.888-2.145,1.342-3.252" transform="translate(926.286 2922.114)" fill="#fff"/>
      <path id="Trazado_613941" data-name="Trazado 613941" d="M169.287,71.369c-1.186-5.025-3.461-9.617-5.156-14.415-.089-.253-.462-.622.137-.768.405-.1.807-.469,1.089.288,1.407,3.778,2.876,7.534,4.315,11.3.646,1.691.638,1.694-.385,3.595" transform="translate(955.519 3017.938)" fill="#fffeff"/>
      <path id="Trazado_613942" data-name="Trazado 613942" d="M229.47,221.589a8.809,8.809,0,0,0,2.767,1.036c.234.035.473.044.706.087.353.066.8-.2,1.05.171a5.313,5.313,0,0,1,.689,1.929c.045.222-.152.192-.285.192-.9,0-1.809,0-2.713.005a.383.383,0,0,1-.439-.348,9.091,9.091,0,0,0-1.775-3.073" transform="translate(902.533 2884.068)" fill="#fffeff"/>
      <path id="Trazado_613943" data-name="Trazado 613943" d="M139.626,143.76c2.075-.117,3.392.584,4.125,2.169a3.65,3.65,0,0,1-4.125-2.169" transform="translate(975.171 2947.002)" fill="#fefefe"/>
      <path id="Trazado_613944" data-name="Trazado 613944" d="M266.648,224.843c-.632.146-.815-.041-.878-.537a13.36,13.36,0,0,0-.431-1.636c-.061-.234-.373-.471-.161-.691a2.99,2.99,0,0,1,.844-.506c.2-.1.227.121.281.225a7.692,7.692,0,0,1,.77,2.854c.054.539-.362.266-.425.29" transform="translate(873.723 2884.182)" fill="#fdfdfd"/>
      <path id="Trazado_613945" data-name="Trazado 613945" d="M298.172,225.177c-.6.128-.719-.043-.667-.534a7.787,7.787,0,0,1,.649-2.45c.07-.154.148-.514.4-.253s.987.083.776.74a11.146,11.146,0,0,0-.612,2.244c-.052.5-.45.178-.544.252" transform="translate(847.536 2883.858)" fill="#fefefe"/>
      <path id="Trazado_613946" data-name="Trazado 613946" d="M168.868,166.121a5.642,5.642,0,0,1,1.946-1.967c.143.029.12.134.12.221,0,.4.122.885-.06,1.175-.137.218-.673.176-1.027.268-.29.075-.573.176-.978.3" transform="translate(951.529 2930.503)" fill="#fcfcfc"/>
      <path id="Trazado_613947" data-name="Trazado 613947" d="M283.349,218.072c-.209-.561-.417-1.111-.617-1.664-.063-.174-.208-.315.062-.513.427-.314.737-.08,1.091.091.27.13.133.306.072.471-.2.529-.4,1.056-.608,1.615" transform="translate(859.548 2888.797)" fill="#fbfbfb"/>
      <path id="Trazado_613948" data-name="Trazado 613948" d="M267.392,113.734a4.558,4.558,0,0,1,4.225,2.768,1.2,1.2,0,0,1-.482,1.707,1.129,1.129,0,0,1-1.609-.7,2.294,2.294,0,0,0-4.275.007,1.142,1.142,0,0,1-1.553.73,1.22,1.22,0,0,1-.568-1.685,4.589,4.589,0,0,1,4.263-2.825" transform="translate(875.422 2971.268)" fill="#9ea257"/>
      <path id="Trazado_613949" data-name="Trazado 613949" d="M238.022,147.043a3.4,3.4,0,0,1,3.342-3.38,1.149,1.149,0,0,1,.2,2.29c-.786.129-1.229.535-1.239,1.134s.446,1.038,1.211,1.162a1.148,1.148,0,0,1-.141,2.291,3.4,3.4,0,0,1-3.37-3.5" transform="translate(895.619 2947.07)" fill="#9ea257"/>
      <path id="Trazado_613950" data-name="Trazado 613950" d="M26.3,259.63c-.406,0-.813.019-1.217,0a1.141,1.141,0,0,1,.019-2.278q1.216-.038,2.434,0a1.081,1.081,0,0,1,1.065,1.111,1.1,1.1,0,0,1-1.085,1.167c-.4.022-.811,0-1.217,0" transform="translate(1068.635 2855.174)" fill="#9ea257"/>
      <path id="Trazado_613951" data-name="Trazado 613951" d="M170.015,257.369c.382,0,.765-.014,1.146,0a1.141,1.141,0,0,1,0,2.282q-1.181.033-2.363,0a1.141,1.141,0,0,1,0-2.282c.405-.019.811,0,1.217,0" transform="translate(952.481 2855.145)" fill="#9ea257"/>
      <path id="Trazado_613952" data-name="Trazado 613952" d="M313.625,259.63c-.382,0-.764.015-1.146,0a1.1,1.1,0,0,1-1.124-1.128,1.084,1.084,0,0,1,1.095-1.153c.811-.023,1.624-.026,2.434,0a1.079,1.079,0,0,1,1.054,1.122,1.094,1.094,0,0,1-1.025,1.153c-.427.031-.859.006-1.288.007" transform="translate(836.33 2855.173)" fill="#9ea257"/>
      <path id="Trazado_613953" data-name="Trazado 613953" d="M26.33,293.281c.382,0,.764-.013,1.146,0a1.141,1.141,0,0,1,.04,2.281c-.811.025-1.624.027-2.434,0a1.08,1.08,0,0,1-1.058-1.118,1.1,1.1,0,0,1,1.09-1.161c.4-.021.811,0,1.217,0" transform="translate(1068.634 2826.111)" fill="#9ea257"/>
      <path id="Trazado_613954" data-name="Trazado 613954" d="M169.945,295.55c-.382,0-.765.015-1.146,0a1.1,1.1,0,0,1-1.109-1.143,1.087,1.087,0,0,1,1.11-1.139q1.181-.032,2.363,0a1.141,1.141,0,0,1,0,2.282c-.405.019-.811,0-1.217,0" transform="translate(952.48 2826.132)" fill="#9ea257"/>
      <path id="Trazado_613955" data-name="Trazado 613955" d="M313.652,295.545c-.406,0-.813.018-1.217-.005a1.1,1.1,0,0,1-1.081-1.17,1.078,1.078,0,0,1,1.067-1.108c.811-.026,1.624-.026,2.434,0a1.088,1.088,0,0,1,1.082,1.167,1.109,1.109,0,0,1-1.068,1.116c-.048,0-.1,0-.143,0h-1.074" transform="translate(836.331 2826.137)" fill="#9ea257"/>
      <path id="Trazado_613956" data-name="Trazado 613956" d="M26.32,331.458c-.406,0-.813.019-1.217,0a1.1,1.1,0,0,1-1.079-1.172,1.078,1.078,0,0,1,1.069-1.107q1.216-.039,2.434,0a1.141,1.141,0,0,1,.01,2.279c-.4.023-.811,0-1.217,0" transform="translate(1068.634 2797.102)" fill="#9ea257"/>
      <path id="Trazado_613957" data-name="Trazado 613957" d="M169.987,331.458c-.406,0-.813.019-1.217,0a1.1,1.1,0,0,1-1.08-1.171,1.078,1.078,0,0,1,1.068-1.108q1.216-.04,2.434,0a1.141,1.141,0,0,1,.012,2.278c-.4.024-.811,0-1.217,0" transform="translate(952.482 2797.102)" fill="#9ea257"/>
      <path id="Trazado_613958" data-name="Trazado 613958" d="M313.715,329.194c.382,0,.765-.018,1.145,0a1.141,1.141,0,0,1,0,2.279c-.811.027-1.624.027-2.434,0a1.141,1.141,0,0,1,0-2.278c.428-.023.859,0,1.289,0" transform="translate(836.331 2797.076)" fill="#9ea257"/>
      <path id="Trazado_613959" data-name="Trazado 613959" d="M77.053,185.063a1.158,1.158,0,0,1-1.323-.868,1.019,1.019,0,0,1,.564-1.259,18.768,18.768,0,0,1,2.508-.98,1.147,1.147,0,0,1,.959,1.981,11,11,0,0,1-2.707,1.126" transform="translate(1026.868 2916.146)" fill="#9ea257"/>
      <path id="Trazado_613960" data-name="Trazado 613960" d="M131.746,200.375a4.281,4.281,0,0,1,.9-2.494,1.013,1.013,0,0,1,1.45-.317,1.049,1.049,0,0,1,.535,1.387,3.9,3.9,0,0,1-.3.646,1.319,1.319,0,0,0,.118,1.7,1.065,1.065,0,0,1-.148,1.588,1.146,1.146,0,0,1-1.655-.16,3.239,3.239,0,0,1-.9-2.347" transform="translate(981.542 2903.634)" fill="#9ea257"/>
    </g>
    <g id="Grupo_876361" data-name="Grupo 876361" transform="translate(1316.243 3100.813)">
      <path id="Trazado_613911" data-name="Trazado 613911" d="M9.787.013A2.575,2.575,0,0,1,10.9.29a2.154,2.154,0,0,0,1.858,0,2.416,2.416,0,0,1,3.151.74,1.985,1.985,0,0,0,1.521.794,4.08,4.08,0,0,1,.639.074,2.384,2.384,0,0,1,1.983,1.927,2.438,2.438,0,0,0,1.232,1.583,2.459,2.459,0,0,1,1.333,2.915,2.19,2.19,0,0,0,.352,1.747c.049.065.1.133.141.2a2.528,2.528,0,0,1-.014,3.083,2.552,2.552,0,0,0-.462,2.047,2.477,2.477,0,0,1-1.384,2.838,2.107,2.107,0,0,0-1.1,1.218.547.547,0,0,0,.046.483q1.619,2.78,3.22,5.57a1.315,1.315,0,0,1-.4,1.854,1.278,1.278,0,0,1-.879.2c-.707-.108-1.414-.213-2.119-.336-.172-.03-.209.056-.255.173-.245.626-.5,1.25-.734,1.879a1.329,1.329,0,0,1-2.444.186C15.561,27.675,14.5,25.9,13.512,24.1a1.839,1.839,0,0,0-1.191-.926,2.575,2.575,0,0,0-1.766.3c-.086.034-.137.171-.193.266q-1.646,2.852-3.29,5.706a1.294,1.294,0,0,1-1.427.722,1.262,1.262,0,0,1-1.012-.84c-.248-.614-.495-1.228-.721-1.85-.075-.205-.138-.277-.382-.23-.682.132-1.37.234-2.06.314A1.241,1.241,0,0,1,.252,27a1.235,1.235,0,0,1-.073-1.388c.546-.97,1.108-1.93,1.664-2.893.536-.929,1.068-1.859,1.613-2.783a.53.53,0,0,0,.039-.483,1.894,1.894,0,0,0-.887-1.091c-.1-.056-.2-.11-.292-.167a2.53,2.53,0,0,1-1.293-2.86,2.175,2.175,0,0,0-.388-1.854,3.3,3.3,0,0,1-.37-.634A2.4,2.4,0,0,1,.537,10.3a2.65,2.65,0,0,0,.481-2.1A2.444,2.444,0,0,1,2.423,5.375,2.273,2.273,0,0,0,3.586,3.882a2.384,2.384,0,0,1,2.4-2.022A2.507,2.507,0,0,0,7.854.917a2.31,2.31,0,0,1,1.933-.9" transform="translate(0 0)" fill="#9ea257"/>
      <path id="Trazado_613912" data-name="Trazado 613912" d="M17.926,30.744c.036-.335.079-.67.107-1.006a2.763,2.763,0,0,0-.573-1.958,1.6,1.6,0,0,1-.007-2.191,3.285,3.285,0,0,0,.516-2.66,1.21,1.21,0,0,1,.76-1.552,3.322,3.322,0,0,0,1.726-2.194c.019-.079.051-.154.073-.233a1.2,1.2,0,0,1,1.247-.922,3.305,3.305,0,0,0,2.546-1.206c.618-.71.893-.768,1.767-.4a3.32,3.32,0,0,0,2.733-.008l.169-.072a1.14,1.14,0,0,1,1.434.309c.17.191.351.373.533.554a3.023,3.023,0,0,0,2,.819c.092.007.184.005.276.012A1.207,1.207,0,0,1,34.4,19.055a3.55,3.55,0,0,0,1.833,2.368c.738.413.846.658.674,1.738a3.039,3.039,0,0,0,.532,2.416,1.6,1.6,0,0,1,0,2.192,3.228,3.228,0,0,0-.5,2.719A1.192,1.192,0,0,1,36.3,31.9a3.567,3.567,0,0,0-1.918,2.445,1.147,1.147,0,0,1-1.264.97,3.291,3.291,0,0,0-2.522,1.2,1.507,1.507,0,0,1-.142.162c-.632.575-.746.622-1.475.32a3.641,3.641,0,0,0-3.047,0,1.08,1.08,0,0,1-1.516-.363,3.483,3.483,0,0,0-2.746-1.328,1.123,1.123,0,0,1-1.162-.978,3.529,3.529,0,0,0-1.872-2.408,1.117,1.117,0,0,1-.71-1.178" transform="translate(-15.624 -14.866)" fill="#fff"/>
      <path id="Trazado_613913" data-name="Trazado 613913" d="M21.392,265.178l-.942-2.405c-.227-.581-.408-.685-1.019-.594l-2.515.373c-.038-.086.029-.135.06-.188q1.361-2.36,2.723-4.72c.085-.148.119-.207.293-.073a2.718,2.718,0,0,0,1.629.54,1.966,1.966,0,0,1,1.557.72,3.362,3.362,0,0,0,1.144.911c.142.067.14.129.07.251-.993,1.711-1.982,3.425-3,5.185" transform="translate(-15.515 -236.324)" fill="#fff"/>
      <path id="Trazado_613914" data-name="Trazado 613914" d="M186.709,262.406c-.881-.134-1.758-.262-2.634-.4a.691.691,0,0,0-.852.463c-.294.737-.578,1.479-.867,2.218-.041.1-.088.2-.145.334l-2.323-4.025c-.219-.38-.435-.762-.663-1.137-.082-.135-.077-.2.078-.272a3.144,3.144,0,0,0,1.1-.869,2.015,2.015,0,0,1,1.6-.753,2.743,2.743,0,0,0,1.652-.565c.112-.086.149-.09.219.032q1.41,2.454,2.826,4.906c.008.015,0,.037.006.072" transform="translate(-164.441 -236.177)" fill="#fff"/>
      <path id="Trazado_613915" data-name="Trazado 613915" d="M55.835,47.753a7.886,7.886,0,1,1-7.887,8,7.92,7.92,0,0,1,7.887-8" transform="translate(-44.004 -43.826)" fill="#9ea257"/>
      <path id="Trazado_613916" data-name="Trazado 613916" d="M64.236,70.45a6.55,6.55,0,1,1,6.2,6.557,6.536,6.536,0,0,1-6.2-6.557" transform="translate(-58.955 -58.655)" fill="#fff"/>
      <path id="Trazado_613917" data-name="Trazado 613917" d="M117.783,112.289a.756.756,0,0,1-.147.4c-.844,1.266-1.684,2.535-2.532,3.8a.671.671,0,0,1-1.135.1q-.919-.906-1.825-1.824a.668.668,0,1,1,.93-.942c.386.381.777.758,1.148,1.154.156.167.218.12.325-.042q.977-1.484,1.97-2.959a.665.665,0,0,1,.991-.265.639.639,0,0,1,.277.579" transform="translate(-102.676 -102.408)" fill="#9ea257"/>
      <rect id="Rectángulo_324932" data-name="Rectángulo 324932" width="23.639" height="30.187" transform="translate(0 0)" fill="none"/>
    </g>
  </g>
</svg>
